<svg width="44" height="44" viewBox="0 0 44 44" fill="none" xmlns="http://www.w3.org/2000/svg">
<path fill-rule="evenodd" clip-rule="evenodd" d="M42.0736 1.75042C39.1688 -1.15455 28.9078 5.15324 25.5009 7.4388C25.2073 7.636 25.0925 7.62959 24.836 7.61526C24.7048 7.60794 24.5364 7.59854 24.288 7.61328C24.2843 7.61336 24.2412 7.61558 24.2405 7.61566C24.2332 7.61615 24.2051 7.61861 24.1943 7.62001C22.9736 7.71705 21.7819 8.28979 20.8335 9.23815C19.8096 10.2621 19.5468 11.1521 19.37 11.7509C19.2784 12.0612 19.2098 12.2933 19.0704 12.4251C17.6461 13.7821 16.6595 14.7317 15.9664 15.3987L15.9664 15.3987C14.5195 16.7912 14.3521 16.9523 14.1532 17.0182C14.1272 17.0268 14.1007 17.0338 14.0707 17.0417L14.0707 17.0418L14.0706 17.0418L14.0321 17.052C13.1193 17.3021 12.2629 17.808 11.5556 18.5152C10.6462 19.4246 10.0753 20.5722 9.94823 21.7461C9.911 22.0881 9.82439 22.1982 9.65952 22.4079C9.63696 22.4366 9.61294 22.4671 9.58738 22.5004C6.74549 26.227 3.4959 31.2924 1.89416 35.7041C0.748594 38.8593 0.714223 41.0057 1.79203 42.0834C3.9771 44.2685 10.2436 42.0195 13.1043 40.7848C18.8905 38.2874 24.8777 34.1862 29.5308 29.5327C34.1829 24.881 38.2829 18.8855 40.7794 13.0835C42.0099 10.2242 44.2612 3.93787 42.0736 1.75042ZM26.4148 8.80068C27.3312 8.18577 28.2545 7.59753 29.1659 7.04685C30.5254 8.04944 31.6687 9.13832 32.4135 10.1459C33.236 11.2587 33.2052 11.7842 33.165 11.8414C33.1247 11.8991 32.6388 12.1081 31.3024 11.7107C29.5497 11.1892 27.64 10.0396 26.189 8.93858C26.2648 8.89641 26.3402 8.85072 26.4148 8.80068ZM24.6356 17.9807C23.3878 16.5272 21.6419 15.0418 19.8793 13.9208L15.9523 17.6765C16.5531 18.1066 17.1923 18.5188 17.8636 18.9067C19.8696 20.0648 21.9072 20.8674 23.6006 21.1665C25.1221 21.4351 26.0006 21.2144 26.1959 20.8762C26.3122 20.6745 26.0812 19.6647 24.6356 17.9807ZM10.4787 24.0423C11.1476 24.4019 11.824 24.8195 12.4965 25.2898C14.0409 26.3714 15.3453 27.5791 16.1696 28.6904C17.0001 29.8102 16.9698 30.3385 16.9292 30.3965C16.8888 30.4541 16.4025 30.6631 15.0666 30.2657C13.7404 29.8712 12.1594 29.0584 10.6147 27.9768C9.93478 27.5009 9.30396 27.0019 8.73122 26.4885C9.29026 25.6686 9.87547 24.8496 10.4787 24.0423ZM28.3712 28.3731C32.8819 23.8627 36.8554 18.0536 39.2728 12.4354C41.7375 6.70741 41.6045 3.60072 40.9136 2.91035C40.2376 2.23433 36.9736 2.59313 30.6957 6.1514C33.4744 8.34024 35.6611 11.1357 34.5086 12.7822C33.7484 13.8682 32.1064 13.6612 30.8347 13.2829C28.4998 12.5883 25.879 10.9158 24.0283 9.29311C23.3028 9.42346 22.576 9.815 21.9929 10.3981C21.2001 11.1908 21.0023 11.9518 20.8911 12.3794C20.8701 12.4603 20.8521 12.5293 20.8339 12.5843C24.6993 15.0688 28.9054 19.4613 27.6161 21.6962C27.1166 22.5609 26.1154 22.9322 24.8373 22.9322C22.6701 22.9322 19.7068 21.8649 17.043 20.3269C16.1305 19.7996 15.2705 19.2298 14.4799 18.6295C13.807 18.8161 13.2146 19.1754 12.715 19.6751C12.0691 20.321 11.6656 21.1194 11.5785 21.9232C11.5489 22.1956 11.4884 22.4468 11.3989 22.6763C12.0771 23.048 12.7597 23.4727 13.4368 23.9463C15.1222 25.1265 16.5604 26.4644 17.4869 27.7135C18.9 29.6188 18.6941 30.7359 18.2725 31.3375C17.5123 32.4235 15.8694 32.2158 14.5989 31.8378C13.1082 31.3945 11.3593 30.5004 9.67392 29.3205C9.00988 28.8557 8.38816 28.3687 7.81468 27.8673C3.01545 35.2828 2.05076 40.0228 2.95179 40.9238C3.20625 41.1783 3.78933 41.3568 4.71013 41.3568C6.28529 41.3569 8.84934 40.8351 12.4545 39.2791C18.0575 36.8607 23.859 32.8856 28.3712 28.3731Z" fill="#4D4D4D"/>
<path d="M25.5009 7.4388L25.4452 7.35575L25.4452 7.35578L25.5009 7.4388ZM42.0736 1.75042L42.0028 1.82113L42.0028 1.82114L42.0736 1.75042ZM24.836 7.61526L24.8304 7.71511L24.836 7.61526ZM24.288 7.61328L24.2902 7.71332L24.2939 7.7131L24.288 7.61328ZM24.2405 7.61566L24.2473 7.71552L24.2515 7.71505L24.2405 7.61566ZM24.1943 7.62001L24.2022 7.71981L24.207 7.71919L24.1943 7.62001ZM20.8335 9.23815L20.9042 9.30886V9.30886L20.8335 9.23815ZM19.37 11.7509L19.2741 11.7226L19.37 11.7509ZM19.0704 12.4251L19.0017 12.3525L19.0015 12.3527L19.0704 12.4251ZM15.9664 15.3987L15.8971 15.3266L15.8957 15.328L15.9664 15.3987ZM15.9664 15.3987L16.0357 15.4708L16.0371 15.4694L15.9664 15.3987ZM14.1532 17.0182L14.1847 17.1131L14.1847 17.1131L14.1532 17.0182ZM14.0707 17.0417L14.0924 17.1394L14.0962 17.1384L14.0707 17.0417ZM14.0707 17.0418L14.049 16.9441L14.041 16.9459L14.0335 16.9489L14.0707 17.0418ZM14.0706 17.0418L14.0966 17.1391L14.1078 17.1346L14.0706 17.0418ZM14.0321 17.052L14.0063 16.9554L14.0057 16.9556L14.0321 17.052ZM11.5556 18.5152L11.4849 18.4445L11.4849 18.4445L11.5556 18.5152ZM9.94823 21.7461L10.0476 21.7569L10.0477 21.7569L9.94823 21.7461ZM9.65952 22.4079L9.58091 22.3461L9.65952 22.4079ZM9.58738 22.5004L9.50809 22.4395L9.50786 22.4398L9.58738 22.5004ZM1.89416 35.7041L1.98816 35.7383H1.98816L1.89416 35.7041ZM1.79203 42.0834L1.86274 42.0127L1.86274 42.0127L1.79203 42.0834ZM13.1043 40.7848L13.1439 40.8766H13.1439L13.1043 40.7848ZM29.5308 29.5327L29.4601 29.462L29.4601 29.462L29.5308 29.5327ZM40.7794 13.0835L40.6875 13.044L40.6875 13.044L40.7794 13.0835ZM29.1659 7.04685L29.2252 6.96637L29.1714 6.92668L29.1141 6.96126L29.1659 7.04685ZM26.4148 8.80068L26.3591 8.71764L26.3591 8.71765L26.4148 8.80068ZM32.4135 10.1459L32.4939 10.0865V10.0865L32.4135 10.1459ZM33.165 11.8414L33.0831 11.784L33.0831 11.7841L33.165 11.8414ZM31.3024 11.7107L31.2739 11.8065L31.2739 11.8065L31.3024 11.7107ZM26.189 8.93858L26.1404 8.85119L26.0066 8.92565L26.1286 9.01824L26.189 8.93858ZM19.8793 13.9208L19.9329 13.8364L19.8668 13.7944L19.8101 13.8486L19.8793 13.9208ZM24.6356 17.9807L24.7115 17.9156L24.6356 17.9807ZM15.9523 17.6765L15.8831 17.6042L15.796 17.6876L15.8941 17.7578L15.9523 17.6765ZM17.8636 18.9067L17.8136 18.9933L17.8136 18.9933L17.8636 18.9067ZM23.6006 21.1665L23.5832 21.265H23.5832L23.6006 21.1665ZM26.1959 20.8762L26.2825 20.9262L26.2825 20.9261L26.1959 20.8762ZM12.4965 25.2898L12.5538 25.2079L12.5538 25.2078L12.4965 25.2898ZM10.4787 24.0423L10.5261 23.9543L10.4502 23.9135L10.3986 23.9825L10.4787 24.0423ZM16.1696 28.6904L16.2499 28.6308V28.6308L16.1696 28.6904ZM16.9292 30.3965L17.0111 30.4539L17.0111 30.4538L16.9292 30.3965ZM15.0666 30.2657L15.0381 30.3616H15.0381L15.0666 30.2657ZM10.6147 27.9768L10.672 27.8949L10.672 27.8949L10.6147 27.9768ZM8.73122 26.4885L8.6486 26.4322L8.59926 26.5045L8.66447 26.563L8.73122 26.4885ZM39.2728 12.4354L39.1809 12.3959V12.3959L39.2728 12.4354ZM28.3712 28.3731L28.3005 28.3024L28.3005 28.3024L28.3712 28.3731ZM40.9136 2.91035L40.8428 2.98105L40.8429 2.98109L40.9136 2.91035ZM30.6957 6.1514L30.6464 6.0644L30.5168 6.13782L30.6338 6.22996L30.6957 6.1514ZM34.5086 12.7822L34.5905 12.8396L34.5905 12.8396L34.5086 12.7822ZM30.8347 13.2829L30.8632 13.187H30.8632L30.8347 13.2829ZM24.0283 9.29311L24.0943 9.21793L24.058 9.18618L24.0106 9.19469L24.0283 9.29311ZM21.9929 10.3981L21.9222 10.3274L21.9222 10.3274L21.9929 10.3981ZM20.8911 12.3794L20.7943 12.3542V12.3542L20.8911 12.3794ZM20.8339 12.5843L20.739 12.5528L20.7145 12.6264L20.7798 12.6684L20.8339 12.5843ZM27.6161 21.6962L27.7027 21.7462L27.7027 21.7461L27.6161 21.6962ZM17.043 20.3269L16.993 20.4135L16.993 20.4135L17.043 20.3269ZM14.4799 18.6295L14.5404 18.5499L14.5009 18.5199L14.4532 18.5331L14.4799 18.6295ZM12.715 19.6751L12.6443 19.6044L12.715 19.6751ZM11.5785 21.9232L11.6779 21.934L11.6779 21.934L11.5785 21.9232ZM11.3989 22.6763L11.3057 22.6399L11.2738 22.7217L11.3508 22.764L11.3989 22.6763ZM13.4368 23.9463L13.4941 23.8644L13.4941 23.8643L13.4368 23.9463ZM17.4869 27.7135L17.5672 27.6539L17.5672 27.6539L17.4869 27.7135ZM18.2725 31.3375L18.1906 31.2802L18.1906 31.2802L18.2725 31.3375ZM14.5989 31.8378L14.6274 31.742H14.6274L14.5989 31.8378ZM9.67392 29.3205L9.73128 29.2386L9.73127 29.2385L9.67392 29.3205ZM7.81468 27.8673L7.88051 27.792L7.79352 27.7159L7.73073 27.813L7.81468 27.8673ZM2.95179 40.9238L3.02251 40.8531L3.0225 40.8531L2.95179 40.9238ZM4.71013 41.3568L4.71013 41.2568H4.71013V41.3568ZM12.4545 39.2791L12.4148 39.1873H12.4148L12.4545 39.2791ZM25.5567 7.52184C27.2582 6.38033 30.6697 4.23559 34.0163 2.73946C35.6902 1.99113 37.3422 1.4077 38.7529 1.19113C40.1685 0.973818 41.3118 1.13008 42.0028 1.82113L42.1443 1.67971C41.3829 0.918277 40.1543 0.773652 38.7225 0.993448C37.2859 1.21399 35.615 1.80568 33.9347 2.55687C30.5729 4.05978 27.1505 6.21171 25.4452 7.35575L25.5567 7.52184ZM24.8304 7.71511C24.9558 7.72211 25.0627 7.72873 25.1759 7.70406C25.2908 7.67898 25.405 7.62368 25.5567 7.52181L25.4452 7.35578C25.3033 7.45111 25.2132 7.49121 25.1333 7.50865C25.0515 7.52649 24.9727 7.52274 24.8416 7.51542L24.8304 7.71511ZM24.2939 7.7131C24.5365 7.6987 24.7003 7.70784 24.8304 7.71511L24.8416 7.51542C24.7092 7.50803 24.5363 7.49837 24.282 7.51345L24.2939 7.7131ZM24.2515 7.71505C24.2501 7.7152 24.249 7.7153 24.2487 7.71532C24.2483 7.71535 24.2479 7.71538 24.2477 7.71539C24.2474 7.71542 24.2471 7.71544 24.247 7.71544C24.2468 7.71545 24.2468 7.71546 24.2469 7.71545C24.2471 7.71544 24.2474 7.71542 24.248 7.71539C24.2492 7.71532 24.2508 7.71523 24.2529 7.71513C24.257 7.71491 24.2626 7.71462 24.2682 7.71434C24.2738 7.71406 24.2794 7.71377 24.2839 7.71356C24.2861 7.71345 24.288 7.71336 24.2894 7.7133C24.2913 7.71322 24.2911 7.71323 24.2902 7.71325L24.2857 7.5133C24.2816 7.5134 24.2348 7.51567 24.2294 7.51627L24.2515 7.71505ZM24.207 7.71919C24.2104 7.71876 24.2184 7.71794 24.2278 7.71708C24.237 7.71623 24.2449 7.71559 24.2473 7.71543L24.2337 7.51589C24.2254 7.51645 24.1951 7.51907 24.1815 7.52082L24.207 7.71919ZM20.9042 9.30886C21.8375 8.37566 23.0075 7.81467 24.2022 7.71969L24.1863 7.52032C22.9398 7.61943 21.7263 8.20392 20.7628 9.16744L20.9042 9.30886ZM19.4659 11.7792C19.6409 11.1865 19.8978 10.3153 20.9042 9.30886L20.7628 9.16744C19.7215 10.2088 19.4527 11.1178 19.2741 11.7226L19.4659 11.7792ZM19.1392 12.4978C19.2239 12.4177 19.2824 12.3116 19.3308 12.1926C19.379 12.0738 19.4205 11.9329 19.4659 11.7792L19.2741 11.7226C19.2278 11.8792 19.1892 12.0096 19.1455 12.1173C19.1018 12.2249 19.0564 12.3008 19.0017 12.3525L19.1392 12.4978ZM16.0358 15.4707C16.7288 14.8038 17.7153 13.8543 19.1394 12.4976L19.0015 12.3527C17.577 13.7099 16.5902 14.6596 15.8971 15.3266L16.0358 15.4707ZM16.0371 15.4694L16.0371 15.4694L15.8957 15.328L15.8957 15.328L16.0371 15.4694ZM14.1847 17.1131C14.3057 17.073 14.4107 17.0032 14.6587 16.7803C14.9078 16.5563 15.3131 16.1662 16.0357 15.4708L15.897 15.3267C15.1728 16.0237 14.7709 16.4105 14.5249 16.6316C14.2777 16.8538 14.1996 16.8975 14.1218 16.9233L14.1847 17.1131ZM14.0962 17.1384C14.1256 17.1307 14.1552 17.1229 14.1847 17.1131L14.1218 16.9233C14.0993 16.9308 14.0758 16.937 14.0452 16.945L14.0962 17.1384ZM14.0924 17.1394L14.0924 17.1394L14.049 16.9441L14.049 16.9441L14.0924 17.1394ZM14.1078 17.1346L14.1078 17.1346L14.0335 16.9489L14.0335 16.9489L14.1078 17.1346ZM14.0578 17.1487L14.0964 17.1384L14.0449 16.9451L14.0063 16.9554L14.0578 17.1487ZM11.6263 18.5859C12.3221 17.8903 13.1634 17.3937 14.0585 17.1485L14.0057 16.9556C13.0752 17.2105 12.2038 17.7258 11.4849 18.4445L11.6263 18.5859ZM10.0477 21.7569C10.172 20.6077 10.7315 19.4808 11.6263 18.5859L11.4849 18.4445C10.5609 19.3685 9.97856 20.5367 9.84881 21.7354L10.0477 21.7569ZM9.73813 22.4697C9.8192 22.3666 9.88923 22.2782 9.94167 22.1703C9.99513 22.0604 10.0282 21.9353 10.0476 21.7569L9.84882 21.7353C9.83101 21.8989 9.80218 21.9998 9.76181 22.0829C9.72042 22.168 9.66471 22.2395 9.58091 22.3461L9.73813 22.4697ZM9.66667 22.5613C9.69185 22.5286 9.71554 22.4984 9.73813 22.4697L9.58091 22.3461C9.55839 22.3747 9.53404 22.4057 9.50809 22.4395L9.66667 22.5613ZM1.98816 35.7383C3.58485 31.3405 6.82747 26.2844 9.6669 22.561L9.50786 22.4398C6.66351 26.1696 3.40695 31.2444 1.80016 35.67L1.98816 35.7383ZM1.86274 42.0127C1.34964 41.4996 1.09251 40.7242 1.10932 39.6744C1.12613 38.6243 1.41726 37.3107 1.98816 35.7383L1.80016 35.67C1.2255 37.2528 0.926655 38.5899 0.909343 39.6712C0.892026 40.7528 1.15662 41.5894 1.72132 42.1541L1.86274 42.0127ZM13.0647 40.693C11.6371 41.3092 9.36254 42.177 7.17503 42.6185C6.08111 42.8392 5.01376 42.9523 4.0873 42.8763C3.15995 42.8001 2.38559 42.5355 1.86274 42.0127L1.72132 42.1541C2.29101 42.7238 3.11936 42.9975 4.07093 43.0756C5.02339 43.1538 6.11117 43.0372 7.2146 42.8145C9.42179 42.3691 11.7109 41.4951 13.1439 40.8766L13.0647 40.693ZM29.4601 29.462C24.8155 34.107 18.8388 38.2008 13.0647 40.693L13.1439 40.8766C18.9423 38.374 24.9399 34.2655 29.6015 29.6034L29.4601 29.462ZM40.6875 13.044C38.1963 18.8339 34.1036 24.8189 29.4601 29.462L29.6015 29.6034C34.2622 24.9431 38.3695 18.9372 40.8712 13.1231L40.6875 13.044ZM42.0028 1.82114C42.5263 2.34456 42.7913 3.12058 42.8676 4.05014C42.9439 4.97879 42.8309 6.04881 42.6102 7.14528C42.169 9.33789 41.3016 11.617 40.6875 13.044L40.8712 13.1231C41.4877 11.6907 42.3611 9.39698 42.8063 7.18474C43.0288 6.07878 43.1454 4.98837 43.0669 4.03377C42.9886 3.08007 42.7146 2.25001 42.1443 1.67971L42.0028 1.82114ZM29.1141 6.96126C28.2014 7.51277 27.2768 8.10187 26.3591 8.71764L26.4705 8.88372C27.3857 8.26968 28.3076 7.68228 29.2176 7.13244L29.1141 6.96126ZM32.4939 10.0865C31.7415 9.06854 30.5901 7.97289 29.2252 6.96637L29.1065 7.12734C30.4608 8.12599 31.5959 9.2081 32.3331 10.2054L32.4939 10.0865ZM33.2469 11.8988C33.2661 11.8714 33.2735 11.8371 33.277 11.8116C33.2812 11.7817 33.2825 11.7454 33.28 11.7031C33.2751 11.6182 33.255 11.5039 33.2079 11.3586C33.1136 11.0681 32.9097 10.649 32.4939 10.0865L32.3331 10.2054C32.7398 10.7557 32.9317 11.1557 33.0176 11.4204C33.0606 11.5528 33.0766 11.6501 33.0804 11.7146C33.0822 11.747 33.0809 11.7698 33.079 11.7839C33.0764 11.8025 33.074 11.7971 33.0831 11.784L33.2469 11.8988ZM31.2739 11.8065C31.9494 12.0074 32.416 12.0569 32.7231 12.0466C32.8766 12.0415 32.9916 12.0214 33.0735 11.997C33.1143 11.9849 33.1482 11.9712 33.175 11.957C33.1979 11.9449 33.2277 11.9262 33.247 11.8988L33.0831 11.7841C33.0923 11.771 33.0981 11.7715 33.0815 11.7803C33.0688 11.787 33.0476 11.796 33.0163 11.8054C32.954 11.824 32.8565 11.8421 32.7164 11.8468C32.4364 11.8561 31.9919 11.8114 31.331 11.6148L31.2739 11.8065ZM26.1286 9.01824C27.5843 10.1229 29.505 11.2802 31.2739 11.8065L31.331 11.6148C29.5944 11.0981 27.6957 9.95631 26.2495 8.85891L26.1286 9.01824ZM26.3591 8.71765C26.287 8.766 26.214 8.81025 26.1404 8.85119L26.2376 9.02596C26.3156 8.98257 26.3934 8.93544 26.4705 8.88372L26.3591 8.71765ZM19.8256 14.0052C21.5808 15.1215 23.319 16.6006 24.5597 18.0459L24.7115 17.9156C23.4566 16.4538 21.7029 14.9621 19.9329 13.8364L19.8256 14.0052ZM16.0214 17.7487L19.9484 13.9931L19.8101 13.8486L15.8831 17.6042L16.0214 17.7487ZM17.9136 18.8201C17.2451 18.4338 16.6087 18.0233 16.0105 17.5951L15.8941 17.7578C16.4976 18.1898 17.1395 18.6038 17.8136 18.9933L17.9136 18.8201ZM23.618 21.068C21.9392 20.7715 19.9128 19.9743 17.9136 18.8201L17.8136 18.9933C19.8264 20.1553 21.8751 20.9633 23.5832 21.265L23.618 21.068ZM26.1093 20.8262C26.0741 20.8872 26.0017 20.9529 25.8787 21.0118C25.7567 21.0704 25.5913 21.119 25.381 21.15C24.9605 21.2118 24.3718 21.2011 23.618 21.068L23.5832 21.265C24.3509 21.4005 24.9622 21.4137 25.4101 21.3478C25.6341 21.3149 25.8201 21.2618 25.9652 21.1922C26.1095 21.123 26.2201 21.0342 26.2825 20.9262L26.1093 20.8262ZM24.5597 18.0459C25.2782 18.8828 25.6915 19.5484 25.9106 20.026C26.0202 20.265 26.0802 20.4548 26.1062 20.5938C26.1192 20.6634 26.1233 20.7182 26.1216 20.759C26.12 20.8014 26.1124 20.8209 26.1093 20.8262L26.2825 20.9261C26.3085 20.8811 26.3192 20.8248 26.3215 20.7669C26.3239 20.7072 26.3177 20.6369 26.3028 20.5571C26.273 20.3975 26.2067 20.1918 26.0924 19.9426C25.8636 19.4439 25.4387 18.7627 24.7115 17.9156L24.5597 18.0459ZM12.5538 25.2078C11.8783 24.7355 11.1986 24.3158 10.5261 23.9543L10.4314 24.1304C11.0966 24.488 11.7696 24.9035 12.4391 25.3717L12.5538 25.2078ZM16.2499 28.6308C15.4174 27.5084 14.1041 26.2935 12.5538 25.2079L12.4391 25.3717C13.9777 26.4492 15.2732 27.6498 16.0892 28.75L16.2499 28.6308ZM17.0111 30.4538C17.0303 30.4264 17.0377 30.392 17.0413 30.3663C17.0455 30.3362 17.0467 30.2996 17.0442 30.257C17.0392 30.1717 17.0188 30.0567 16.9711 29.9106C16.8758 29.6184 16.6697 29.1968 16.2499 28.6308L16.0892 28.75C16.5 29.3038 16.6941 29.7062 16.781 29.9726C16.8245 30.1059 16.8408 30.2038 16.8446 30.2688C16.8465 30.3014 16.8452 30.3244 16.8432 30.3386C16.8406 30.3572 16.8382 30.3521 16.8473 30.3391L17.0111 30.4538ZM15.0381 30.3616C15.7133 30.5624 16.1799 30.6119 16.4871 30.6016C16.6406 30.5965 16.7556 30.5764 16.8375 30.5521C16.8784 30.5399 16.9123 30.5263 16.9391 30.5121C16.962 30.5 16.9918 30.4813 17.0111 30.4539L16.8473 30.3391C16.8564 30.326 16.8623 30.3265 16.8456 30.3353C16.8329 30.342 16.8117 30.3511 16.7804 30.3604C16.7181 30.379 16.6205 30.3971 16.4804 30.4018C16.2003 30.4111 15.7558 30.3664 15.0951 30.1699L15.0381 30.3616ZM10.5573 28.0587C12.1079 29.1444 13.6986 29.9631 15.0381 30.3616L15.0951 30.1699C13.7822 29.7793 12.2109 28.9724 10.672 27.8949L10.5573 28.0587ZM8.66447 26.563C9.24038 27.0792 9.87437 27.5806 10.5573 28.0587L10.672 27.8949C9.9952 27.4211 9.36754 26.9246 8.79796 26.414L8.66447 26.563ZM10.3986 23.9825C9.79452 24.7909 9.20847 25.611 8.6486 26.4322L8.81384 26.5448C9.37205 25.7262 9.95642 24.9083 10.5588 24.1022L10.3986 23.9825ZM39.1809 12.3959C36.7688 18.002 32.8026 23.8005 28.3005 28.3024L28.4419 28.4438C32.9612 23.9248 36.942 18.1053 39.3646 12.4749L39.1809 12.3959ZM40.8429 2.98109C40.993 3.13111 41.1264 3.42902 41.1964 3.89911C41.2658 4.36566 41.2708 4.98837 41.1772 5.77191C40.9902 7.33869 40.4107 9.53785 39.1809 12.3959L39.3646 12.4749C40.5995 9.60497 41.1859 7.38678 41.3758 5.79562C41.4708 5.00019 41.467 4.35878 41.3942 3.86967C41.3219 3.38408 41.1796 3.03477 40.9842 2.83961L40.8429 2.98109ZM30.745 6.2384C33.8795 4.46178 36.2569 3.48669 37.9312 3.03963C38.7686 2.81602 39.4266 2.72549 39.9135 2.73118C40.4059 2.73693 40.7026 2.84075 40.8428 2.98105L40.9843 2.83964C40.7866 2.64193 40.4218 2.5371 39.9159 2.53119C39.4045 2.52522 38.7274 2.62002 37.8796 2.8464C36.1834 3.29931 33.7898 4.28275 30.6464 6.0644L30.745 6.2384ZM34.5905 12.8396C35.2044 11.9625 34.9144 10.8007 34.1607 9.61649C33.4024 8.42513 32.1516 7.171 30.7575 6.07284L30.6338 6.22996C32.0184 7.32064 33.2503 8.55866 33.992 9.72388C34.7382 10.8962 34.9652 11.9555 34.4266 12.7249L34.5905 12.8396ZM30.8062 13.3787C31.4468 13.5693 32.1879 13.7191 32.869 13.6815C33.551 13.6438 34.1864 13.4167 34.5905 12.8396L34.4266 12.7249C34.0705 13.2336 33.5049 13.4461 32.8579 13.4818C32.2101 13.5176 31.4943 13.3748 30.8632 13.187L30.8062 13.3787ZM23.9624 9.3683C25.8198 10.9969 28.4531 12.6788 30.8062 13.3787L30.8632 13.187C28.5465 12.4979 25.9381 10.8346 24.0943 9.21793L23.9624 9.3683ZM22.0636 10.4688C22.6338 9.89863 23.3425 9.51792 24.046 9.39154L24.0106 9.19469C23.263 9.32901 22.5183 9.73137 21.9222 10.3274L22.0636 10.4688ZM20.9879 12.4045C21.0977 11.9824 21.2899 11.2425 22.0636 10.4688L21.9222 10.3274C21.1104 11.1392 20.9069 11.9212 20.7943 12.3542L20.9879 12.4045ZM20.9288 12.6158C20.9483 12.557 20.9672 12.4843 20.9879 12.4045L20.7943 12.3542C20.773 12.4363 20.756 12.5016 20.739 12.5528L20.9288 12.6158ZM27.7027 21.7461C28.0455 21.1519 28.0166 20.4246 27.7381 19.6453C27.4593 18.8655 26.926 18.0193 26.2356 17.1707C24.8541 15.473 22.8277 13.747 20.8879 12.5002L20.7798 12.6684C22.7054 13.9061 24.7148 15.6186 26.0804 17.2969C26.7635 18.1364 27.2816 18.9626 27.5497 19.7126C27.818 20.4631 27.8314 21.123 27.5295 21.6462L27.7027 21.7461ZM24.8373 23.0322C26.1305 23.0322 27.1769 22.6563 27.7027 21.7462L27.5295 21.6461C27.0562 22.4655 26.1003 22.8322 24.8373 22.8322V23.0322ZM16.993 20.4135C19.663 21.9551 22.6444 23.0322 24.8373 23.0322V22.8322C22.6957 22.8322 19.7507 21.7747 17.093 20.2403L16.993 20.4135ZM14.4194 18.7091C15.2135 19.3121 16.0771 19.8842 16.993 20.4135L17.0931 20.2403C16.184 19.715 15.3275 19.1475 14.5404 18.5499L14.4194 18.7091ZM12.7857 19.7458C13.2741 19.2574 13.8516 18.9075 14.5066 18.7259L14.4532 18.5331C13.7624 18.7247 13.1552 19.0934 12.6443 19.6044L12.7857 19.7458ZM11.6779 21.934C11.7622 21.1557 12.1537 20.3778 12.7857 19.7458L12.6443 19.6044C11.9844 20.2642 11.5689 21.083 11.4791 21.9125L11.6779 21.934ZM11.492 22.7126C11.585 22.4743 11.6475 22.2145 11.6779 21.934L11.4791 21.9124C11.4504 22.1768 11.3918 22.4193 11.3057 22.6399L11.492 22.7126ZM13.4941 23.8643C12.8142 23.3888 12.1285 22.9622 11.4469 22.5886L11.3508 22.764C12.0257 23.1339 12.7052 23.5566 13.3795 24.0282L13.4941 23.8643ZM17.5672 27.6539C16.6327 26.3939 15.1857 25.0489 13.4941 23.8644L13.3794 24.0282C15.0587 25.2042 16.4882 26.5349 17.4066 27.7731L17.5672 27.6539ZM18.3544 31.3949C18.5787 31.0748 18.7426 30.6205 18.667 30.0023C18.5917 29.3868 18.2801 28.6151 17.5672 27.6539L17.4066 27.773C18.1068 28.7172 18.3988 29.4567 18.4684 30.0265C18.5378 30.5936 18.3879 30.9987 18.1906 31.2802L18.3544 31.3949ZM14.5704 31.9337C15.2104 32.1241 15.9514 32.274 16.6326 32.2365C17.3146 32.1989 17.9503 31.9721 18.3544 31.3949L18.1906 31.2802C17.8344 31.7889 17.2686 32.0012 16.6216 32.0368C15.9736 32.0724 15.2579 31.9295 14.6274 31.742L14.5704 31.9337ZM9.61657 29.4024C11.308 30.5866 13.0667 31.4864 14.5704 31.9337L14.6274 31.742C13.1498 31.3025 11.4105 30.4142 9.73128 29.2386L9.61657 29.4024ZM7.74886 27.9426C8.32514 28.4465 8.94969 28.9356 9.61658 29.4024L9.73127 29.2385C9.07007 28.7757 8.45119 28.291 7.88051 27.792L7.74886 27.9426ZM3.0225 40.8531C2.92815 40.7587 2.851 40.6064 2.80289 40.3868C2.75494 40.1681 2.73741 39.8897 2.75644 39.5521C2.7945 38.8768 2.97802 37.9771 3.34067 36.8696C4.06572 34.6554 5.50224 31.6244 7.89864 27.9216L7.73073 27.813C5.32789 31.5257 3.88245 34.5724 3.1506 36.8074C2.78481 37.9245 2.59614 38.8422 2.55676 39.5408C2.53707 39.8901 2.55451 40.1878 2.60752 40.4297C2.66036 40.6708 2.75017 40.8636 2.88108 40.9945L3.0225 40.8531ZM4.71013 41.2568C4.25565 41.2568 3.88859 41.2127 3.60635 41.139C3.32262 41.0649 3.13227 40.9629 3.02251 40.8531L2.88107 40.9945C3.02577 41.1392 3.25419 41.2537 3.55581 41.3325C3.85893 41.4117 4.2438 41.4568 4.71013 41.4568V41.2568ZM12.4148 39.1873C8.81625 40.7405 6.26639 41.2569 4.71013 41.2568L4.71012 41.4568C6.3042 41.4569 8.88244 40.9297 12.4941 39.3709L12.4148 39.1873ZM28.3005 28.3024C23.7968 32.8064 18.0058 36.7741 12.4148 39.1873L12.4941 39.3709C18.1093 36.9473 23.9212 32.9649 28.4419 28.4438L28.3005 28.3024Z" fill="#4D4D4D"/>
</svg>
