<svg width="14" height="14" viewBox="0 0 14 14" fill="none" xmlns="http://www.w3.org/2000/svg">
<path fill-rule="evenodd" clip-rule="evenodd" d="M0.53461 0.698635L3.37282 0.0436641C3.6812 -0.0272911 3.99777 0.133723 4.1233 0.423001L5.43325 3.47953C5.54787 3.74698 5.47145 4.06082 5.24494 4.24366L3.59114 5.59727C4.5736 7.69045 6.29017 9.43158 8.42701 10.4331L9.78061 8.77934C9.96619 8.55283 10.2773 8.47641 10.5447 8.59103L13.6013 9.90097C13.8933 10.0292 14.0543 10.3458 13.9833 10.6542L13.3284 13.4924C13.2601 13.7871 12.9982 14 12.6898 14C5.70069 14 0.0270081 8.33723 0.0270081 1.33723C0.0270081 1.03158 0.237145 0.766861 0.53461 0.698635Z" fill="#EEB410"/>
</svg>
