<svg width="16" height="12" viewBox="0 0 16 12" fill="none" xmlns="http://www.w3.org/2000/svg">
<path fill-rule="evenodd" clip-rule="evenodd" d="M14.5 0H1.5C0.671562 0 0 0.671562 0 1.5V10.5C0 11.3284 0.671562 12 1.5 12H14.5C15.3284 12 16 11.3284 16 10.5V1.5C16 0.671562 15.3284 0 14.5 0ZM14.5 1.5V2.77516C13.7993 3.34575 12.6823 4.233 10.2942 6.10297C10.2057 6.17255 10.1027 6.25852 9.989 6.35337L9.98899 6.35338C9.42639 6.82283 8.60345 7.50952 8 7.49988C7.39662 7.50962 6.57341 6.82269 6.01085 6.35326L6.01083 6.35324C5.89721 6.25843 5.79423 6.1725 5.70584 6.10297C3.31813 4.23328 2.20078 3.34584 1.5 2.77516V1.5H14.5ZM1.5 4.69994V10.5H14.5V4.69997C13.7839 5.27034 12.7682 6.07091 11.2204 7.28288C11.1193 7.36249 11.0083 7.45477 10.8885 7.55443C10.1737 8.14904 9.14329 9.00615 8 8.99997C6.85176 9.00615 5.81 8.13747 5.10536 7.5499C4.98676 7.45101 4.87771 7.36008 4.77931 7.28263C3.23153 6.07062 2.21606 5.27028 1.5 4.69994Z" fill="#EEB410"/>
</svg>
