<svg width="37" height="44" viewBox="0 0 37 44" fill="none" xmlns="http://www.w3.org/2000/svg">
<path fill-rule="evenodd" clip-rule="evenodd" d="M36.9141 27.2315C36.9141 24.7579 35.0141 22.7295 32.6283 22.5927C32.7072 22.2477 32.7474 21.8922 32.7474 21.532C32.7474 18.97 30.7093 16.8857 28.2043 16.8857H27.4216C27.4994 16.543 27.539 16.1901 27.539 15.8323C27.539 13.2703 25.5009 11.1862 22.9959 11.1862H21.8085C22.1254 10.6153 22.3072 9.95627 22.3072 9.25427C22.3072 7.46364 21.129 5.95028 19.5242 5.47945C19.9096 3.49556 21.6242 1.99546 23.6754 1.99546C24.2141 1.99546 24.651 1.54878 24.651 0.997732C24.651 0.446685 24.2141 0 23.6754 0C20.5591 0 17.9753 2.37011 17.5531 5.44004C15.8755 5.86058 14.6268 7.41066 14.6268 9.25417C14.6268 9.95617 14.8087 10.6152 15.1255 11.1861H13.9382C11.4331 11.1861 9.39509 13.2703 9.39509 15.8322C9.39509 16.19 9.4348 16.543 9.51245 16.8856H8.72984C6.22473 16.8856 4.18674 18.97 4.18674 21.5319C4.18674 21.8921 4.22703 22.2476 4.30576 22.5926C1.91997 22.7294 0.0200195 24.7578 0.0200195 27.2314C0.0200195 29.513 1.63695 31.4144 3.76021 31.8034L6.16181 43.1714C6.25888 43.6306 6.65594 43.9584 7.11534 43.9584H12.788H24.1425L24.1443 43.9585L29.8188 43.9584C30.2782 43.9584 30.6754 43.6306 30.7724 43.1714L33.174 31.8034C35.2971 31.4144 36.9141 29.5131 36.9141 27.2315ZM16.5779 9.25417C16.5779 8.18889 17.4254 7.32226 18.4669 7.32226C19.5086 7.32226 20.356 8.18899 20.356 9.25417C20.356 10.3194 19.5085 11.1861 18.4669 11.1861C17.4254 11.1861 16.5779 10.3194 16.5779 9.25417ZM10.6391 31.8777H5.77187L7.90254 41.963H11.7044L10.6391 31.8777ZM24.3324 31.8777L23.267 41.963H19.4425V31.8777H24.3324ZM12.6016 31.8777L13.667 41.963H17.4914V31.8777H12.6016ZM29.0315 41.963H25.2296L26.2948 31.8777H31.162L29.0315 41.963ZM4.56302 29.8822H32.371C33.8001 29.8822 34.9629 28.6931 34.9629 27.2315C34.9629 25.7699 33.8001 24.5807 32.371 24.5807H31.2903C31.829 24.5807 32.2659 24.1339 32.2659 23.583C32.2659 23.0321 31.829 22.5853 31.2903 22.5853H30.5835C30.7235 22.2552 30.7962 21.8981 30.7962 21.532C30.7962 20.0704 29.6334 18.8812 28.2043 18.8812H25.9464H10.9876C11.3492 18.8812 11.681 18.6768 11.85 18.3499C12.019 18.0231 11.9975 17.6274 11.794 17.3218C11.7017 17.1833 11.6232 17.0374 11.5589 16.8857H25.3731C25.5133 16.5555 25.5877 16.1988 25.5877 15.8323C25.5877 14.3707 24.4249 13.1816 22.9958 13.1816H13.9382C12.509 13.1816 11.3463 14.3707 11.3463 15.8323C11.3463 16.1986 11.4189 16.5557 11.5589 16.8857H10.852C10.3132 16.8857 9.87644 17.3325 9.87644 17.8835C9.87644 18.4344 10.3132 18.8812 10.852 18.8812H8.72974C7.30051 18.8812 6.13781 20.0704 6.13781 21.532C6.13781 21.8984 6.21225 22.255 6.35244 22.5853H30.5835C30.5192 22.737 30.4406 22.8829 30.3484 23.0215C30.1449 23.3271 30.1233 23.7226 30.2924 24.0494C30.4614 24.3763 30.7933 24.5807 31.1548 24.5807H4.56302C3.13379 24.5807 1.97109 25.7699 1.97109 27.2315C1.97109 28.6931 3.13379 29.8822 4.56302 29.8822Z" fill="#4D4D4D"/>
</svg>
