<svg width="47" height="46" viewBox="0 0 47 46" fill="none" xmlns="http://www.w3.org/2000/svg">
<mask id="path-1-outside-1" maskUnits="userSpaceOnUse" x="0.0108032" y="-0.999611" width="47" height="47" fill="black">
<rect fill="white" x="0.0108032" y="-0.999611" width="47" height="47"/>
<path fill-rule="evenodd" clip-rule="evenodd" d="M44.2806 10.685C44.687 10.626 45.0902 10.7372 45.4322 11.0093C45.988 11.4509 46.2372 12.2053 46.2847 12.7642C46.3882 13.974 45.5272 15.0236 43.9763 15.5833C40.4389 18.0864 36.1816 18.8753 33.8517 19.1253L34.6145 19.8881C36.1087 21.3823 36.1087 23.8142 34.6145 25.3084L33.0367 26.8862L26.3215 33.6015L26.3084 33.6145C25.5609 34.362 24.5796 34.7354 23.5975 34.7354C22.6162 34.7354 21.6348 34.362 20.8873 33.6145L19.7711 32.4982C18.9492 38.4859 16.9405 42.2418 16.5748 42.885C16.4545 43.3228 16.1248 44.1224 15.4992 44.6775C15.0346 45.0892 14.478 45.3031 13.8777 45.3031C13.8018 45.3031 13.7259 45.2993 13.6485 45.2924C13.108 45.2448 12.3789 45.0018 11.9526 44.4651C11.6889 44.1324 11.58 43.7391 11.639 43.3289L11.6528 43.2323C11.6429 43.1465 11.4535 42.9579 11.3538 42.9487L10.8172 43.0276C10.3112 43.0982 9.76147 42.8935 9.34517 42.4772C8.92964 42.0609 8.72417 41.5112 8.797 41.0067L8.87597 40.4562C8.866 40.3704 8.67587 40.181 8.5762 40.1718L8.04107 40.2508C7.5366 40.3182 6.9846 40.1174 6.56907 39.7003C6.15277 39.284 5.94807 38.7343 6.02014 38.2298L6.0991 37.6794C6.08914 37.5935 5.899 37.4041 5.79934 37.3949L5.2642 37.4739C4.75897 37.5406 4.2085 37.3413 3.79297 36.925C3.37667 36.5087 3.1712 35.959 3.24327 35.4537L3.32224 34.9025C3.31227 34.8166 3.1229 34.628 3.02324 34.6188C2.61537 34.6786 2.21287 34.5659 1.8717 34.2945C1.31664 33.8529 1.06747 33.0985 1.01917 32.5396C0.91567 31.3314 1.7774 30.2818 3.3276 29.7198C6.86424 27.2167 11.1208 26.4278 13.4514 26.1778L12.582 25.3084C11.0878 23.8142 11.0878 21.3823 12.582 19.8881L20.8873 11.5813L21.342 11.1259L21.3811 11.178C22.8776 10.1139 24.9675 10.2411 26.3084 11.5813L27.5313 12.8041C28.3531 6.81796 30.3618 3.06283 30.7283 2.41883C30.8525 1.96956 31.1921 1.1776 31.787 0.641697C32.3137 0.16713 32.9585 -0.0513698 33.6546 0.0107302C34.1951 0.0582635 34.925 0.301297 35.3513 0.83873C35.6158 1.17146 35.7239 1.56476 35.6648 1.97416L35.651 2.07076C35.661 2.15663 35.8504 2.34523 35.95 2.35443L36.4875 2.27623C36.9904 2.20263 37.5416 2.40886 37.9579 2.82593C38.3742 3.24146 38.5797 3.79193 38.5069 4.2964L38.4279 4.84763C38.4379 4.9335 38.6272 5.1221 38.7269 5.1313L39.2643 5.0531C39.7696 4.97643 40.3185 5.18573 40.7348 5.6028C41.1511 6.01833 41.3566 6.5688 41.2837 7.07326L41.2048 7.6245C41.2147 7.71036 41.4041 7.89896 41.5038 7.90816L42.0412 7.82996C42.5457 7.7556 43.0954 7.96336 43.5117 8.37966C43.928 8.7952 44.1334 9.34566 44.0606 9.85013L43.9816 10.4014C43.9916 10.4865 44.181 10.6758 44.2806 10.685ZM16.6477 17.9906L26.494 31.2616L31.0165 26.7383L21.1702 13.4665L20.2127 14.4248L16.6477 17.9906ZM15.2048 42.1927L15.1036 42.3637L15.0998 42.4756C15.0239 42.7355 14.6482 43.8211 13.7842 43.7667C13.4652 43.7383 13.1923 43.5819 13.157 43.5474L13.1708 43.4508C13.2437 42.9464 13.0382 42.3959 12.6219 41.9804C12.2608 41.6185 11.7993 41.4169 11.3531 41.4169C11.2848 41.4169 11.2174 41.4222 11.1499 41.4314L10.614 41.5104C10.5143 41.5012 10.325 41.3118 10.3142 41.226L10.3932 40.6755C10.4653 40.171 10.2606 39.6213 9.84427 39.205C9.42797 38.7887 8.8775 38.5848 8.37227 38.6546L7.83714 38.7335C7.73747 38.7243 7.54734 38.535 7.53737 38.4491L7.61634 37.8986C7.6884 37.3942 7.4837 36.8445 7.0674 36.4282C6.6511 36.0119 6.10217 35.8095 5.5954 35.8777L5.0595 35.9567C4.95984 35.9475 4.77047 35.7581 4.7605 35.673L4.83947 35.1218C4.9123 34.6173 4.70684 34.0676 4.29054 33.6513C3.875 33.2335 3.3253 33.0295 2.84 33.1047C2.75414 33.0633 2.57704 32.7681 2.54637 32.4093C2.48274 31.6725 3.67184 31.2233 3.91104 31.1405L4.0429 31.0945L4.1326 31.0293C8.1944 28.1114 13.5404 27.6705 14.8774 27.6054L15.7261 28.4541C15.6395 28.4993 15.559 28.5599 15.4923 28.6396C14.5156 29.795 13.8562 29.818 12.5445 29.8632C12.076 29.8793 11.5447 29.8985 10.9314 29.9751C10.5113 30.0273 10.213 30.4106 10.2659 30.8307C10.3142 31.2187 10.6447 31.5023 11.0257 31.5023C11.0579 31.5023 11.0893 31.5 11.1215 31.4962C11.6608 31.4287 12.1295 31.4122 12.5826 31.3963L12.5974 31.3958C13.19 31.3751 13.7489 31.3482 14.3017 31.2118C12.9646 32.9927 12.2746 35.4024 12.5659 37.7307C12.6142 38.1187 12.9447 38.4023 13.3257 38.4023C13.3579 38.4023 13.3893 38.4 13.4215 38.3962C13.8417 38.3441 14.1399 37.9607 14.087 37.5406C13.7405 34.7714 15.1205 31.7645 17.2955 30.5478C17.4097 30.4834 17.4925 30.3899 17.5585 30.2864L18.3972 31.1251C17.688 37.9477 15.2301 42.1498 15.2048 42.1927ZM21.9714 32.5304C22.8684 33.4274 24.3274 33.4267 25.2244 32.5304L25.3976 32.3572L15.5506 19.0862L13.6653 20.9722C12.7691 21.8692 12.7691 23.3274 13.6653 24.2244L15.4992 26.0582L19.9919 30.5509L21.9714 32.5304ZM33.5304 24.2244L32.1129 25.6419L22.2919 12.4047C22.6836 12.1333 23.1398 11.993 23.599 11.993C24.1878 11.993 24.7766 12.2168 25.2251 12.6653L27.3112 14.7514L28.3853 15.8255L33.5312 20.9714C33.9628 21.403 34.2013 21.9803 34.2013 22.5975C34.2013 23.2147 33.9628 23.7927 33.5304 24.2244ZM43.1713 14.2738L43.3913 14.1634C43.6305 14.0814 44.8204 13.6336 44.7567 12.8953C44.7268 12.5358 44.5497 12.2414 44.4639 12.2C43.9816 12.2751 43.4296 12.0712 43.0133 11.6556C42.597 11.2393 42.3916 10.6896 42.4636 10.1844L42.5426 9.63316C42.5326 9.5473 42.3433 9.3587 42.2436 9.3495L41.7062 9.4277C41.2009 9.50206 40.652 9.2943 40.2357 8.878C39.8194 8.46246 39.6139 7.912 39.6868 7.40753L39.7657 6.8563C39.7558 6.77043 39.5664 6.58183 39.4667 6.57263L38.9293 6.65083C38.4248 6.72366 37.8751 6.5182 37.4588 6.10113C37.0425 5.6856 36.8371 5.13513 36.9099 4.63066L36.9881 4.07866C36.9781 3.9928 36.7888 3.8042 36.6891 3.795L36.1517 3.8732C35.6457 3.94373 35.0967 3.7398 34.6812 3.3235C34.2649 2.90796 34.0594 2.3575 34.1323 1.85303L34.1461 1.75643C34.1108 1.72193 33.8371 1.56553 33.5189 1.53716C32.6748 1.46893 32.2846 2.56066 32.2049 2.82516L32.2033 2.93556L32.0991 3.11113C32.0738 3.15406 29.6158 7.35616 28.9067 14.1787L29.7776 15.0512C29.8443 14.9339 29.9309 14.8273 30.0574 14.756C32.2325 13.5386 33.6117 10.5325 33.2659 7.76326C33.213 7.34313 33.5113 6.9598 33.9314 6.90766C34.3446 6.8586 34.7349 7.15223 34.787 7.57313C35.0783 9.90073 34.3883 12.3104 33.0513 14.0913C33.604 13.9541 34.1622 13.9273 34.7548 13.9073L34.7703 13.9068C35.2232 13.8909 35.6925 13.8744 36.2314 13.8069C36.6454 13.7594 37.0341 14.0522 37.087 14.4724C37.1399 14.8925 36.8417 15.2758 36.4215 15.328C35.8082 15.4054 35.2769 15.4238 34.8077 15.4399L34.806 15.44C33.4954 15.4851 32.837 15.5079 31.8606 16.6635C31.7847 16.7532 31.6927 16.8207 31.5931 16.8659L32.4257 17.6985C33.762 17.6333 39.1095 17.1933 43.1713 14.2738Z"/>
</mask>
<path fill-rule="evenodd" clip-rule="evenodd" d="M44.2806 10.685C44.687 10.626 45.0902 10.7372 45.4322 11.0093C45.988 11.4509 46.2372 12.2053 46.2847 12.7642C46.3882 13.974 45.5272 15.0236 43.9763 15.5833C40.4389 18.0864 36.1816 18.8753 33.8517 19.1253L34.6145 19.8881C36.1087 21.3823 36.1087 23.8142 34.6145 25.3084L33.0367 26.8862L26.3215 33.6015L26.3084 33.6145C25.5609 34.362 24.5796 34.7354 23.5975 34.7354C22.6162 34.7354 21.6348 34.362 20.8873 33.6145L19.7711 32.4982C18.9492 38.4859 16.9405 42.2418 16.5748 42.885C16.4545 43.3228 16.1248 44.1224 15.4992 44.6775C15.0346 45.0892 14.478 45.3031 13.8777 45.3031C13.8018 45.3031 13.7259 45.2993 13.6485 45.2924C13.108 45.2448 12.3789 45.0018 11.9526 44.4651C11.6889 44.1324 11.58 43.7391 11.639 43.3289L11.6528 43.2323C11.6429 43.1465 11.4535 42.9579 11.3538 42.9487L10.8172 43.0276C10.3112 43.0982 9.76147 42.8935 9.34517 42.4772C8.92964 42.0609 8.72417 41.5112 8.797 41.0067L8.87597 40.4562C8.866 40.3704 8.67587 40.181 8.5762 40.1718L8.04107 40.2508C7.5366 40.3182 6.9846 40.1174 6.56907 39.7003C6.15277 39.284 5.94807 38.7343 6.02014 38.2298L6.0991 37.6794C6.08914 37.5935 5.899 37.4041 5.79934 37.3949L5.2642 37.4739C4.75897 37.5406 4.2085 37.3413 3.79297 36.925C3.37667 36.5087 3.1712 35.959 3.24327 35.4537L3.32224 34.9025C3.31227 34.8166 3.1229 34.628 3.02324 34.6188C2.61537 34.6786 2.21287 34.5659 1.8717 34.2945C1.31664 33.8529 1.06747 33.0985 1.01917 32.5396C0.91567 31.3314 1.7774 30.2818 3.3276 29.7198C6.86424 27.2167 11.1208 26.4278 13.4514 26.1778L12.582 25.3084C11.0878 23.8142 11.0878 21.3823 12.582 19.8881L20.8873 11.5813L21.342 11.1259L21.3811 11.178C22.8776 10.1139 24.9675 10.2411 26.3084 11.5813L27.5313 12.8041C28.3531 6.81796 30.3618 3.06283 30.7283 2.41883C30.8525 1.96956 31.1921 1.1776 31.787 0.641697C32.3137 0.16713 32.9585 -0.0513698 33.6546 0.0107302C34.1951 0.0582635 34.925 0.301297 35.3513 0.83873C35.6158 1.17146 35.7239 1.56476 35.6648 1.97416L35.651 2.07076C35.661 2.15663 35.8504 2.34523 35.95 2.35443L36.4875 2.27623C36.9904 2.20263 37.5416 2.40886 37.9579 2.82593C38.3742 3.24146 38.5797 3.79193 38.5069 4.2964L38.4279 4.84763C38.4379 4.9335 38.6272 5.1221 38.7269 5.1313L39.2643 5.0531C39.7696 4.97643 40.3185 5.18573 40.7348 5.6028C41.1511 6.01833 41.3566 6.5688 41.2837 7.07326L41.2048 7.6245C41.2147 7.71036 41.4041 7.89896 41.5038 7.90816L42.0412 7.82996C42.5457 7.7556 43.0954 7.96336 43.5117 8.37966C43.928 8.7952 44.1334 9.34566 44.0606 9.85013L43.9816 10.4014C43.9916 10.4865 44.181 10.6758 44.2806 10.685ZM16.6477 17.9906L26.494 31.2616L31.0165 26.7383L21.1702 13.4665L20.2127 14.4248L16.6477 17.9906ZM15.2048 42.1927L15.1036 42.3637L15.0998 42.4756C15.0239 42.7355 14.6482 43.8211 13.7842 43.7667C13.4652 43.7383 13.1923 43.5819 13.157 43.5474L13.1708 43.4508C13.2437 42.9464 13.0382 42.3959 12.6219 41.9804C12.2608 41.6185 11.7993 41.4169 11.3531 41.4169C11.2848 41.4169 11.2174 41.4222 11.1499 41.4314L10.614 41.5104C10.5143 41.5012 10.325 41.3118 10.3142 41.226L10.3932 40.6755C10.4653 40.171 10.2606 39.6213 9.84427 39.205C9.42797 38.7887 8.8775 38.5848 8.37227 38.6546L7.83714 38.7335C7.73747 38.7243 7.54734 38.535 7.53737 38.4491L7.61634 37.8986C7.6884 37.3942 7.4837 36.8445 7.0674 36.4282C6.6511 36.0119 6.10217 35.8095 5.5954 35.8777L5.0595 35.9567C4.95984 35.9475 4.77047 35.7581 4.7605 35.673L4.83947 35.1218C4.9123 34.6173 4.70684 34.0676 4.29054 33.6513C3.875 33.2335 3.3253 33.0295 2.84 33.1047C2.75414 33.0633 2.57704 32.7681 2.54637 32.4093C2.48274 31.6725 3.67184 31.2233 3.91104 31.1405L4.0429 31.0945L4.1326 31.0293C8.1944 28.1114 13.5404 27.6705 14.8774 27.6054L15.7261 28.4541C15.6395 28.4993 15.559 28.5599 15.4923 28.6396C14.5156 29.795 13.8562 29.818 12.5445 29.8632C12.076 29.8793 11.5447 29.8985 10.9314 29.9751C10.5113 30.0273 10.213 30.4106 10.2659 30.8307C10.3142 31.2187 10.6447 31.5023 11.0257 31.5023C11.0579 31.5023 11.0893 31.5 11.1215 31.4962C11.6608 31.4287 12.1295 31.4122 12.5826 31.3963L12.5974 31.3958C13.19 31.3751 13.7489 31.3482 14.3017 31.2118C12.9646 32.9927 12.2746 35.4024 12.5659 37.7307C12.6142 38.1187 12.9447 38.4023 13.3257 38.4023C13.3579 38.4023 13.3893 38.4 13.4215 38.3962C13.8417 38.3441 14.1399 37.9607 14.087 37.5406C13.7405 34.7714 15.1205 31.7645 17.2955 30.5478C17.4097 30.4834 17.4925 30.3899 17.5585 30.2864L18.3972 31.1251C17.688 37.9477 15.2301 42.1498 15.2048 42.1927ZM21.9714 32.5304C22.8684 33.4274 24.3274 33.4267 25.2244 32.5304L25.3976 32.3572L15.5506 19.0862L13.6653 20.9722C12.7691 21.8692 12.7691 23.3274 13.6653 24.2244L15.4992 26.0582L19.9919 30.5509L21.9714 32.5304ZM33.5304 24.2244L32.1129 25.6419L22.2919 12.4047C22.6836 12.1333 23.1398 11.993 23.599 11.993C24.1878 11.993 24.7766 12.2168 25.2251 12.6653L27.3112 14.7514L28.3853 15.8255L33.5312 20.9714C33.9628 21.403 34.2013 21.9803 34.2013 22.5975C34.2013 23.2147 33.9628 23.7927 33.5304 24.2244ZM43.1713 14.2738L43.3913 14.1634C43.6305 14.0814 44.8204 13.6336 44.7567 12.8953C44.7268 12.5358 44.5497 12.2414 44.4639 12.2C43.9816 12.2751 43.4296 12.0712 43.0133 11.6556C42.597 11.2393 42.3916 10.6896 42.4636 10.1844L42.5426 9.63316C42.5326 9.5473 42.3433 9.3587 42.2436 9.3495L41.7062 9.4277C41.2009 9.50206 40.652 9.2943 40.2357 8.878C39.8194 8.46246 39.6139 7.912 39.6868 7.40753L39.7657 6.8563C39.7558 6.77043 39.5664 6.58183 39.4667 6.57263L38.9293 6.65083C38.4248 6.72366 37.8751 6.5182 37.4588 6.10113C37.0425 5.6856 36.8371 5.13513 36.9099 4.63066L36.9881 4.07866C36.9781 3.9928 36.7888 3.8042 36.6891 3.795L36.1517 3.8732C35.6457 3.94373 35.0967 3.7398 34.6812 3.3235C34.2649 2.90796 34.0594 2.3575 34.1323 1.85303L34.1461 1.75643C34.1108 1.72193 33.8371 1.56553 33.5189 1.53716C32.6748 1.46893 32.2846 2.56066 32.2049 2.82516L32.2033 2.93556L32.0991 3.11113C32.0738 3.15406 29.6158 7.35616 28.9067 14.1787L29.7776 15.0512C29.8443 14.9339 29.9309 14.8273 30.0574 14.756C32.2325 13.5386 33.6117 10.5325 33.2659 7.76326C33.213 7.34313 33.5113 6.9598 33.9314 6.90766C34.3446 6.8586 34.7349 7.15223 34.787 7.57313C35.0783 9.90073 34.3883 12.3104 33.0513 14.0913C33.604 13.9541 34.1622 13.9273 34.7548 13.9073L34.7703 13.9068C35.2232 13.8909 35.6925 13.8744 36.2314 13.8069C36.6454 13.7594 37.0341 14.0522 37.087 14.4724C37.1399 14.8925 36.8417 15.2758 36.4215 15.328C35.8082 15.4054 35.2769 15.4238 34.8077 15.4399L34.806 15.44C33.4954 15.4851 32.837 15.5079 31.8606 16.6635C31.7847 16.7532 31.6927 16.8207 31.5931 16.8659L32.4257 17.6985C33.762 17.6333 39.1095 17.1933 43.1713 14.2738Z" fill="#4D4D4D"/>
<path d="M45.4322 11.0093L45.1831 11.3223L45.1833 11.3225L45.4322 11.0093ZM44.2806 10.685L44.2439 11.0833L44.2912 11.0877L44.3381 11.0809L44.2806 10.685ZM46.2847 12.7642L45.8861 12.7981L45.8862 12.7983L46.2847 12.7642ZM43.9763 15.5833L43.8405 15.207L43.7895 15.2254L43.7452 15.2567L43.9763 15.5833ZM33.8517 19.1253L33.809 18.7275L32.9775 18.8167L33.5688 19.4081L33.8517 19.1253ZM34.6145 19.8881L34.3317 20.1709L34.6145 19.8881ZM34.6145 25.3084L34.3317 25.0256L34.6145 25.3084ZM33.0367 26.8862L33.3195 27.1691L33.0367 26.8862ZM26.3215 33.6015L26.0386 33.3186L26.0386 33.3186L26.3215 33.6015ZM26.3084 33.6145L26.5913 33.8973L26.5913 33.8973L26.3084 33.6145ZM20.8873 33.6145L21.1702 33.3317L20.8873 33.6145ZM19.7711 32.4982L20.0539 32.2154L19.4843 31.6458L19.3748 32.4438L19.7711 32.4982ZM16.5748 42.885L16.2271 42.6873L16.2024 42.7308L16.1891 42.779L16.5748 42.885ZM15.4992 44.6775L15.7645 44.9769L15.7647 44.9767L15.4992 44.6775ZM13.6485 45.2924L13.684 44.8939L13.6835 44.8939L13.6485 45.2924ZM11.9526 44.4651L11.6391 44.7136L11.6394 44.7139L11.9526 44.4651ZM11.639 43.3289L12.035 43.3859L12.035 43.3855L11.639 43.3289ZM11.6528 43.2323L12.0488 43.2889L12.0561 43.2376L12.0502 43.1862L11.6528 43.2323ZM11.3538 42.9487L11.3906 42.5504L11.343 42.546L11.2956 42.5529L11.3538 42.9487ZM10.8172 43.0276L10.8724 43.4238L10.8754 43.4234L10.8172 43.0276ZM9.34517 42.4772L9.06207 42.7597L9.06233 42.76L9.34517 42.4772ZM8.797 41.0067L9.1929 41.0639L9.19295 41.0635L8.797 41.0067ZM8.87597 40.4562L9.27192 40.513L9.27929 40.4617L9.2733 40.4101L8.87597 40.4562ZM8.5762 40.1718L8.61297 39.7735L8.56524 39.7691L8.51781 39.7761L8.5762 40.1718ZM8.04107 40.2508L8.0941 40.6473L8.09946 40.6465L8.04107 40.2508ZM6.56907 39.7003L6.85243 39.418L6.85191 39.4175L6.56907 39.7003ZM6.02014 38.2298L5.62419 38.173L5.62416 38.1733L6.02014 38.2298ZM6.0991 37.6794L6.49505 37.7362L6.50242 37.6848L6.49644 37.6332L6.0991 37.6794ZM5.79934 37.3949L5.83611 36.9966L5.78837 36.9922L5.74094 36.9992L5.79934 37.3949ZM5.2642 37.4739L5.31656 37.8705L5.32259 37.8696L5.2642 37.4739ZM3.79297 36.925L4.07607 36.6424L4.07581 36.6421L3.79297 36.925ZM3.24327 35.4537L2.84731 35.397L2.84728 35.3972L3.24327 35.4537ZM3.32224 34.9025L3.71819 34.9592L3.72555 34.9079L3.71957 34.8564L3.32224 34.9025ZM3.02324 34.6188L3.06001 34.2205L3.01246 34.2161L2.96521 34.2231L3.02324 34.6188ZM1.8717 34.2945L1.62267 34.6076L1.62268 34.6076L1.8717 34.2945ZM1.01917 32.5396L0.620629 32.5738L0.620655 32.5741L1.01917 32.5396ZM3.3276 29.7198L3.46393 30.0959L3.51465 30.0775L3.55869 30.0463L3.3276 29.7198ZM13.4514 26.1778L13.4941 26.5756L14.3257 26.4864L13.7343 25.895L13.4514 26.1778ZM12.582 25.3084L12.2992 25.5913L12.582 25.3084ZM12.582 19.8881L12.8649 20.1709L12.8649 20.1709L12.582 19.8881ZM20.8873 11.5813L21.1702 11.8641L21.1704 11.8639L20.8873 11.5813ZM21.342 11.1259L21.662 10.8859L21.385 10.5166L21.0589 10.8433L21.342 11.1259ZM21.3811 11.178L21.0611 11.418L21.295 11.73L21.6129 11.504L21.3811 11.178ZM26.3084 11.5813L26.5913 11.2984L26.5912 11.2983L26.3084 11.5813ZM27.5313 12.8041L27.2484 13.0869L27.818 13.6565L27.9276 12.8585L27.5313 12.8041ZM30.7283 2.41883L31.0759 2.61666L31.1005 2.57339L31.1138 2.52541L30.7283 2.41883ZM31.787 0.641697L32.0548 0.9389L32.0548 0.938864L31.787 0.641697ZM33.6546 0.0107302L33.6191 0.409148L33.6196 0.409192L33.6546 0.0107302ZM35.3513 0.83873L35.0379 1.0873L35.0381 1.08764L35.3513 0.83873ZM35.6648 1.97416L35.2689 1.91708L35.2689 1.91759L35.6648 1.97416ZM35.651 2.07076L35.2551 2.01419L35.2477 2.06545L35.2537 2.11689L35.651 2.07076ZM35.95 2.35443L35.9133 2.75274L35.9606 2.75711L36.0076 2.75026L35.95 2.35443ZM36.4875 2.27623L36.5451 2.67206L36.5454 2.67201L36.4875 2.27623ZM37.9579 2.82593L37.6748 3.10851L37.6754 3.10903L37.9579 2.82593ZM38.5069 4.2964L38.111 4.23924L38.1109 4.23967L38.5069 4.2964ZM38.4279 4.84763L38.0319 4.79091L38.0246 4.84224L38.0306 4.89375L38.4279 4.84763ZM38.7269 5.1313L38.6901 5.5296L38.7375 5.53397L38.7845 5.52713L38.7269 5.1313ZM39.2643 5.0531L39.3219 5.44894L39.3243 5.44857L39.2643 5.0531ZM40.7348 5.6028L40.4517 5.88538L40.4522 5.8859L40.7348 5.6028ZM41.2837 7.07326L40.8878 7.01611L40.8878 7.01654L41.2837 7.07326ZM41.2048 7.6245L40.8088 7.56777L40.8015 7.61911L40.8074 7.67062L41.2048 7.6245ZM41.5038 7.90816L41.467 8.30647L41.5143 8.31084L41.5614 8.304L41.5038 7.90816ZM42.0412 7.82996L42.0988 8.2258L42.0995 8.22569L42.0412 7.82996ZM43.5117 8.37966L43.2288 8.66251L43.2291 8.66277L43.5117 8.37966ZM44.0606 9.85013L43.6647 9.79297L43.6646 9.79341L44.0606 9.85013ZM43.9816 10.4014L43.5857 10.3446L43.5783 10.3962L43.5844 10.4479L43.9816 10.4014ZM26.494 31.2616L26.1727 31.4999L26.449 31.8723L26.7768 31.5444L26.494 31.2616ZM16.6477 17.9906L16.3648 17.7078L16.1208 17.9518L16.3264 18.2289L16.6477 17.9906ZM31.0165 26.7383L31.2994 27.0211L31.5434 26.7771L31.3378 26.4999L31.0165 26.7383ZM21.1702 13.4665L21.4915 13.2282L21.2151 12.8557L20.8873 13.1838L21.1702 13.4665ZM20.2127 14.4248L20.4955 14.7076L20.4956 14.7076L20.2127 14.4248ZM15.1036 42.3637L14.7594 42.1599L14.7073 42.2479L14.7038 42.35L15.1036 42.3637ZM15.2048 42.1927L15.549 42.3965L15.5494 42.3958L15.2048 42.1927ZM15.0998 42.4756L15.4837 42.5878L15.4978 42.5395L15.4995 42.4893L15.0998 42.4756ZM13.7842 43.7667L13.7487 44.1653L13.759 44.1659L13.7842 43.7667ZM13.157 43.5474L12.7611 43.4909L12.7324 43.6916L12.8773 43.8334L13.157 43.5474ZM13.1708 43.4508L12.7749 43.3937L12.7749 43.3943L13.1708 43.4508ZM12.6219 41.9804L12.3388 42.2629L12.3393 42.2635L12.6219 41.9804ZM11.1499 41.4314L11.0958 41.0351L11.0916 41.0357L11.1499 41.4314ZM10.614 41.5104L10.5772 41.9087L10.6249 41.9131L10.6723 41.9061L10.614 41.5104ZM10.3142 41.226L9.91829 41.1692L9.91067 41.2223L9.91733 41.2756L10.3142 41.226ZM10.3932 40.6755L10.7892 40.7323L10.7892 40.7321L10.3932 40.6755ZM9.84427 39.205L9.56143 39.4879L9.56143 39.4879L9.84427 39.205ZM8.37227 38.6546L8.31755 38.2583L8.31388 38.2589L8.37227 38.6546ZM7.83714 38.7335L7.80038 39.1318L7.84811 39.1362L7.89553 39.1292L7.83714 38.7335ZM7.53737 38.4491L7.14142 38.3923L7.13405 38.4437L7.14004 38.4952L7.53737 38.4491ZM7.61634 37.8986L8.01228 37.9554L8.01232 37.9552L7.61634 37.8986ZM7.0674 36.4282L7.35025 36.1453L7.35024 36.1453L7.0674 36.4282ZM5.5954 35.8777L5.54202 35.4812L5.53709 35.482L5.5954 35.8777ZM5.0595 35.9567L5.02273 36.355L5.07043 36.3594L5.11782 36.3524L5.0595 35.9567ZM4.7605 35.673L4.36455 35.6163L4.35716 35.6678L4.36322 35.7195L4.7605 35.673ZM4.83947 35.1218L4.44357 35.0646L4.44351 35.065L4.83947 35.1218ZM4.29054 33.6513L4.00691 33.9334L4.00769 33.9341L4.29054 33.6513ZM2.84 33.1047L2.66628 33.465L2.7783 33.519L2.9012 33.5L2.84 33.1047ZM2.54637 32.4093L2.94492 32.3752L2.94489 32.3749L2.54637 32.4093ZM3.91104 31.1405L4.04188 31.5185L4.04279 31.5181L3.91104 31.1405ZM4.0429 31.0945L4.17466 31.4721L4.23032 31.4527L4.27801 31.4181L4.0429 31.0945ZM4.1326 31.0293L3.89922 30.7044L3.8975 30.7057L4.1326 31.0293ZM14.8774 27.6054L15.1603 27.3225L15.035 27.1972L14.858 27.2058L14.8774 27.6054ZM15.7261 28.4541L15.9113 28.8086L16.3942 28.5565L16.009 28.1712L15.7261 28.4541ZM15.4923 28.6396L15.7978 28.8978L15.7991 28.8963L15.4923 28.6396ZM12.5445 29.8632L12.5582 30.263H12.5583L12.5445 29.8632ZM10.9314 29.9751L10.9807 30.3721L10.981 30.372L10.9314 29.9751ZM10.2659 30.8307L10.6629 30.7813L10.6628 30.7808L10.2659 30.8307ZM11.1215 31.4962L11.1688 31.8934L11.1712 31.8931L11.1215 31.4962ZM12.5826 31.3963L12.5967 31.796L12.5967 31.796L12.5826 31.3963ZM12.5974 31.3958L12.5834 30.996L12.5833 30.996L12.5974 31.3958ZM14.3017 31.2118L14.6216 31.4519L15.2953 30.5544L14.2058 30.8234L14.3017 31.2118ZM12.5659 37.7307L12.9629 37.6813L12.9628 37.6811L12.5659 37.7307ZM13.4215 38.3962L13.4688 38.7934L13.4708 38.7932L13.4215 38.3962ZM14.087 37.5406L13.6901 37.5903L13.6901 37.5906L14.087 37.5406ZM17.2955 30.5478L17.4908 30.8969L17.4919 30.8963L17.2955 30.5478ZM17.5585 30.2864L17.8413 30.0036L17.4889 29.6511L17.2211 30.0715L17.5585 30.2864ZM18.3972 31.1251L18.7951 31.1665L18.8148 30.977L18.68 30.8423L18.3972 31.1251ZM25.2244 32.5304L25.5071 32.8134L25.5072 32.8133L25.2244 32.5304ZM25.3976 32.3572L25.6805 32.64L25.9245 32.396L25.7189 32.1188L25.3976 32.3572ZM15.5506 19.0862L15.8718 18.8478L15.5955 18.4754L15.2677 18.8034L15.5506 19.0862ZM13.6653 20.9722L13.3824 20.6894L13.3824 20.6894L13.6653 20.9722ZM13.6653 24.2244L13.3824 24.5071L13.3825 24.5072L13.6653 24.2244ZM15.4992 26.0582L15.2164 26.3411L15.4992 26.0582ZM32.1129 25.6419L31.7916 25.8803L32.0679 26.2526L32.3957 25.9248L32.1129 25.6419ZM33.5304 24.2244L33.2478 23.9413L33.2476 23.9415L33.5304 24.2244ZM22.2919 12.4047L22.0641 12.0759L21.7244 12.3112L21.9706 12.643L22.2919 12.4047ZM25.2251 12.6653L24.9423 12.9482L25.2251 12.6653ZM27.3112 14.7514L27.5941 14.4686L27.3112 14.7514ZM43.3913 14.1634L43.2615 13.785L43.236 13.7938L43.2119 13.8059L43.3913 14.1634ZM43.1713 14.2738L42.9919 13.9163L42.9636 13.9305L42.9378 13.949L43.1713 14.2738ZM44.7567 12.8953L44.3581 12.9285L44.3582 12.9297L44.7567 12.8953ZM44.4639 12.2L44.6376 11.8397L44.5254 11.7856L44.4023 11.8047L44.4639 12.2ZM43.0133 11.6556L42.7305 11.9385L42.7308 11.9387L43.0133 11.6556ZM42.4636 10.1844L42.0677 10.1277L42.0676 10.1279L42.4636 10.1844ZM42.5426 9.63316L42.9386 9.68988L42.9459 9.63855L42.9399 9.58704L42.5426 9.63316ZM42.2436 9.3495L42.2804 8.95119L42.233 8.94682L42.186 8.95366L42.2436 9.3495ZM41.7062 9.4277L41.6486 9.03187L41.6479 9.03196L41.7062 9.4277ZM40.2357 8.878L40.5185 8.59515L40.5183 8.59489L40.2357 8.878ZM39.6868 7.40753L40.0827 7.46469L40.0827 7.46425L39.6868 7.40753ZM39.7657 6.8563L40.1617 6.91302L40.169 6.86169L40.1631 6.81019L39.7657 6.8563ZM39.4667 6.57263L39.5035 6.17432L39.4562 6.16995L39.4091 6.1768L39.4667 6.57263ZM38.9293 6.65083L38.9865 7.04673L38.9869 7.04666L38.9293 6.65083ZM37.4588 6.10113L37.7419 5.81855L37.7414 5.81803L37.4588 6.10113ZM36.9099 4.63066L37.3058 4.68782L37.306 4.68677L36.9099 4.63066ZM36.9881 4.07866L37.3841 4.13477L37.3914 4.08375L37.3854 4.03256L36.9881 4.07866ZM36.6891 3.795L36.7259 3.39669L36.6785 3.39232L36.6315 3.39917L36.6891 3.795ZM36.1517 3.8732L36.2069 4.26937L36.2093 4.26903L36.1517 3.8732ZM34.6812 3.3235L34.9643 3.04091L34.9638 3.04039L34.6812 3.3235ZM34.1323 1.85303L34.5282 1.91019L34.5283 1.90959L34.1323 1.85303ZM34.1461 1.75643L34.542 1.81299L34.5707 1.61228L34.4258 1.4705L34.1461 1.75643ZM33.5189 1.53716L33.5545 1.13873L33.5512 1.13846L33.5189 1.53716ZM32.2049 2.82516L31.8219 2.70972L31.8057 2.76347L31.8049 2.81961L32.2049 2.82516ZM32.2033 2.93556L32.5473 3.13981L32.6018 3.04795L32.6033 2.94112L32.2033 2.93556ZM32.0991 3.11113L31.7551 2.90688L31.7545 2.90806L32.0991 3.11113ZM28.9067 14.1787L28.5088 14.1374L28.4891 14.3266L28.6236 14.4613L28.9067 14.1787ZM29.7776 15.0512L29.4945 15.3338L29.8656 15.7056L30.1253 15.2489L29.7776 15.0512ZM30.0574 14.756L29.8621 14.407L29.861 14.4076L30.0574 14.756ZM33.2659 7.76326L33.6629 7.7137L33.6628 7.71329L33.2659 7.76326ZM33.9314 6.90766L33.8842 6.51045L33.8821 6.51071L33.9314 6.90766ZM34.787 7.57313L34.39 7.6223L34.3901 7.62281L34.787 7.57313ZM33.0513 14.0913L32.7314 13.8512L32.0562 14.7505L33.1477 14.4795L33.0513 14.0913ZM34.7548 13.9073L34.7682 14.3071L34.7689 14.3071L34.7548 13.9073ZM34.7703 13.9068L34.7843 14.3065L34.7844 14.3065L34.7703 13.9068ZM36.2314 13.8069L36.1858 13.4095L36.1817 13.41L36.2314 13.8069ZM37.087 14.4724L36.6901 14.5223V14.5223L37.087 14.4724ZM36.4215 15.328L36.3723 14.931L36.3714 14.9311L36.4215 15.328ZM34.8077 15.4399L34.8214 15.8397L34.8214 15.8397L34.8077 15.4399ZM34.806 15.44L34.7923 15.0402L34.7922 15.0402L34.806 15.44ZM31.8606 16.6635L32.166 16.9219L32.1662 16.9216L31.8606 16.6635ZM31.5931 16.8659L31.4278 16.5017L30.9018 16.7404L31.3102 17.1487L31.5931 16.8659ZM32.4257 17.6985L32.1428 17.9813L32.2681 18.1067L32.4452 18.098L32.4257 17.6985ZM45.6813 10.6964C45.2571 10.3588 44.7439 10.2135 44.2231 10.2892L44.3381 11.0809C44.63 11.0385 44.9233 11.1156 45.1831 11.3223L45.6813 10.6964ZM46.6833 12.7303C46.6306 12.1112 46.3555 11.232 45.681 10.6961L45.1833 11.3225C45.6206 11.6699 45.8437 12.2995 45.8861 12.7981L46.6833 12.7303ZM44.112 15.9595C45.7541 15.367 46.8084 14.1926 46.6832 12.7301L45.8862 12.7983C45.968 13.7555 45.3004 14.6802 43.8405 15.207L44.112 15.9595ZM33.8943 19.523C36.2494 19.2703 40.5874 18.4714 44.2073 15.9098L43.7452 15.2567C40.2904 17.7015 36.1137 18.4803 33.809 18.7275L33.8943 19.523ZM34.8973 19.6053L34.1345 18.8424L33.5688 19.4081L34.3317 20.1709L34.8973 19.6053ZM34.8973 25.5913C36.5478 23.9408 36.5478 21.2557 34.8973 19.6053L34.3317 20.1709C35.6697 21.509 35.6697 23.6876 34.3317 25.0256L34.8973 25.5913ZM33.3195 27.1691L34.8973 25.5913L34.3317 25.0256L32.7539 26.6034L33.3195 27.1691ZM26.6043 33.8843L33.3195 27.1691L32.7539 26.6034L26.0386 33.3186L26.6043 33.8843ZM26.5913 33.8973L26.6043 33.8843L26.0386 33.3186L26.0256 33.3317L26.5913 33.8973ZM23.5975 35.1354C24.6809 35.1354 25.7655 34.7232 26.5913 33.8973L26.0256 33.3317C25.3564 34.0008 24.4783 34.3354 23.5975 34.3354V35.1354ZM20.6045 33.8973C21.4303 34.7231 22.5148 35.1354 23.5975 35.1354V34.3354C22.7175 34.3354 21.8394 34.0009 21.1702 33.3317L20.6045 33.8973ZM19.4882 32.7811L20.6045 33.8973L21.1702 33.3317L20.0539 32.2154L19.4882 32.7811ZM16.9226 43.0827C17.306 42.4083 19.3368 38.6037 20.1674 32.5526L19.3748 32.4438C18.5616 38.3681 16.5751 42.0753 16.2271 42.6873L16.9226 43.0827ZM15.7647 44.9767C16.4706 44.3504 16.8293 43.4682 16.9605 42.9911L16.1891 42.779C16.0796 43.1774 15.779 43.8945 15.2337 44.3783L15.7647 44.9767ZM13.8777 45.7031C14.5788 45.7031 15.229 45.4514 15.7645 44.9769L15.2339 44.3781C14.8402 44.727 14.3772 44.9031 13.8777 44.9031V45.7031ZM13.613 45.6908C13.7004 45.6986 13.7883 45.7031 13.8777 45.7031V44.9031C13.8153 44.9031 13.7514 44.9 13.684 44.8939L13.613 45.6908ZM11.6394 44.7139C12.1595 45.3687 13.0127 45.638 13.6134 45.6908L13.6835 44.8939C13.2032 44.8517 12.5982 44.6349 12.2658 44.2163L11.6394 44.7139ZM11.2431 43.2719C11.1679 43.7943 11.3092 44.2974 11.6391 44.7136L12.2661 44.2167C12.0685 43.9674 11.9921 43.6839 12.035 43.3859L11.2431 43.2719ZM11.2569 43.1758L11.2431 43.2724L12.035 43.3855L12.0488 43.2889L11.2569 43.1758ZM11.3171 43.347C11.2761 43.3432 11.2488 43.3325 11.2397 43.3286C11.2289 43.3241 11.2244 43.3209 11.2264 43.3223C11.231 43.3252 11.2434 43.3343 11.2589 43.3493C11.2744 43.3643 11.2841 43.3765 11.2871 43.3808C11.2886 43.3829 11.2849 43.3782 11.2795 43.3667C11.2767 43.3607 11.2724 43.3508 11.2681 43.3374C11.2639 43.3243 11.2585 43.3042 11.2555 43.2785L12.0502 43.1862C12.0358 43.0626 11.9736 42.9669 11.9447 42.9253C11.9064 42.8699 11.8606 42.8182 11.815 42.7742C11.7695 42.7302 11.7152 42.6851 11.656 42.6473C11.607 42.6161 11.5112 42.5615 11.3906 42.5504L11.3171 43.347ZM10.8754 43.4234L11.4121 43.3444L11.2956 42.5529L10.7589 42.6319L10.8754 43.4234ZM9.06233 42.76C9.55249 43.2502 10.2228 43.5144 10.8724 43.4238L10.7619 42.6315C10.3996 42.682 9.97045 42.5368 9.62801 42.1943L9.06233 42.76ZM8.40111 40.9495C8.30727 41.5995 8.57348 42.2703 9.06207 42.7597L9.62827 42.1946C9.2858 41.8515 9.14107 41.4229 9.1929 41.0639L8.40111 40.9495ZM8.48002 40.3994L8.40106 40.9499L9.19295 41.0635L9.27192 40.513L8.48002 40.3994ZM8.53943 40.5701C8.49824 40.5663 8.47086 40.5555 8.4618 40.5517C8.45103 40.5471 8.4466 40.544 8.44873 40.5454C8.45345 40.5484 8.46596 40.5576 8.48165 40.5728C8.49731 40.5879 8.5071 40.6003 8.51024 40.6048C8.51174 40.607 8.50815 40.6022 8.50276 40.5908C8.49992 40.5848 8.4956 40.5749 8.49128 40.5615C8.48706 40.5484 8.48164 40.5282 8.47864 40.5023L9.2733 40.4101C9.25893 40.2863 9.19643 40.1904 9.16764 40.1489C9.12922 40.0935 9.08337 40.0418 9.0378 39.9977C8.99225 39.9537 8.93792 39.9085 8.87864 39.8707C8.82974 39.8396 8.73382 39.7846 8.61297 39.7735L8.53943 40.5701ZM8.09946 40.6465L8.63459 40.5675L8.51781 39.7761L7.98268 39.855L8.09946 40.6465ZM6.28571 39.9826C6.77717 40.4759 7.44961 40.7334 8.09409 40.6472L7.98805 39.8543C7.6236 39.903 7.19204 39.7588 6.85243 39.418L6.28571 39.9826ZM5.62416 38.1733C5.53141 38.8225 5.79631 39.4932 6.28623 39.9831L6.85191 39.4175C6.50923 39.0748 6.36473 38.6461 6.41612 38.2864L5.62416 38.1733ZM5.70316 37.6226L5.62419 38.173L6.41608 38.2866L6.49505 37.7362L5.70316 37.6226ZM5.76257 37.7932C5.72137 37.7894 5.69399 37.7786 5.68493 37.7748C5.67416 37.7703 5.66974 37.7672 5.67187 37.7685C5.67658 37.7715 5.68909 37.7808 5.70478 37.7959C5.72045 37.8111 5.73023 37.8234 5.73338 37.8279C5.73488 37.8301 5.73128 37.8254 5.72589 37.814C5.72305 37.808 5.71873 37.798 5.71441 37.7846C5.71019 37.7715 5.70477 37.7513 5.70177 37.7255L6.49644 37.6332C6.48206 37.5094 6.41956 37.4136 6.39078 37.3721C6.35235 37.3166 6.30651 37.2649 6.26093 37.2209C6.21538 37.1768 6.16105 37.1316 6.10177 37.0938C6.05287 37.0627 5.95695 37.0078 5.83611 36.9966L5.76257 37.7932ZM5.32259 37.8696L5.85773 37.7906L5.74094 36.9992L5.20581 37.0782L5.32259 37.8696ZM3.50987 37.2075C4.00175 37.7003 4.6724 37.9555 5.31656 37.8705L5.21185 37.0773C4.84554 37.1257 4.41526 36.9822 4.07607 36.6424L3.50987 37.2075ZM2.84728 35.3972C2.75453 36.0474 3.02043 36.7181 3.51013 37.2078L4.07581 36.6421C3.73291 36.2992 3.58787 35.8705 3.63926 35.5102L2.84728 35.3972ZM2.92628 34.8458L2.84731 35.397L3.63923 35.5105L3.71819 34.9592L2.92628 34.8458ZM2.98647 35.0171C2.94546 35.0134 2.91817 35.0026 2.90905 34.9988C2.89826 34.9942 2.89378 34.9911 2.89584 34.9924C2.90042 34.9953 2.91278 35.0044 2.92831 35.0195C2.94383 35.0345 2.95348 35.0466 2.95651 35.051C2.95796 35.0531 2.95434 35.0483 2.94894 35.0369C2.9461 35.0309 2.94179 35.021 2.93748 35.0075C2.93328 34.9944 2.92789 34.9744 2.9249 34.9486L3.71957 34.8564C3.70522 34.7328 3.64299 34.6371 3.61414 34.5955C3.57576 34.5401 3.52997 34.4884 3.48444 34.4444C3.43893 34.4004 3.38463 34.3552 3.32536 34.3175C3.27635 34.2863 3.1806 34.2317 3.06001 34.2205L2.98647 35.0171ZM1.62268 34.6076C2.04534 34.9438 2.55781 35.0913 3.08126 35.0146L2.96521 34.2231C2.67293 34.2659 2.3804 34.1881 2.12072 33.9815L1.62268 34.6076ZM0.620655 32.5741C0.67412 33.1927 0.949158 34.0717 1.62267 34.6076L2.12074 33.9815C1.68412 33.6341 1.46082 33.0043 1.41768 32.5052L0.620655 32.5741ZM3.19128 29.3438C1.55079 29.9385 0.49547 31.1127 0.620629 32.5738L1.41771 32.5055C1.33587 31.5501 2.00402 30.6251 3.46393 30.0959L3.19128 29.3438ZM13.4088 25.7801C11.0529 26.0327 6.71571 26.8317 3.09652 29.3933L3.55869 30.0463C7.01277 27.6016 11.1886 26.8228 13.4941 26.5756L13.4088 25.7801ZM12.2992 25.5913L13.1686 26.4607L13.7343 25.895L12.8649 25.0256L12.2992 25.5913ZM12.2992 19.6053C10.6488 21.2557 10.6488 23.9408 12.2992 25.5913L12.8649 25.0256C11.5269 23.6876 11.5269 21.509 12.8649 20.1709L12.2992 19.6053ZM20.6045 11.2984L12.2992 19.6053L12.8649 20.1709L21.1702 11.8641L20.6045 11.2984ZM21.0589 10.8433L20.6043 11.2987L21.1704 11.8639L21.6251 11.4085L21.0589 10.8433ZM21.7011 10.938L21.662 10.8859L21.022 11.3659L21.0611 11.418L21.7011 10.938ZM26.5912 11.2983C25.1083 9.81629 22.8003 9.67804 21.1493 10.852L21.6129 11.504C22.9549 10.5497 24.8268 10.666 26.0257 11.8642L26.5912 11.2983ZM27.8141 12.5213L26.5913 11.2984L26.0256 11.8641L27.2484 13.0869L27.8141 12.5213ZM30.3806 2.221C29.9964 2.89626 27.9656 6.70011 27.135 12.7497L27.9276 12.8585C28.7407 6.93582 30.7272 3.22941 31.0759 2.61666L30.3806 2.221ZM31.5193 0.344494C30.8471 0.949973 30.4783 1.82183 30.3427 2.31225L31.1138 2.52541C31.2266 2.1173 31.5371 1.40522 32.0548 0.9389L31.5193 0.344494ZM33.6902 -0.387688C32.8811 -0.459868 32.1269 -0.202981 31.5193 0.34453L32.0548 0.938864C32.5005 0.537241 33.036 0.357128 33.6191 0.409148L33.6902 -0.387688ZM35.6647 0.590163C35.1445 -0.0656821 34.2902 -0.334916 33.6897 -0.387732L33.6196 0.409192C34.1 0.451443 34.7055 0.668276 35.0379 1.0873L35.6647 0.590163ZM36.0607 2.03125C36.1359 1.50999 35.9957 1.00655 35.6644 0.589821L35.0381 1.08764C35.2359 1.33638 35.3118 1.61954 35.2689 1.91708L36.0607 2.03125ZM36.047 2.12734L36.0608 2.03074L35.2689 1.91759L35.2551 2.01419L36.047 2.12734ZM35.9868 1.95612C36.0278 1.95991 36.0551 1.97063 36.0642 1.97447C36.075 1.97902 36.0795 1.98215 36.0774 1.98084C36.0729 1.97793 36.0605 1.96883 36.045 1.9538C36.0294 1.9388 36.0198 1.92663 36.0168 1.92224C36.0153 1.92015 36.0189 1.92494 36.0243 1.93638C36.0272 1.9424 36.0315 1.9523 36.0358 1.96571C36.04 1.97881 36.0454 1.9989 36.0484 2.02464L35.2537 2.11689C35.2681 2.2405 35.3303 2.33615 35.3591 2.37779C35.3975 2.4332 35.4433 2.48486 35.4888 2.52889C35.5343 2.5729 35.5886 2.61804 35.6479 2.65576C35.6969 2.68695 35.7927 2.7416 35.9133 2.75274L35.9868 1.95612ZM36.4299 1.8804L35.8924 1.9586L36.0076 2.75026L36.5451 2.67206L36.4299 1.8804ZM38.241 2.54335C37.7517 2.05309 37.0789 1.78542 36.4296 1.88045L36.5454 2.67201C36.9019 2.61984 37.3316 2.76464 37.6748 3.10851L38.241 2.54335ZM38.9028 4.35356C38.9966 3.70376 38.7305 3.03192 38.2405 2.54283L37.6754 3.10903C38.018 3.45101 38.1628 3.8801 38.111 4.23924L38.9028 4.35356ZM38.8239 4.90435L38.9028 4.35312L38.1109 4.23967L38.0319 4.79091L38.8239 4.90435ZM38.7637 4.73299C38.8047 4.73678 38.832 4.7475 38.8411 4.75134C38.8519 4.75588 38.8564 4.75902 38.8543 4.75771C38.8497 4.7548 38.8374 4.74569 38.8218 4.73067C38.8063 4.71567 38.7967 4.7035 38.7936 4.69911C38.7922 4.69702 38.7958 4.70181 38.8012 4.71324C38.804 4.71926 38.8083 4.72917 38.8127 4.74257C38.8169 4.75568 38.8222 4.77577 38.8252 4.80151L38.0306 4.89375C38.0449 5.01737 38.1072 5.11302 38.136 5.15466C38.1744 5.21007 38.2202 5.26173 38.2657 5.30576C38.3112 5.34977 38.3655 5.39491 38.4248 5.43263C38.4738 5.46382 38.5695 5.51847 38.6901 5.5296L38.7637 4.73299ZM39.2067 4.65727L38.6693 4.73547L38.7845 5.52713L39.3219 5.44893L39.2067 4.65727ZM41.0179 5.32021C40.53 4.83142 39.859 4.55828 39.2043 4.65762L39.3243 5.44857C39.6802 5.39458 40.107 5.54004 40.4517 5.88538L41.0179 5.32021ZM41.6796 7.13042C41.7734 6.48062 41.5074 5.80878 41.0174 5.31969L40.4522 5.8859C40.7948 6.22788 40.9397 6.65697 40.8878 7.01611L41.6796 7.13042ZM41.6007 7.68122L41.6797 7.12999L40.8878 7.01654L40.8088 7.56777L41.6007 7.68122ZM41.5405 7.50986C41.5815 7.51364 41.6088 7.52437 41.618 7.52821C41.6287 7.53275 41.6332 7.53588 41.6312 7.53458C41.6266 7.53166 41.6142 7.52256 41.5987 7.50754C41.5832 7.49253 41.5735 7.48037 41.5705 7.47598C41.569 7.47389 41.5727 7.47868 41.5781 7.49011C41.5809 7.49613 41.5852 7.50604 41.5895 7.51944C41.5937 7.53254 41.5991 7.55263 41.6021 7.57837L40.8074 7.67062C40.8218 7.79424 40.884 7.88989 40.9129 7.93152C40.9512 7.98694 40.997 8.03859 41.0426 8.08262C41.0881 8.12663 41.1424 8.17177 41.2016 8.20949C41.2507 8.24068 41.3464 8.29534 41.467 8.30647L41.5405 7.50986ZM41.9836 7.43413L41.4462 7.51233L41.5614 8.304L42.0988 8.2258L41.9836 7.43413ZM43.7945 8.09682C43.3059 7.60824 42.6348 7.33814 41.9829 7.43424L42.0995 8.22569C42.4566 8.17305 42.8848 8.31849 43.2288 8.66251L43.7945 8.09682ZM44.4565 9.90729C44.5503 9.25749 44.2842 8.58565 43.7943 8.09656L43.2291 8.66277C43.5717 9.00474 43.7166 9.43384 43.6647 9.79297L44.4565 9.90729ZM44.3776 10.4581L44.4566 9.90685L43.6646 9.79341L43.5857 10.3446L44.3776 10.4581ZM44.3174 10.2867C44.3586 10.2905 44.3861 10.3014 44.3952 10.3052C44.4061 10.3098 44.4106 10.3129 44.4085 10.3116C44.4039 10.3087 44.3914 10.2995 44.3758 10.2843C44.3602 10.2692 44.3504 10.2569 44.3472 10.2523C44.3457 10.2501 44.3493 10.2549 44.3547 10.2662C44.3575 10.2722 44.3618 10.2821 44.3662 10.2955C44.3704 10.3086 44.3759 10.3289 44.3789 10.3548L43.5844 10.4479C43.5988 10.5715 43.6613 10.6671 43.6899 10.7083C43.7281 10.7634 43.7738 10.815 43.8192 10.859C43.8646 10.903 43.9188 10.9482 43.9781 10.986C44.0269 11.0172 44.1229 11.0722 44.2439 11.0833L44.3174 10.2867ZM26.8152 31.0233L16.9689 17.7523L16.3264 18.2289L26.1727 31.4999L26.8152 31.0233ZM30.7337 26.4554L26.2111 30.9788L26.7768 31.5444L31.2994 27.0211L30.7337 26.4554ZM20.849 13.7048L30.6953 26.9766L31.3378 26.4999L21.4915 13.2282L20.849 13.7048ZM20.4956 14.7076L21.4532 13.7492L20.8873 13.1838L19.9297 14.1421L20.4956 14.7076ZM16.9305 18.2734L20.4955 14.7076L19.9298 14.142L16.3648 17.7078L16.9305 18.2734ZM15.4478 42.5674L15.549 42.3965L14.8606 41.989L14.7594 42.1599L15.4478 42.5674ZM15.4995 42.4893L15.5034 42.3774L14.7038 42.35L14.7 42.4619L15.4995 42.4893ZM13.759 44.1659C14.3901 44.2057 14.8152 43.8198 15.0634 43.471C15.3126 43.1208 15.4407 42.7351 15.4837 42.5878L14.7158 42.3635C14.6829 42.476 14.5852 42.7631 14.4116 43.0071C14.2371 43.2524 14.0423 43.3822 13.8093 43.3675L13.759 44.1659ZM12.8773 43.8334C12.9281 43.883 12.9946 43.9216 13.0292 43.941C13.0786 43.9688 13.1399 43.9992 13.2102 44.0285C13.3488 44.0863 13.5375 44.1463 13.7487 44.1651L13.8196 43.3683C13.7119 43.3587 13.6047 43.3263 13.5183 43.2902C13.476 43.2726 13.4426 43.2557 13.4209 43.2435C13.41 43.2374 13.4041 43.2336 13.4028 43.2327C13.3956 43.2279 13.4133 43.2385 13.4367 43.2615L12.8773 43.8334ZM12.7749 43.3943L12.7611 43.4909L13.553 43.604L13.5668 43.5074L12.7749 43.3943ZM12.3393 42.2635C12.6819 42.6054 12.8268 43.0345 12.7749 43.3937L13.5667 43.508C13.6605 42.8582 13.3945 42.1864 12.9045 41.6973L12.3393 42.2635ZM11.3531 41.8169C11.6801 41.8169 12.043 41.9665 12.3388 42.2629L12.905 41.6978C12.4786 41.2705 11.9185 41.0169 11.3531 41.0169V41.8169ZM11.204 41.8278C11.2567 41.8206 11.3059 41.8169 11.3531 41.8169V41.0169C11.2638 41.0169 11.1781 41.0239 11.0959 41.0351L11.204 41.8278ZM10.6723 41.9061L11.2082 41.8272L11.0916 41.0357L10.5557 41.1147L10.6723 41.9061ZM9.91733 41.2756C9.93256 41.3975 9.99423 41.492 10.0231 41.5335C10.0613 41.5886 10.107 41.6402 10.1525 41.6842C10.1979 41.7282 10.2521 41.7735 10.3114 41.8113C10.3603 41.8425 10.4562 41.8975 10.5772 41.9087L10.6508 41.1121C10.692 41.1159 10.7195 41.1267 10.7286 41.1306C10.7395 41.1352 10.744 41.1383 10.7419 41.137C10.7372 41.134 10.7248 41.1248 10.7091 41.1096C10.6934 41.0944 10.6835 41.082 10.6801 41.0771C10.6785 41.0748 10.6819 41.0793 10.6871 41.0902C10.6899 41.096 10.6941 41.1056 10.6984 41.1186C10.7026 41.1314 10.708 41.1511 10.7111 41.1764L9.91733 41.2756ZM9.99726 40.6187L9.91829 41.1692L10.7102 41.2828L10.7892 40.7323L9.99726 40.6187ZM9.56143 39.4879C9.90411 39.8306 10.0486 40.2592 9.99722 40.6189L10.7892 40.7321C10.8819 40.0829 10.617 39.4121 10.1271 38.9222L9.56143 39.4879ZM8.42699 39.0508C8.78937 39.0008 9.21936 39.1458 9.56143 39.4879L10.1271 38.9222C9.63658 38.4317 8.96564 38.1688 8.31755 38.2583L8.42699 39.0508ZM7.89553 39.1292L8.43066 39.0503L8.31388 38.2589L7.77874 38.3378L7.89553 39.1292ZM7.14004 38.4952C7.15441 38.6191 7.21691 38.7149 7.2457 38.7564C7.28412 38.8118 7.32997 38.8635 7.37554 38.9076C7.42109 38.9516 7.47542 38.9968 7.5347 39.0346C7.58361 39.0658 7.67953 39.1207 7.80038 39.1318L7.87389 38.3352C7.91509 38.339 7.94247 38.3498 7.95154 38.3536C7.9623 38.3582 7.96673 38.3613 7.9646 38.3599C7.95989 38.3569 7.94738 38.3477 7.93169 38.3325C7.91603 38.3174 7.90624 38.3051 7.9031 38.3005C7.9016 38.2984 7.90519 38.3031 7.91059 38.3145C7.91343 38.3205 7.91775 38.3304 7.92206 38.3438C7.92628 38.357 7.9317 38.3771 7.9347 38.403L7.14004 38.4952ZM7.22039 37.8418L7.14142 38.3923L7.93332 38.5059L8.01228 37.9554L7.22039 37.8418ZM6.78456 36.711C7.12725 37.0537 7.27175 37.4823 7.22036 37.8421L8.01232 37.9552C8.10506 37.306 7.84016 36.6352 7.35025 36.1453L6.78456 36.711ZM5.64878 36.2741C6.01428 36.2249 6.44311 36.3696 6.78456 36.711L7.35024 36.1453C6.85909 35.6542 6.19006 35.394 5.54203 35.4813L5.64878 36.2741ZM5.11782 36.3524L5.65372 36.2734L5.53709 35.482L5.00119 35.5609L5.11782 36.3524ZM4.36322 35.7195C4.37769 35.8431 4.44021 35.9388 4.46872 35.9799C4.50698 36.0351 4.55264 36.0866 4.59807 36.1306C4.64347 36.1746 4.6977 36.2198 4.75693 36.2576C4.80582 36.2888 4.90176 36.3438 5.02273 36.355L5.09627 35.5584C5.13752 35.5622 5.16495 35.573 5.1741 35.5769C5.18493 35.5814 5.18943 35.5846 5.18735 35.5833C5.18273 35.5803 5.17031 35.5711 5.15466 35.556C5.13905 35.5409 5.12926 35.5285 5.1261 35.524C5.12458 35.5218 5.12816 35.5265 5.13354 35.5378C5.13638 35.5438 5.14071 35.5537 5.14504 35.5672C5.14928 35.5803 5.15475 35.6005 5.15779 35.6265L4.36322 35.7195ZM4.44351 35.065L4.36455 35.6163L5.15646 35.7297L5.23543 35.1785L4.44351 35.065ZM4.00769 33.9341C4.35072 34.2772 4.4954 34.7057 4.44357 35.0646L5.23536 35.1789C5.32921 34.5289 5.06295 33.858 4.57338 33.3685L4.00769 33.9341ZM2.9012 33.5C3.23642 33.4481 3.66328 33.5878 4.00691 33.9334L4.57416 33.3692C4.08672 32.8791 3.41418 32.611 2.7788 32.7094L2.9012 33.5ZM2.14782 32.4434C2.16773 32.6762 2.23442 32.8861 2.31121 33.0477C2.34965 33.1286 2.3938 33.2041 2.44155 33.2681C2.47835 33.3175 2.55345 33.4106 2.66628 33.465L3.01373 32.7444C3.05663 32.765 3.07967 32.7878 3.08258 32.7906C3.08838 32.7962 3.08817 32.797 3.08287 32.7899C3.07231 32.7757 3.05417 32.7472 3.03377 32.7043C2.99287 32.6183 2.95568 32.5012 2.94492 32.3752L2.14782 32.4434ZM3.78019 30.7625C3.64969 30.8076 3.25408 30.9541 2.89186 31.1978C2.55779 31.4225 2.09546 31.8371 2.14785 32.4437L2.94489 32.3749C2.93364 32.2447 3.03405 32.0663 3.33842 31.8615C3.61465 31.6757 3.93319 31.5561 4.04188 31.5185L3.78019 30.7625ZM3.91115 30.7168L3.77928 30.7628L4.04279 31.5181L4.17466 31.4721L3.91115 30.7168ZM3.8975 30.7057L3.8078 30.7708L4.27801 31.4181L4.36771 31.3529L3.8975 30.7057ZM14.858 27.2058C13.5088 27.2716 8.06112 27.7146 3.89923 30.7044L4.36598 31.3542C8.32768 28.5081 13.5719 28.0695 14.8969 28.0049L14.858 27.2058ZM16.009 28.1712L15.1603 27.3225L14.5946 27.8882L15.4433 28.7369L16.009 28.1712ZM15.7991 28.8963C15.8275 28.8623 15.8645 28.833 15.9113 28.8086L15.541 28.0995C15.4145 28.1656 15.2905 28.2575 15.1855 28.3829L15.7991 28.8963ZM12.5583 30.263C13.1975 30.2409 13.7557 30.2251 14.2747 30.0458C14.8149 29.8591 15.2801 29.5102 15.7978 28.8978L15.1868 28.3814C14.7278 28.9243 14.375 29.1647 14.0134 29.2896C13.6306 29.4219 13.2033 29.4402 12.5307 29.4634L12.5583 30.263ZM10.981 30.372C11.5747 30.2978 12.09 30.2791 12.5582 30.263L12.5307 29.4634C12.062 29.4795 11.5148 29.4991 10.8818 29.5782L10.981 30.372ZM10.6628 30.7808C10.6375 30.5801 10.78 30.397 10.9807 30.3721L10.8821 29.5782C10.2425 29.6575 9.78853 30.2411 9.86907 30.8807L10.6628 30.7808ZM11.0257 31.1023C10.8437 31.1023 10.6859 30.9662 10.6629 30.7813L9.869 30.8802C9.94258 31.4711 10.4457 31.9023 11.0257 31.9023V31.1023ZM11.0742 31.099C11.0539 31.1014 11.0386 31.1023 11.0257 31.1023V31.9023C11.0772 31.9023 11.1248 31.8986 11.1688 31.8934L11.0742 31.099ZM12.5685 30.9965C12.1163 31.0124 11.631 31.0293 11.0719 31.0993L11.1712 31.8931C11.6905 31.8281 12.1427 31.812 12.5967 31.796L12.5685 30.9965ZM12.5833 30.996L12.5685 30.9965L12.5967 31.796L12.6115 31.7955L12.5833 30.996ZM14.2058 30.8234C13.6984 30.9487 13.1782 30.9752 12.5834 30.996L12.6113 31.7955C13.2018 31.7749 13.7994 31.7478 14.3975 31.6001L14.2058 30.8234ZM12.9628 37.6811C12.6848 35.4588 13.3449 33.1525 14.6216 31.4519L13.9818 30.9716C12.5844 32.833 11.8644 35.346 12.169 37.7804L12.9628 37.6811ZM13.3257 38.0023C13.1437 38.0023 12.9859 37.8662 12.9629 37.6813L12.169 37.7801C12.2426 38.3711 12.7457 38.8023 13.3257 38.8023V38.0023ZM13.3742 37.999C13.3539 38.0014 13.3386 38.0023 13.3257 38.0023V38.8023C13.3772 38.8023 13.4248 38.7986 13.4688 38.7934L13.3742 37.999ZM13.6901 37.5906C13.7154 37.7912 13.5729 37.9743 13.3723 37.9992L13.4708 38.7932C14.1104 38.7138 14.5644 38.1303 14.4839 37.4906L13.6901 37.5906ZM17.1002 30.1987C14.7624 31.5065 13.3265 34.6844 13.6901 37.5903L14.4839 37.4909C14.1545 34.8584 15.4785 32.0226 17.4908 30.8969L17.1002 30.1987ZM17.2211 30.0715C17.1777 30.1396 17.1384 30.1772 17.0991 30.1994L17.4919 30.8963C17.681 30.7897 17.8074 30.6402 17.8958 30.5013L17.2211 30.0715ZM18.68 30.8423L17.8413 30.0036L17.2756 30.5692L18.1144 31.408L18.68 30.8423ZM15.5494 42.3958C15.5929 42.3219 18.0781 38.0642 18.7951 31.1665L17.9993 31.0838C17.6488 34.4564 16.8661 37.1797 16.1694 39.0625C15.8211 40.0037 15.4945 40.7344 15.2545 41.2305C15.1345 41.4786 15.0362 41.6679 14.9677 41.7955C14.9335 41.8593 14.9067 41.9077 14.8884 41.9403C14.8792 41.9566 14.8722 41.9689 14.8674 41.9772C14.8625 41.9856 14.8601 41.9898 14.8602 41.9896L15.5494 42.3958ZM24.9416 32.2475C24.2007 32.9878 22.9949 32.9882 22.2542 32.2476L21.6886 32.8133C22.7419 33.8666 24.4541 33.8655 25.5071 32.8134L24.9416 32.2475ZM25.1148 32.0743L24.9415 32.2476L25.5072 32.8133L25.6805 32.64L25.1148 32.0743ZM15.2293 19.3245L25.0764 32.5955L25.7189 32.1188L15.8718 18.8478L15.2293 19.3245ZM13.9482 21.2549L15.8335 19.3689L15.2677 18.8034L13.3824 20.6894L13.9482 21.2549ZM13.9483 23.9416C13.2081 23.2008 13.2081 21.9957 13.9483 21.2549L13.3824 20.6894C12.3301 21.7426 12.3301 23.4539 13.3824 24.5071L13.9483 23.9416ZM15.782 25.7754L13.9482 23.9415L13.3825 24.5072L15.2164 26.3411L15.782 25.7754ZM20.2747 30.2681L15.782 25.7754L15.2164 26.3411L19.709 30.8337L20.2747 30.2681ZM22.2542 32.2476L20.2747 30.2681L19.709 30.8337L21.6886 32.8133L22.2542 32.2476ZM32.3957 25.9248L33.8133 24.5072L33.2476 23.9415L31.83 25.3591L32.3957 25.9248ZM21.9706 12.643L31.7916 25.8803L32.4341 25.4036L22.6131 12.1663L21.9706 12.643ZM23.599 11.593C23.0581 11.593 22.5226 11.7582 22.0641 12.0759L22.5197 12.7335C22.8447 12.5083 23.2215 12.393 23.599 12.393V11.593ZM25.508 12.3825C24.9811 11.8557 24.2891 11.593 23.599 11.593V12.393C24.0865 12.393 24.5721 12.578 24.9423 12.9482L25.508 12.3825ZM27.5941 14.4686L25.508 12.3825L24.9423 12.9482L27.0284 15.0343L27.5941 14.4686ZM28.6682 15.5427L27.5941 14.4686L27.0284 15.0343L28.1025 16.1084L28.6682 15.5427ZM33.814 20.6886L28.6682 15.5427L28.1025 16.1084L33.2484 21.2542L33.814 20.6886ZM34.6013 22.5975C34.6013 21.8752 34.3214 21.1959 33.814 20.6886L33.2484 21.2542C33.6043 21.6102 33.8013 22.0855 33.8013 22.5975H34.6013ZM33.813 24.5075C34.3214 24 34.6013 23.3197 34.6013 22.5975H33.8013C33.8013 23.1096 33.6043 23.5855 33.2478 23.9413L33.813 24.5075ZM43.2119 13.8059L42.9919 13.9163L43.3507 14.6313L43.5707 14.5209L43.2119 13.8059ZM44.3582 12.9297C44.3695 13.0606 44.2688 13.2391 43.9646 13.4434C43.6883 13.6289 43.3697 13.7479 43.2615 13.785L43.5211 14.5418C43.6521 14.4968 44.048 14.351 44.4106 14.1075C44.7452 13.8829 45.2076 13.4683 45.1553 12.861L44.3582 12.9297ZM44.2901 12.5603C44.2474 12.5397 44.2244 12.5171 44.2215 12.5142C44.2157 12.5086 44.2159 12.5078 44.2211 12.5148C44.2316 12.5288 44.2497 12.5572 44.27 12.5999C44.3106 12.6856 44.3476 12.8024 44.3581 12.9285L45.1554 12.8622C45.1359 12.6287 45.0694 12.4185 44.9926 12.2568C44.9542 12.1758 44.91 12.1003 44.8622 12.0362C44.8252 11.9867 44.7502 11.894 44.6376 11.8397L44.2901 12.5603ZM42.7308 11.9387C43.2185 12.4256 43.893 12.6937 44.5254 12.5952L44.4023 11.8047C44.0702 11.8565 43.6407 11.7167 43.2959 11.3725L42.7308 11.9387ZM42.0676 10.1279C41.9749 10.7781 42.2408 11.4488 42.7305 11.9385L43.2962 11.3728C42.9533 11.0299 42.8082 10.6012 42.8596 10.2409L42.0676 10.1279ZM42.1466 9.57644L42.0677 10.1277L42.8596 10.2411L42.9386 9.68988L42.1466 9.57644ZM42.2068 9.7478C42.1658 9.74402 42.1385 9.73329 42.1294 9.72945C42.1186 9.72491 42.1142 9.72178 42.1162 9.72309C42.1208 9.726 42.1331 9.7351 42.1487 9.75012C42.1642 9.76513 42.1738 9.77729 42.1769 9.78168C42.1783 9.78377 42.1747 9.77898 42.1693 9.76755C42.1665 9.76153 42.1622 9.75162 42.1578 9.73822C42.1536 9.72512 42.1483 9.70503 42.1453 9.67929L42.9399 9.58704C42.9256 9.46343 42.8634 9.36777 42.8345 9.32614C42.7961 9.27072 42.7503 9.21907 42.7048 9.17504C42.6593 9.13103 42.605 9.08589 42.5457 9.04817C42.4967 9.01698 42.401 8.96232 42.2804 8.95119L42.2068 9.7478ZM41.7638 9.82353L42.3012 9.74533L42.186 8.95366L41.6486 9.03187L41.7638 9.82353ZM39.9529 9.16084C40.4414 9.64939 41.1118 9.9195 41.7644 9.82343L41.6479 9.03196C41.2901 9.08463 40.8626 8.9392 40.5185 8.59515L39.9529 9.16084ZM39.2909 7.35037C39.1971 8.00017 39.4631 8.67201 39.9531 9.1611L40.5183 8.59489C40.1757 8.25292 40.0308 7.82382 40.0827 7.46469L39.2909 7.35037ZM39.3698 6.79957L39.2908 7.35081L40.0827 7.46425L40.1617 6.91302L39.3698 6.79957ZM39.43 6.97094C39.389 6.96715 39.3617 6.95643 39.3526 6.95259C39.3418 6.94804 39.3373 6.94491 39.3393 6.94622C39.3439 6.94913 39.3563 6.95823 39.3718 6.97326C39.3873 6.98826 39.397 7.00043 39.4 7.00481C39.4015 7.0069 39.3978 7.00211 39.3924 6.99068C39.3896 6.98466 39.3853 6.97475 39.381 6.96134C39.3768 6.94824 39.3714 6.92815 39.3684 6.9024L40.1631 6.81019C40.1487 6.68657 40.0865 6.59091 40.0576 6.54927C40.0193 6.49386 39.9735 6.4422 39.9279 6.39817C39.8824 6.35416 39.8281 6.30902 39.7689 6.2713C39.7198 6.24011 39.6241 6.18546 39.5035 6.17432L39.43 6.97094ZM38.9869 7.04666L39.5243 6.96846L39.4091 6.1768L38.8717 6.255L38.9869 7.04666ZM37.1757 6.38371C37.6654 6.87426 38.3364 7.14058 38.9865 7.04673L38.8721 6.25494C38.5133 6.30675 38.0849 6.16213 37.7419 5.81855L37.1757 6.38371ZM36.514 4.5735C36.4202 5.2233 36.6863 5.89514 37.1763 6.38423L37.7414 5.81803C37.3988 5.47605 37.2539 5.04696 37.3058 4.68782L36.514 4.5735ZM36.5921 4.02256L36.5139 4.57456L37.306 4.68677L37.3841 4.13477L36.5921 4.02256ZM36.6523 4.1933C36.6113 4.18952 36.584 4.17879 36.5749 4.17495C36.5641 4.17041 36.5597 4.16728 36.5617 4.16859C36.5663 4.1715 36.5786 4.1806 36.5942 4.19562C36.6097 4.21063 36.6193 4.22279 36.6224 4.22718C36.6238 4.22927 36.6202 4.22448 36.6148 4.21305C36.612 4.20703 36.6077 4.19711 36.6033 4.18371C36.5991 4.1706 36.5938 4.15051 36.5908 4.12477L37.3854 4.03256C37.3711 3.90893 37.3089 3.81328 37.28 3.77164C37.2416 3.71622 37.1958 3.66457 37.1503 3.62054C37.1048 3.57653 37.0505 3.53139 36.9912 3.49367C36.9422 3.46248 36.8465 3.40782 36.7259 3.39669L36.6523 4.1933ZM36.2093 4.26903L36.7467 4.19083L36.6315 3.39917L36.0941 3.47737L36.2093 4.26903ZM34.3981 3.60608C34.8879 4.09674 35.5576 4.35988 36.2069 4.26937L36.0964 3.47703C35.7338 3.52758 35.3056 3.38286 34.9643 3.04091L34.3981 3.60608ZM33.7364 1.79587C33.6426 2.44567 33.9086 3.11751 34.3986 3.6066L34.9638 3.04039C34.6212 2.69842 34.4763 2.26932 34.5282 1.91019L33.7364 1.79587ZM33.7501 1.69987L33.7363 1.79647L34.5283 1.90959L34.542 1.81299L33.7501 1.69987ZM33.4834 1.93558C33.5907 1.94515 33.698 1.97754 33.7846 2.01368C33.827 2.03136 33.8605 2.0483 33.8823 2.06049C33.8933 2.06666 33.8992 2.07046 33.9006 2.07135C33.9078 2.07619 33.89 2.06548 33.8664 2.04236L34.4258 1.4705C34.3749 1.42069 34.3081 1.38205 34.2736 1.36271C34.2242 1.335 34.1628 1.30459 34.0925 1.27531C33.954 1.21754 33.7653 1.15754 33.5545 1.13874L33.4834 1.93558ZM32.5878 2.94061C32.6225 2.82574 32.7246 2.53483 32.9005 2.28929C33.0789 2.04008 33.27 1.91834 33.4867 1.93586L33.5512 1.13846C32.9238 1.08775 32.4977 1.47777 32.2501 1.82349C31.9998 2.17288 31.867 2.56009 31.8219 2.70972L32.5878 2.94061ZM32.6033 2.94112L32.6048 2.83072L31.8049 2.81961L31.8034 2.93001L32.6033 2.94112ZM32.443 3.31538L32.5473 3.13981L31.8594 2.73131L31.7551 2.90688L32.443 3.31538ZM29.3045 14.2201C29.6551 10.8475 30.4378 8.12417 31.1345 6.24138C31.4828 5.30012 31.8094 4.56944 32.0494 4.07333C32.1694 3.82529 32.2677 3.63596 32.3362 3.50833C32.3704 3.44451 32.3972 3.39614 32.4155 3.36357C32.4247 3.34729 32.4317 3.33496 32.4365 3.32665C32.4413 3.31821 32.4438 3.31408 32.4437 3.3142L31.7545 2.90806C31.7109 2.98192 29.2258 7.23961 28.5088 14.1374L29.3045 14.2201ZM30.0607 14.7686L29.1898 13.8961L28.6236 14.4613L29.4945 15.3338L30.0607 14.7686ZM29.861 14.4076C29.6503 14.5263 29.5182 14.6981 29.4299 14.8535L30.1253 15.2489C30.1704 15.1697 30.2115 15.1283 30.2538 15.1045L29.861 14.4076ZM32.869 7.81282C33.1977 10.4454 31.8744 13.2806 29.8621 14.407L30.2528 15.1051C32.5906 13.7965 34.0257 10.6195 33.6629 7.7137L32.869 7.81282ZM33.8821 6.51071C33.2425 6.59008 32.7885 7.17361 32.8691 7.81324L33.6628 7.71329C33.6375 7.51265 33.78 7.32952 33.9807 7.30462L33.8821 6.51071ZM35.184 7.52396C35.104 6.87821 34.5096 6.4362 33.8842 6.51045L33.9786 7.30487C34.1797 7.28099 34.3658 7.42625 34.39 7.6223L35.184 7.52396ZM33.3712 14.3315C34.7686 12.4701 35.4885 9.95715 35.1839 7.52345L34.3901 7.62281C34.6682 9.84431 34.0081 12.1506 32.7314 13.8512L33.3712 14.3315ZM34.7414 13.5076C34.1504 13.5274 33.5534 13.5545 32.9549 13.7031L33.1477 14.4795C33.6547 14.3537 34.1739 14.3271 34.7682 14.3071L34.7414 13.5076ZM34.7562 13.507L34.7407 13.5076L34.7689 14.3071L34.7843 14.3065L34.7562 13.507ZM36.1817 13.41C35.6627 13.475 35.21 13.4911 34.7562 13.507L34.7844 14.3065C35.2364 14.2906 35.7222 14.2738 36.2811 14.2038L36.1817 13.41ZM37.4839 14.4224C37.4027 13.7779 36.8106 13.3378 36.1858 13.4095L36.277 14.2043C36.4802 14.181 36.6655 14.3266 36.6901 14.5223L37.4839 14.4224ZM36.4708 15.7249C37.1104 15.6456 37.5644 15.062 37.4839 14.4224L36.6901 14.5223C36.7154 14.723 36.5729 14.9061 36.3723 14.931L36.4708 15.7249ZM34.8214 15.8397C35.2903 15.8236 35.8382 15.8048 36.4716 15.7248L36.3714 14.9311C35.7782 15.006 35.2635 15.024 34.794 15.0401L34.8214 15.8397ZM34.8197 15.8397L34.8214 15.8397L34.794 15.0401L34.7923 15.0402L34.8197 15.8397ZM32.1662 16.9216C32.6251 16.3785 32.9776 16.1382 33.3387 16.0133C33.721 15.8811 34.1477 15.8629 34.8198 15.8397L34.7922 15.0402C34.1537 15.0622 33.5959 15.0779 33.0772 15.2573C32.5374 15.444 32.0725 15.7929 31.5551 16.4054L32.1662 16.9216ZM31.7584 17.2301C31.9103 17.1612 32.0506 17.0582 32.166 16.9219L31.5553 16.4051C31.5189 16.4482 31.4752 16.4801 31.4278 16.5017L31.7584 17.2301ZM32.7085 17.4157L31.8759 16.5831L31.3102 17.1487L32.1428 17.9813L32.7085 17.4157ZM42.9378 13.949C38.9762 16.7965 33.7305 17.2344 32.4062 17.299L32.4452 18.098C33.7934 18.0323 39.2428 17.5901 43.4047 14.5986L42.9378 13.949Z" fill="#4D4D4D" mask="url(#path-1-outside-1)"/>
</svg>
