<svg width="46" height="46" viewBox="0 0 46 46" fill="none" xmlns="http://www.w3.org/2000/svg">
<path fill-rule="evenodd" clip-rule="evenodd" d="M35.4573 18.9988H8.6239C7.03879 18.9988 5.7489 20.3448 5.7489 21.9988V23.9988C5.7489 31.1347 9.52665 37.6068 15.6063 40.8888C16.0759 41.1408 16.6547 40.9507 16.8982 40.4587C17.1397 39.9687 16.9575 39.3648 16.486 39.1107C11.0465 36.1747 7.66554 30.3847 7.66554 23.9987V21.9987C7.66554 21.4467 8.0949 20.9987 8.6239 20.9987H35.4573C35.9863 20.9987 36.4156 21.4467 36.4156 21.9987V23.9987C36.4156 30.3847 33.0346 36.1747 27.5932 39.1087C27.1217 39.3626 26.9396 39.9667 27.1811 40.4567C27.3517 40.8007 27.6871 40.9987 28.034 40.9987C28.1835 40.9987 28.333 40.9627 28.4729 40.8866C34.5545 37.6066 38.3323 31.1366 38.3323 23.9986V21.9986C38.3323 20.3448 37.0423 18.9988 35.4573 18.9988Z" fill="#4D4D4D"/>
<path fill-rule="evenodd" clip-rule="evenodd" d="M43.1258 38.9968C43.513 38.9968 43.8618 39.2408 44.0113 39.6148C44.1608 39.9888 44.0784 40.4188 43.8044 40.7048L41.6558 42.9488C40.3851 44.2709 38.7003 45.9989 36.9082 45.9989H7.17306C5.38094 45.9989 3.69817 44.2708 2.42931 42.9488L0.280693 40.7048C0.00657993 40.4188 -0.0758068 39.9888 0.0736932 39.6148C0.223193 39.2408 0.572056 38.9968 0.959193 38.9968H43.1258ZM39.9149 41.9452C40.048 41.8013 40.1762 41.6628 40.2988 41.5348L40.8124 40.9988H3.27078L3.78442 41.5348C3.90705 41.6628 4.0352 41.8013 4.16832 41.9452C5.01725 42.8629 6.06796 43.9988 7.17306 43.9988H36.9102C38.0153 43.9988 39.066 42.8629 39.9149 41.9452Z" fill="#4D4D4D"/>
<path fill-rule="evenodd" clip-rule="evenodd" d="M44.1455 23.7208C41.5637 21.9888 37.4391 23.8688 36.9771 24.0868C36.496 24.3168 36.2814 24.9088 36.5018 25.4128C36.7221 25.9168 37.2876 26.1388 37.7725 25.9088C38.6964 25.4708 41.6595 24.4328 43.1085 25.4068C43.7621 25.8448 44.0821 26.6948 44.0821 27.9988C44.0821 32.0028 36.3426 34.4228 33.3545 35.0188L32.676 35.1588C32.1566 35.2648 31.8193 35.7907 31.9209 36.3328C32.011 36.8088 32.4115 37.1388 32.86 37.1388C32.9214 37.1388 32.9827 37.1328 33.0459 37.1188L33.7187 36.9808C34.2208 36.8808 45.9988 34.4708 45.9988 27.9988C45.9989 25.9868 45.3741 24.5488 44.1455 23.7208Z" fill="#4D4D4D"/>
<path fill-rule="evenodd" clip-rule="evenodd" d="M28.5822 7.62281C30.1405 5.59078 30.1405 2.40881 28.5822 0.376778C28.2506 -0.0552217 27.6507 -0.127222 27.2348 0.220778C26.8208 0.56681 26.7537 1.19475 27.0853 1.62675C28.0724 2.91272 28.0724 5.08678 27.0834 6.37678C25.5233 8.40881 25.5233 11.5908 27.0834 13.6228C27.2732 13.8708 27.5511 13.9988 27.8328 13.9988C28.0417 13.9988 28.2545 13.9268 28.4308 13.7788C28.8448 13.4328 28.9119 12.8028 28.5803 12.3728C27.5913 11.0868 27.5913 8.91281 28.5822 7.62281Z" fill="#4D4D4D"/>
<path fill-rule="evenodd" clip-rule="evenodd" d="M22.8246 7.62281C24.3847 5.59078 24.3847 2.40881 22.8246 0.376782C22.4949 -0.0552177 21.8912 -0.125249 21.4772 0.220782C21.0632 0.566814 20.9961 1.19681 21.3277 1.62675C22.3167 2.91272 22.3167 5.08678 21.3258 6.37678C19.7675 8.40881 19.7675 11.5908 21.3258 13.6228C21.5155 13.8708 21.7934 13.9988 22.0752 13.9988C22.2841 13.9988 22.4949 13.9268 22.6732 13.7788C23.0872 13.4328 23.1543 12.8048 22.8227 12.3728C21.8356 11.0868 21.8356 8.91281 22.8246 7.62281Z" fill="#4D4D4D"/>
<path fill-rule="evenodd" clip-rule="evenodd" d="M17.0822 7.62478C18.6405 5.59275 18.6405 2.41078 17.0822 0.378747C16.7526 -0.0532534 16.1507 -0.125253 15.7348 0.222747C15.3227 0.566715 15.2557 1.19672 15.5853 1.62675C16.5724 2.91272 16.5724 5.08678 15.5834 6.37678C14.0233 8.40881 14.0233 11.5908 15.5834 13.6228C15.7732 13.8708 16.0511 13.9988 16.3328 13.9988C16.5417 13.9988 16.7545 13.9268 16.9308 13.7809C17.3448 13.4348 17.4119 12.8048 17.0803 12.3749C16.0913 11.0868 16.0913 8.91478 17.0822 7.62478Z" fill="#4D4D4D"/>
</svg>
