<svg width="52" height="43" viewBox="0 0 52 43" fill="none" xmlns="http://www.w3.org/2000/svg">
<path fill-rule="evenodd" clip-rule="evenodd" d="M37.559 12.0302C37.8575 12.3287 38.3451 12.325 38.6481 12.0219C38.9512 11.7189 38.9549 11.2312 38.6565 10.9328C38.358 10.6343 37.8704 10.638 37.5673 10.9411C37.2642 11.2441 37.2605 11.7317 37.559 12.0302Z" fill="#4D4D4D" stroke="#4D4D4D" stroke-width="0.5"/>
<path fill-rule="evenodd" clip-rule="evenodd" d="M42.914 17.3852C43.2124 17.6837 43.7001 17.68 44.0031 17.3769C44.3062 17.0739 44.3099 16.5862 44.0114 16.2878C43.713 15.9893 43.2253 15.993 42.9223 16.2961C42.6192 16.5991 42.6155 17.0868 42.914 17.3852Z" fill="#4D4D4D" stroke="#4D4D4D" stroke-width="0.5"/>
<path fill-rule="evenodd" clip-rule="evenodd" d="M38.7539 21.5453C39.0524 21.8438 39.54 21.8401 39.843 21.537C40.1461 21.234 40.1498 20.7463 39.8513 20.4479C39.5529 20.1494 39.0652 20.1531 38.7622 20.4562C38.4591 20.7592 38.4554 21.2469 38.7539 21.5453Z" fill="#4D4D4D" stroke="#4D4D4D" stroke-width="0.5"/>
<path fill-rule="evenodd" clip-rule="evenodd" d="M34.5937 25.7055C34.8922 26.004 35.3798 26.0002 35.6829 25.6972C35.9859 25.3941 35.9896 24.9065 35.6912 24.608C35.3927 24.3096 34.9051 24.3133 34.602 24.6163C34.299 24.9194 34.2953 25.407 34.5937 25.7055Z" fill="#4D4D4D" stroke="#4D4D4D" stroke-width="0.5"/>
<path fill-rule="evenodd" clip-rule="evenodd" d="M30.4342 29.865C30.7326 30.1635 31.2203 30.1598 31.5233 29.8567C31.8264 29.5537 31.8301 29.066 31.5316 28.7676C31.2332 28.4691 30.7455 28.4728 30.4425 28.7759C30.1394 29.0789 30.1357 29.5665 30.4342 29.865Z" fill="#4D4D4D" stroke="#4D4D4D" stroke-width="0.5"/>
<path fill-rule="evenodd" clip-rule="evenodd" d="M26.2741 34.0251C26.5726 34.3236 27.0602 34.3199 27.3632 34.0168C27.6663 33.7138 27.67 33.2261 27.3715 32.9277C27.0731 32.6292 26.5854 32.6329 26.2824 32.936C25.9793 33.239 25.9756 33.7266 26.2741 34.0251Z" fill="#4D4D4D" stroke="#4D4D4D" stroke-width="0.5"/>
<path fill-rule="evenodd" clip-rule="evenodd" d="M24.7744 9.22326C25.0729 9.52173 25.5605 9.51801 25.8635 9.21496C26.1666 8.91191 26.1703 8.42428 25.8718 8.12581C25.5734 7.82734 25.0857 7.83106 24.7827 8.13411C24.4796 8.43717 24.4759 8.9248 24.7744 9.22326Z" fill="#4D4D4D" stroke="#4D4D4D" stroke-width="0.5"/>
<path fill-rule="evenodd" clip-rule="evenodd" d="M30.1294 14.5783C30.4279 14.8767 30.9155 14.873 31.2186 14.57C31.5216 14.2669 31.5254 13.7793 31.2269 13.4808C30.9284 13.1823 30.4408 13.1861 30.1377 13.4891C29.8347 13.7922 29.831 14.2798 30.1294 14.5783Z" fill="#4D4D4D" stroke="#4D4D4D" stroke-width="0.5"/>
<path fill-rule="evenodd" clip-rule="evenodd" d="M20.6143 13.3834C20.9128 13.6818 21.4004 13.6781 21.7034 13.3751C22.0065 13.072 22.0102 12.5844 21.7117 12.2859C21.4133 11.9874 20.9257 11.9912 20.6226 12.2942C20.3195 12.5973 20.3158 13.0849 20.6143 13.3834Z" fill="#4D4D4D" stroke="#4D4D4D" stroke-width="0.5"/>
<path fill-rule="evenodd" clip-rule="evenodd" d="M25.9693 18.7384C26.2678 19.0368 26.7554 19.0331 27.0585 18.7301C27.3615 18.427 27.3653 17.9394 27.0668 17.6409C26.7683 17.3424 26.2807 17.3462 25.9776 17.6492C25.6746 17.9523 25.6709 18.4399 25.9693 18.7384Z" fill="#4D4D4D" stroke="#4D4D4D" stroke-width="0.5"/>
<path fill-rule="evenodd" clip-rule="evenodd" d="M16.4542 17.5435C16.7527 17.8419 17.2403 17.8382 17.5433 17.5352C17.8464 17.2321 17.8501 16.7445 17.5517 16.446C17.2532 16.1476 16.7656 16.1513 16.4625 16.4543C16.1595 16.7574 16.1557 17.245 16.4542 17.5435Z" fill="#4D4D4D" stroke="#4D4D4D" stroke-width="0.5"/>
<path fill-rule="evenodd" clip-rule="evenodd" d="M21.8092 22.8985C22.1076 23.1969 22.5953 23.1932 22.8983 22.8902C23.2014 22.5871 23.2051 22.0995 22.9066 21.801C22.6082 21.5026 22.1205 21.5063 21.8175 21.8093C21.5144 22.1124 21.5107 22.6 21.8092 22.8985Z" fill="#4D4D4D" stroke="#4D4D4D" stroke-width="0.5"/>
<path fill-rule="evenodd" clip-rule="evenodd" d="M12.2947 21.7031C12.5931 22.0015 13.0808 21.9978 13.3838 21.6947C13.6869 21.3917 13.6906 20.9041 13.3921 20.6056C13.0936 20.3071 12.606 20.3109 12.303 20.6139C11.9999 20.917 11.9962 21.4046 12.2947 21.7031Z" fill="#4D4D4D" stroke="#4D4D4D" stroke-width="0.5"/>
<path fill-rule="evenodd" clip-rule="evenodd" d="M17.6496 27.0581C17.9481 27.3565 18.4357 27.3528 18.7388 27.0498C19.0418 26.7467 19.0456 26.2591 18.7471 25.9606C18.4486 25.6621 17.961 25.6659 17.6579 25.9689C17.3549 26.272 17.3512 26.7596 17.6496 27.0581Z" fill="#4D4D4D" stroke="#4D4D4D" stroke-width="0.5"/>
<path fill-rule="evenodd" clip-rule="evenodd" d="M8.1345 25.8632C8.43297 26.1616 8.92059 26.1579 9.22365 25.8549C9.5267 25.5518 9.53042 25.0642 9.23195 24.7657C8.93348 24.4672 8.44586 24.471 8.1428 24.774C7.83975 25.0771 7.83603 25.5647 8.1345 25.8632Z" fill="#4D4D4D" stroke="#4D4D4D" stroke-width="0.5"/>
<path fill-rule="evenodd" clip-rule="evenodd" d="M13.4895 31.2182C13.788 31.5166 14.2756 31.5129 14.5787 31.2099C14.8817 30.9068 14.8855 30.4192 14.587 30.1207C14.2885 29.8222 13.8009 29.826 13.4978 30.129C13.1948 30.4321 13.1911 30.9197 13.4895 31.2182Z" fill="#4D4D4D" stroke="#4D4D4D" stroke-width="0.5"/>
<mask id="path-17-outside-1" maskUnits="userSpaceOnUse" x="0.466248" y="-0.412338" width="51" height="43" fill="black">
<rect fill="white" x="0.466248" y="-0.412338" width="51" height="43"/>
<path fill-rule="evenodd" clip-rule="evenodd" d="M45.77 23.0495C45.7235 23.7388 45.4427 24.3926 44.9627 24.8895C44.4828 25.3864 43.8513 25.677 43.1855 25.725C43.1391 26.4144 42.8585 27.0681 42.3786 27.565C41.8986 28.0619 41.267 28.3524 40.6013 28.4005C40.5549 29.0898 40.2743 29.7436 39.7944 30.2405C39.3145 30.7374 38.6829 31.0279 38.0172 31.076C37.9707 31.7653 37.6901 32.4192 37.2102 32.916C36.7303 33.4129 36.0989 33.7034 35.4331 33.7514C35.3866 34.4408 35.106 35.0946 34.6261 35.5915C34.1462 36.0883 33.5148 36.3789 32.849 36.4269C32.8025 37.1163 32.522 37.77 32.042 38.2669C31.5721 38.7534 30.952 39.043 30.2977 39.0987C30.2439 39.776 29.9642 40.4182 29.4943 40.9047C28.3961 42.0418 26.5915 42.0235 25.4717 40.8641C24.9823 40.3575 24.6893 39.6978 24.6299 39.0075C23.9632 38.9459 23.326 38.6426 22.8367 38.136C22.3473 37.6293 22.0544 36.9697 21.9949 36.2794C21.3282 36.2179 20.6911 35.9146 20.2017 35.4079C20.0219 35.2217 19.8688 35.0148 19.7439 34.7934C19.6508 34.932 19.5455 35.0631 19.428 35.1847C18.9581 35.6713 18.338 35.9608 17.6837 36.0165C17.63 36.694 17.3502 37.336 16.8803 37.8226C15.7821 38.9596 13.9775 38.9414 12.8577 37.782C12.3683 37.2753 12.0753 36.6156 12.0159 35.9253C11.3492 35.8638 10.7121 35.5606 10.2227 35.0539C9.73332 34.5472 9.4404 33.8876 9.38094 33.1972C8.71421 33.1357 8.07704 32.8324 7.5877 32.3257C7.09837 31.8191 6.80545 31.1595 6.74599 30.4691C6.0792 30.4075 5.44209 30.1043 4.95276 29.5976C4.46343 29.091 4.17045 28.4313 4.11099 27.741C3.44426 27.6795 2.80714 27.3762 2.31775 26.8695C1.19792 25.7101 1.18033 23.8417 2.27855 22.7046C2.70587 22.2622 3.25096 21.9828 3.83778 21.8936C3.84839 21.1449 4.13393 20.4181 4.64976 19.8841C5.1297 19.3872 5.76117 19.0966 6.42698 19.0486C6.4734 18.3592 6.75402 17.7054 7.23391 17.2086C7.71379 16.7117 8.34531 16.4211 9.01107 16.3731C9.05749 15.6838 9.33811 15.03 9.81799 14.5331C10.2979 14.0363 10.9295 13.7458 11.5952 13.6977C11.6416 13.0084 11.9222 12.3546 12.4021 11.8577C12.8821 11.3607 13.5135 11.0702 14.1793 11.0222C14.2258 10.3328 14.5063 9.67907 14.9863 9.18216C15.4662 8.68525 16.0977 8.39472 16.7635 8.34666C16.8099 7.65731 17.0905 7.00358 17.5704 6.50667C18.0504 6.00976 18.6819 5.71917 19.3477 5.67117C19.3941 4.98182 19.6747 4.32803 20.1546 3.83118C20.6662 3.30145 21.3438 3.00779 22.0535 2.98935C22.1484 2.40154 22.4154 1.85585 22.828 1.42868C23.9262 0.291642 25.7308 0.309849 26.8506 1.46927C27.34 1.9759 27.633 2.63559 27.6924 3.32589C28.3592 3.38745 28.9963 3.69079 29.4857 4.19742C29.975 4.70405 30.2679 5.36368 30.3274 6.05404C30.9942 6.1156 31.6313 6.41888 32.1206 6.92551C32.2396 7.04873 32.3467 7.18112 32.442 7.32058C32.5377 7.17597 32.6466 7.03947 32.7686 6.91316C33.2803 6.38343 33.9578 6.08971 34.6676 6.07134C34.7625 5.48352 35.0295 4.9379 35.4421 4.51073C36.5403 3.37369 38.3449 3.39189 39.4648 4.55131C39.9542 5.058 40.2471 5.71769 40.3065 6.40799C40.9733 6.46956 41.6104 6.77277 42.0998 7.27946C42.5892 7.78615 42.8821 8.44584 42.9416 9.1362C43.6083 9.19771 44.2454 9.50098 44.7348 10.0077C45.2242 10.5144 45.5171 11.174 45.5766 11.8644C46.2434 11.9259 46.8804 12.2291 47.3698 12.7358C47.8592 13.2425 48.1521 13.9021 48.2117 14.5926C48.8784 14.6541 49.5155 14.9573 50.0049 15.464C51.1247 16.6234 51.1423 18.4918 50.0441 19.6288C49.5877 20.1013 48.9837 20.3898 48.3462 20.456C48.2822 21.1161 48.0035 21.7415 47.5471 22.2141C47.0673 22.7109 46.4357 23.0015 45.77 23.0495ZM31.8891 19.4014L31.7049 18.4647L32.6094 18.6555C33.1358 18.7666 33.6734 18.6017 34.0474 18.2145C34.4051 17.844 34.5654 17.3304 34.4871 16.8051L34.3601 15.9531L35.1831 16.0846C35.6904 16.1656 36.1865 15.9997 36.5443 15.6293C37.1636 14.9881 37.1535 13.9347 36.5222 13.281C36.1407 12.886 35.6 12.7103 35.0757 12.8108L34.1744 12.9834L34.3412 12.0503C34.4382 11.5075 34.2684 10.9475 33.887 10.5527C33.5056 10.1578 32.9649 9.98205 32.4405 10.0824L31.5393 10.2551L31.7061 9.32203C31.8031 8.77918 31.6333 8.21932 31.2519 7.82441C30.8705 7.42957 30.3298 7.25385 29.8054 7.35422L28.9043 7.52684L29.071 6.59382C29.168 6.05097 28.9982 5.49105 28.6168 5.0962C28.2354 4.7013 27.6947 4.52558 27.1703 4.62595L26.2691 4.79863L26.4359 3.86555C26.5329 3.3227 26.3632 2.76284 25.9817 2.36793C25.3503 1.71418 24.3327 1.70397 23.7135 2.34505C23.3849 2.68533 23.2202 3.15941 23.2617 3.64557L23.3354 4.50988L22.5164 4.31559C21.9769 4.18758 21.425 4.34905 21.0402 4.74749C20.6662 5.13471 20.5069 5.69132 20.6142 6.23628L20.7985 7.17278L19.8939 6.982C19.3676 6.87091 18.8299 7.03588 18.4559 7.4231C18.0818 7.81038 17.9226 8.36693 18.0299 8.91177L18.2143 9.8484L17.3097 9.65761C16.7833 9.54652 16.2457 9.71148 15.8716 10.0987C15.4976 10.4859 15.3383 11.0426 15.4456 11.5876L15.6299 12.5242L14.7252 12.3333C14.199 12.2222 13.6615 12.387 13.2874 12.7743C12.9134 13.1615 12.7541 13.7182 12.8614 14.2632L13.0456 15.1997L12.1411 15.0089C11.6147 14.8978 11.0771 15.0628 10.7031 15.45C10.3291 15.8372 10.1698 16.3938 10.2771 16.9388L10.4614 17.8753L9.55683 17.6845C9.03047 17.5734 8.49282 17.7384 8.11881 18.1256C7.74475 18.5129 7.58554 19.0694 7.69283 19.6143L7.87722 20.5509L6.97257 20.3601C6.44621 20.249 5.90856 20.414 5.53455 20.8012C5.13739 21.2124 4.98495 21.7998 5.12701 22.3725L5.34855 23.2659L4.46588 23.1588C3.97943 23.0997 3.50456 23.2685 3.16329 23.6218C2.54398 24.263 2.55396 25.3165 3.18539 25.9702C3.56682 26.3651 4.10756 26.5408 4.63188 26.4404L5.5331 26.2677L5.36631 27.2008C5.26937 27.7437 5.43915 28.3036 5.82052 28.6985C6.20188 29.0933 6.74263 29.2691 7.267 29.1687L8.16816 28.9961L8.00143 29.9291C7.90443 30.4719 8.07421 31.0318 8.45558 31.4267C8.837 31.8216 9.37775 31.9973 9.90206 31.8969L10.8033 31.7242L10.6365 32.6573C10.5396 33.2002 10.7093 33.7601 11.0907 34.155C11.4721 34.5498 12.0129 34.7256 12.5372 34.6252L13.4385 34.4525L13.2717 35.3856C13.1747 35.9285 13.3445 36.4884 13.7258 36.8832C14.3573 37.537 15.3748 37.5472 15.994 36.9061C16.3587 36.5286 16.52 35.9845 16.4256 35.4506L16.2665 34.5504L17.136 34.7151C17.6516 34.8129 18.1771 34.6459 18.5418 34.2683C18.9158 33.8811 19.0751 33.3244 18.9678 32.7795L18.7835 31.8428L19.6882 32.0337C20.2144 32.1448 20.7519 31.98 21.126 31.5927C21.5 31.2055 21.6593 30.6488 21.552 30.1039L21.3678 29.1674L22.2723 29.3581C22.7987 29.4692 23.3363 29.3043 23.7103 28.9171C24.0843 28.5299 24.2436 27.9732 24.1363 27.4282L23.952 26.4917L24.8566 26.6825C25.3829 26.7936 25.9206 26.6286 26.2946 26.2414C26.6686 25.8541 26.8279 25.2976 26.7206 24.7528L26.5362 23.8161L27.4408 24.0069C27.9672 24.118 28.5048 23.953 28.8788 23.5658C29.2529 23.1786 29.4122 22.6219 29.3049 22.077L29.1206 21.1403L30.0253 21.3312C30.5515 21.4423 31.089 21.2775 31.4631 20.8902C31.8371 20.503 31.9964 19.9463 31.8891 19.4014ZM46.9736 19.0366L47.1011 19.8875C47.1793 20.4127 47.0191 20.9264 46.6613 21.2968C46.2873 21.684 45.7497 21.8489 45.2234 21.7379L44.3188 21.5471L44.5031 22.4836C44.6104 23.0285 44.4511 23.5852 44.077 23.9724C43.703 24.3597 43.1654 24.5246 42.639 24.4135L41.7344 24.2227L41.9188 25.1594C42.0261 25.7042 41.8669 26.2608 41.4928 26.648C41.1188 27.0353 40.5811 27.2002 40.0548 27.0891L39.1502 26.8984L39.3345 27.8349C39.4418 28.3798 39.2825 28.9364 38.9085 29.3236C38.5345 29.7109 37.9969 29.8758 37.4705 29.7647L36.566 29.574L36.7503 30.5105C36.8576 31.0554 36.6982 31.6121 36.3242 31.9993C35.9502 32.3866 35.4126 32.5514 34.8864 32.4404L33.9817 32.2495L34.166 33.1861C34.2733 33.731 34.114 34.2877 33.74 34.6749C33.366 35.0621 32.8283 35.2271 32.3019 35.116L31.3973 34.9252L31.5817 35.8619C31.689 36.4067 31.5298 36.9633 31.1557 37.3505C30.791 37.7281 30.2655 37.8951 29.7499 37.7974L28.8805 37.6326L29.0395 38.5327C29.1339 39.0667 28.9725 39.6108 28.6079 39.9883C27.9887 40.6294 26.9711 40.6192 26.3397 39.9654C25.9583 39.5705 25.7886 39.0106 25.8856 38.4678L26.0523 37.5347L25.1511 37.7074C24.6268 37.8078 24.086 37.632 23.7046 37.2371C23.3232 36.8423 23.1534 36.2824 23.2504 35.7395L23.4172 34.8064L22.516 34.9791C21.9917 35.0795 21.4509 34.9038 21.0695 34.5089C20.7546 34.1828 20.5844 33.7442 20.5892 33.2956C21.122 33.1857 21.6177 32.9173 22.0114 32.5097C22.4913 32.0128 22.7719 31.359 22.8183 30.6697C23.4841 30.6217 24.1156 30.3311 24.5955 29.8343C25.0754 29.3374 25.356 28.6835 25.4024 27.9943C26.0681 27.9462 26.6997 27.6557 27.1796 27.1588C27.6596 26.6619 27.9401 26.0082 27.9865 25.3188C28.6524 25.2707 29.2838 24.9802 29.7638 24.4833C30.2437 23.9864 30.5243 23.3327 30.5707 22.6433C31.2365 22.5953 31.868 22.3047 32.3479 21.8078C32.8279 21.3109 33.1085 20.6571 33.1549 19.9678C33.8206 19.9198 34.4522 19.6292 34.9321 19.1323C35.3885 18.6598 35.6672 18.0344 35.7311 17.3743C36.3686 17.3081 36.9726 17.0196 37.4291 16.5471C38.5273 15.41 38.5097 13.5416 37.3899 12.3822C36.9005 11.8755 36.2634 11.5723 35.5966 11.5107C35.5372 10.8204 35.2442 10.1607 34.7549 9.65413C34.325 9.20899 33.7811 8.92104 33.2032 8.81584C33.2396 8.44643 33.3953 8.09829 33.6536 7.83084C34.0384 7.4324 34.5903 7.27088 35.1299 7.399L35.9489 7.5933L35.8751 6.72899C35.8337 6.24282 35.9984 5.76874 36.327 5.42847C36.9463 4.78733 37.9638 4.79759 38.5952 5.45135C38.9766 5.8462 39.1464 6.40612 39.0494 6.94896L38.8826 7.88204L39.7838 7.70936C40.3081 7.60893 40.8489 7.78471 41.2303 8.17956C41.6116 8.57441 41.7814 9.13433 41.6845 9.67723L41.5177 10.6103L42.4189 10.4376C42.9432 10.3372 43.484 10.5129 43.8654 10.9078C44.2468 11.3027 44.4166 11.8626 44.3195 12.4054L44.1528 13.3385L45.054 13.1658C45.5784 13.0655 46.1191 13.2412 46.5005 13.636C46.8818 14.0309 47.0516 14.5908 46.9547 15.1337L46.7879 16.0668L47.6891 15.8941C48.2134 15.7937 48.7542 15.9694 49.1356 16.3643C49.767 17.018 49.777 18.0715 49.1577 18.7127C48.8 19.083 48.3038 19.249 47.7965 19.1679L46.9736 19.0366Z"/>
</mask>
<path fill-rule="evenodd" clip-rule="evenodd" d="M45.77 23.0495C45.7235 23.7388 45.4427 24.3926 44.9627 24.8895C44.4828 25.3864 43.8513 25.677 43.1855 25.725C43.1391 26.4144 42.8585 27.0681 42.3786 27.565C41.8986 28.0619 41.267 28.3524 40.6013 28.4005C40.5549 29.0898 40.2743 29.7436 39.7944 30.2405C39.3145 30.7374 38.6829 31.0279 38.0172 31.076C37.9707 31.7653 37.6901 32.4192 37.2102 32.916C36.7303 33.4129 36.0989 33.7034 35.4331 33.7514C35.3866 34.4408 35.106 35.0946 34.6261 35.5915C34.1462 36.0883 33.5148 36.3789 32.849 36.4269C32.8025 37.1163 32.522 37.77 32.042 38.2669C31.5721 38.7534 30.952 39.043 30.2977 39.0987C30.2439 39.776 29.9642 40.4182 29.4943 40.9047C28.3961 42.0418 26.5915 42.0235 25.4717 40.8641C24.9823 40.3575 24.6893 39.6978 24.6299 39.0075C23.9632 38.9459 23.326 38.6426 22.8367 38.136C22.3473 37.6293 22.0544 36.9697 21.9949 36.2794C21.3282 36.2179 20.6911 35.9146 20.2017 35.4079C20.0219 35.2217 19.8688 35.0148 19.7439 34.7934C19.6508 34.932 19.5455 35.0631 19.428 35.1847C18.9581 35.6713 18.338 35.9608 17.6837 36.0165C17.63 36.694 17.3502 37.336 16.8803 37.8226C15.7821 38.9596 13.9775 38.9414 12.8577 37.782C12.3683 37.2753 12.0753 36.6156 12.0159 35.9253C11.3492 35.8638 10.7121 35.5606 10.2227 35.0539C9.73332 34.5472 9.4404 33.8876 9.38094 33.1972C8.71421 33.1357 8.07704 32.8324 7.5877 32.3257C7.09837 31.8191 6.80545 31.1595 6.74599 30.4691C6.0792 30.4075 5.44209 30.1043 4.95276 29.5976C4.46343 29.091 4.17045 28.4313 4.11099 27.741C3.44426 27.6795 2.80714 27.3762 2.31775 26.8695C1.19792 25.7101 1.18033 23.8417 2.27855 22.7046C2.70587 22.2622 3.25096 21.9828 3.83778 21.8936C3.84839 21.1449 4.13393 20.4181 4.64976 19.8841C5.1297 19.3872 5.76117 19.0966 6.42698 19.0486C6.4734 18.3592 6.75402 17.7054 7.23391 17.2086C7.71379 16.7117 8.34531 16.4211 9.01107 16.3731C9.05749 15.6838 9.33811 15.03 9.81799 14.5331C10.2979 14.0363 10.9295 13.7458 11.5952 13.6977C11.6416 13.0084 11.9222 12.3546 12.4021 11.8577C12.8821 11.3607 13.5135 11.0702 14.1793 11.0222C14.2258 10.3328 14.5063 9.67907 14.9863 9.18216C15.4662 8.68525 16.0977 8.39472 16.7635 8.34666C16.8099 7.65731 17.0905 7.00358 17.5704 6.50667C18.0504 6.00976 18.6819 5.71917 19.3477 5.67117C19.3941 4.98182 19.6747 4.32803 20.1546 3.83118C20.6662 3.30145 21.3438 3.00779 22.0535 2.98935C22.1484 2.40154 22.4154 1.85585 22.828 1.42868C23.9262 0.291642 25.7308 0.309849 26.8506 1.46927C27.34 1.9759 27.633 2.63559 27.6924 3.32589C28.3592 3.38745 28.9963 3.69079 29.4857 4.19742C29.975 4.70405 30.2679 5.36368 30.3274 6.05404C30.9942 6.1156 31.6313 6.41888 32.1206 6.92551C32.2396 7.04873 32.3467 7.18112 32.442 7.32058C32.5377 7.17597 32.6466 7.03947 32.7686 6.91316C33.2803 6.38343 33.9578 6.08971 34.6676 6.07134C34.7625 5.48352 35.0295 4.9379 35.4421 4.51073C36.5403 3.37369 38.3449 3.39189 39.4648 4.55131C39.9542 5.058 40.2471 5.71769 40.3065 6.40799C40.9733 6.46956 41.6104 6.77277 42.0998 7.27946C42.5892 7.78615 42.8821 8.44584 42.9416 9.1362C43.6083 9.19771 44.2454 9.50098 44.7348 10.0077C45.2242 10.5144 45.5171 11.174 45.5766 11.8644C46.2434 11.9259 46.8804 12.2291 47.3698 12.7358C47.8592 13.2425 48.1521 13.9021 48.2117 14.5926C48.8784 14.6541 49.5155 14.9573 50.0049 15.464C51.1247 16.6234 51.1423 18.4918 50.0441 19.6288C49.5877 20.1013 48.9837 20.3898 48.3462 20.456C48.2822 21.1161 48.0035 21.7415 47.5471 22.2141C47.0673 22.7109 46.4357 23.0015 45.77 23.0495ZM31.8891 19.4014L31.7049 18.4647L32.6094 18.6555C33.1358 18.7666 33.6734 18.6017 34.0474 18.2145C34.4051 17.844 34.5654 17.3304 34.4871 16.8051L34.3601 15.9531L35.1831 16.0846C35.6904 16.1656 36.1865 15.9997 36.5443 15.6293C37.1636 14.9881 37.1535 13.9347 36.5222 13.281C36.1407 12.886 35.6 12.7103 35.0757 12.8108L34.1744 12.9834L34.3412 12.0503C34.4382 11.5075 34.2684 10.9475 33.887 10.5527C33.5056 10.1578 32.9649 9.98205 32.4405 10.0824L31.5393 10.2551L31.7061 9.32203C31.8031 8.77918 31.6333 8.21932 31.2519 7.82441C30.8705 7.42957 30.3298 7.25385 29.8054 7.35422L28.9043 7.52684L29.071 6.59382C29.168 6.05097 28.9982 5.49105 28.6168 5.0962C28.2354 4.7013 27.6947 4.52558 27.1703 4.62595L26.2691 4.79863L26.4359 3.86555C26.5329 3.3227 26.3632 2.76284 25.9817 2.36793C25.3503 1.71418 24.3327 1.70397 23.7135 2.34505C23.3849 2.68533 23.2202 3.15941 23.2617 3.64557L23.3354 4.50988L22.5164 4.31559C21.9769 4.18758 21.425 4.34905 21.0402 4.74749C20.6662 5.13471 20.5069 5.69132 20.6142 6.23628L20.7985 7.17278L19.8939 6.982C19.3676 6.87091 18.8299 7.03588 18.4559 7.4231C18.0818 7.81038 17.9226 8.36693 18.0299 8.91177L18.2143 9.8484L17.3097 9.65761C16.7833 9.54652 16.2457 9.71148 15.8716 10.0987C15.4976 10.4859 15.3383 11.0426 15.4456 11.5876L15.6299 12.5242L14.7252 12.3333C14.199 12.2222 13.6615 12.387 13.2874 12.7743C12.9134 13.1615 12.7541 13.7182 12.8614 14.2632L13.0456 15.1997L12.1411 15.0089C11.6147 14.8978 11.0771 15.0628 10.7031 15.45C10.3291 15.8372 10.1698 16.3938 10.2771 16.9388L10.4614 17.8753L9.55683 17.6845C9.03047 17.5734 8.49282 17.7384 8.11881 18.1256C7.74475 18.5129 7.58554 19.0694 7.69283 19.6143L7.87722 20.5509L6.97257 20.3601C6.44621 20.249 5.90856 20.414 5.53455 20.8012C5.13739 21.2124 4.98495 21.7998 5.12701 22.3725L5.34855 23.2659L4.46588 23.1588C3.97943 23.0997 3.50456 23.2685 3.16329 23.6218C2.54398 24.263 2.55396 25.3165 3.18539 25.9702C3.56682 26.3651 4.10756 26.5408 4.63188 26.4404L5.5331 26.2677L5.36631 27.2008C5.26937 27.7437 5.43915 28.3036 5.82052 28.6985C6.20188 29.0933 6.74263 29.2691 7.267 29.1687L8.16816 28.9961L8.00143 29.9291C7.90443 30.4719 8.07421 31.0318 8.45558 31.4267C8.837 31.8216 9.37775 31.9973 9.90206 31.8969L10.8033 31.7242L10.6365 32.6573C10.5396 33.2002 10.7093 33.7601 11.0907 34.155C11.4721 34.5498 12.0129 34.7256 12.5372 34.6252L13.4385 34.4525L13.2717 35.3856C13.1747 35.9285 13.3445 36.4884 13.7258 36.8832C14.3573 37.537 15.3748 37.5472 15.994 36.9061C16.3587 36.5286 16.52 35.9845 16.4256 35.4506L16.2665 34.5504L17.136 34.7151C17.6516 34.8129 18.1771 34.6459 18.5418 34.2683C18.9158 33.8811 19.0751 33.3244 18.9678 32.7795L18.7835 31.8428L19.6882 32.0337C20.2144 32.1448 20.7519 31.98 21.126 31.5927C21.5 31.2055 21.6593 30.6488 21.552 30.1039L21.3678 29.1674L22.2723 29.3581C22.7987 29.4692 23.3363 29.3043 23.7103 28.9171C24.0843 28.5299 24.2436 27.9732 24.1363 27.4282L23.952 26.4917L24.8566 26.6825C25.3829 26.7936 25.9206 26.6286 26.2946 26.2414C26.6686 25.8541 26.8279 25.2976 26.7206 24.7528L26.5362 23.8161L27.4408 24.0069C27.9672 24.118 28.5048 23.953 28.8788 23.5658C29.2529 23.1786 29.4122 22.6219 29.3049 22.077L29.1206 21.1403L30.0253 21.3312C30.5515 21.4423 31.089 21.2775 31.4631 20.8902C31.8371 20.503 31.9964 19.9463 31.8891 19.4014ZM46.9736 19.0366L47.1011 19.8875C47.1793 20.4127 47.0191 20.9264 46.6613 21.2968C46.2873 21.684 45.7497 21.8489 45.2234 21.7379L44.3188 21.5471L44.5031 22.4836C44.6104 23.0285 44.4511 23.5852 44.077 23.9724C43.703 24.3597 43.1654 24.5246 42.639 24.4135L41.7344 24.2227L41.9188 25.1594C42.0261 25.7042 41.8669 26.2608 41.4928 26.648C41.1188 27.0353 40.5811 27.2002 40.0548 27.0891L39.1502 26.8984L39.3345 27.8349C39.4418 28.3798 39.2825 28.9364 38.9085 29.3236C38.5345 29.7109 37.9969 29.8758 37.4705 29.7647L36.566 29.574L36.7503 30.5105C36.8576 31.0554 36.6982 31.6121 36.3242 31.9993C35.9502 32.3866 35.4126 32.5514 34.8864 32.4404L33.9817 32.2495L34.166 33.1861C34.2733 33.731 34.114 34.2877 33.74 34.6749C33.366 35.0621 32.8283 35.2271 32.3019 35.116L31.3973 34.9252L31.5817 35.8619C31.689 36.4067 31.5298 36.9633 31.1557 37.3505C30.791 37.7281 30.2655 37.8951 29.7499 37.7974L28.8805 37.6326L29.0395 38.5327C29.1339 39.0667 28.9725 39.6108 28.6079 39.9883C27.9887 40.6294 26.9711 40.6192 26.3397 39.9654C25.9583 39.5705 25.7886 39.0106 25.8856 38.4678L26.0523 37.5347L25.1511 37.7074C24.6268 37.8078 24.086 37.632 23.7046 37.2371C23.3232 36.8423 23.1534 36.2824 23.2504 35.7395L23.4172 34.8064L22.516 34.9791C21.9917 35.0795 21.4509 34.9038 21.0695 34.5089C20.7546 34.1828 20.5844 33.7442 20.5892 33.2956C21.122 33.1857 21.6177 32.9173 22.0114 32.5097C22.4913 32.0128 22.7719 31.359 22.8183 30.6697C23.4841 30.6217 24.1156 30.3311 24.5955 29.8343C25.0754 29.3374 25.356 28.6835 25.4024 27.9943C26.0681 27.9462 26.6997 27.6557 27.1796 27.1588C27.6596 26.6619 27.9401 26.0082 27.9865 25.3188C28.6524 25.2707 29.2838 24.9802 29.7638 24.4833C30.2437 23.9864 30.5243 23.3327 30.5707 22.6433C31.2365 22.5953 31.868 22.3047 32.3479 21.8078C32.8279 21.3109 33.1085 20.6571 33.1549 19.9678C33.8206 19.9198 34.4522 19.6292 34.9321 19.1323C35.3885 18.6598 35.6672 18.0344 35.7311 17.3743C36.3686 17.3081 36.9726 17.0196 37.4291 16.5471C38.5273 15.41 38.5097 13.5416 37.3899 12.3822C36.9005 11.8755 36.2634 11.5723 35.5966 11.5107C35.5372 10.8204 35.2442 10.1607 34.7549 9.65413C34.325 9.20899 33.7811 8.92104 33.2032 8.81584C33.2396 8.44643 33.3953 8.09829 33.6536 7.83084C34.0384 7.4324 34.5903 7.27088 35.1299 7.399L35.9489 7.5933L35.8751 6.72899C35.8337 6.24282 35.9984 5.76874 36.327 5.42847C36.9463 4.78733 37.9638 4.79759 38.5952 5.45135C38.9766 5.8462 39.1464 6.40612 39.0494 6.94896L38.8826 7.88204L39.7838 7.70936C40.3081 7.60893 40.8489 7.78471 41.2303 8.17956C41.6116 8.57441 41.7814 9.13433 41.6845 9.67723L41.5177 10.6103L42.4189 10.4376C42.9432 10.3372 43.484 10.5129 43.8654 10.9078C44.2468 11.3027 44.4166 11.8626 44.3195 12.4054L44.1528 13.3385L45.054 13.1658C45.5784 13.0655 46.1191 13.2412 46.5005 13.636C46.8818 14.0309 47.0516 14.5908 46.9547 15.1337L46.7879 16.0668L47.6891 15.8941C48.2134 15.7937 48.7542 15.9694 49.1356 16.3643C49.767 17.018 49.777 18.0715 49.1577 18.7127C48.8 19.083 48.3038 19.249 47.7965 19.1679L46.9736 19.0366Z" fill="#4D4D4D"/>
<path d="M45.77 23.0495L45.734 22.5508L45.3004 22.5821L45.2711 23.0159L45.77 23.0495ZM43.1855 25.725L43.1495 25.2263L42.7158 25.2576L42.6866 25.6914L43.1855 25.725ZM40.6013 28.4005L40.5653 27.9018L40.1317 27.9331L40.1025 28.3669L40.6013 28.4005ZM39.7944 30.2405L40.1541 30.5879L39.7944 30.2405ZM38.0172 31.076L37.9812 30.5773L37.5476 30.6086L37.5183 31.0424L38.0172 31.076ZM37.2102 32.916L37.5699 33.2634L37.2102 32.916ZM35.4331 33.7514L35.3972 33.2527L34.9635 33.284L34.9342 33.7178L35.4331 33.7514ZM32.849 36.4269L32.813 35.9282L32.3793 35.9595L32.3501 36.3933L32.849 36.4269ZM32.042 38.2669L32.4017 38.6143L32.042 38.2669ZM30.2977 39.0987L30.2553 38.6005L29.8328 38.6364L29.7992 39.0591L30.2977 39.0987ZM29.4943 40.9047L29.8539 41.2521L29.8539 41.2521L29.4943 40.9047ZM25.4717 40.8641L25.112 41.2115V41.2115L25.4717 40.8641ZM24.6299 39.0075L25.1281 38.9646L25.0923 38.5481L24.6759 38.5096L24.6299 39.0075ZM21.9949 36.2794L22.4931 36.2365L22.4572 35.8199L22.0409 35.7815L21.9949 36.2794ZM20.2017 35.4079L20.5613 35.0605L20.5613 35.0605L20.2017 35.4079ZM19.7439 34.7934L20.1795 34.5478L19.7813 33.8417L19.329 34.5144L19.7439 34.7934ZM19.428 35.1847L19.7877 35.5321L19.428 35.1847ZM17.6837 36.0165L17.6413 35.5183L17.2187 35.5543L17.1852 35.977L17.6837 36.0165ZM16.8803 37.8226L16.5207 37.4752L16.8803 37.8226ZM12.8577 37.782L12.498 38.1293L12.498 38.1293L12.8577 37.782ZM12.0159 35.9253L12.5141 35.8825L12.4783 35.4659L12.0619 35.4275L12.0159 35.9253ZM9.38094 33.1972L9.87909 33.1543L9.84321 32.7377L9.42687 32.6993L9.38094 33.1972ZM6.74599 30.4691L7.24415 30.4262L7.20827 30.0097L6.79196 29.9712L6.74599 30.4691ZM4.11099 27.741L4.60914 27.6981L4.57326 27.2815L4.15692 27.2431L4.11099 27.741ZM2.31775 26.8695L1.95811 27.2169H1.95811L2.31775 26.8695ZM2.27855 22.7046L1.91891 22.3573H1.91891L2.27855 22.7046ZM3.83778 21.8936L3.91296 22.3879L4.33173 22.3242L4.33773 21.9006L3.83778 21.8936ZM4.64976 19.8841L5.0094 20.2314L4.64976 19.8841ZM6.42698 19.0486L6.46298 19.5473L6.89664 19.516L6.92586 19.0822L6.42698 19.0486ZM9.01107 16.3731L9.04703 16.8718L9.48073 16.8406L9.50994 16.4067L9.01107 16.3731ZM11.5952 13.6977L11.6312 14.1964L12.0648 14.1651L12.094 13.7313L11.5952 13.6977ZM14.1793 11.0222L14.2153 11.5209L14.6489 11.4896L14.6782 11.0558L14.1793 11.0222ZM16.7635 8.34666L16.7995 8.84536L17.2332 8.81406L17.2624 8.38025L16.7635 8.34666ZM19.3477 5.67117L19.3836 6.16987L19.8173 6.1386L19.8465 5.70476L19.3477 5.67117ZM20.1546 3.83118L20.5142 4.17854L20.1546 3.83118ZM22.0535 2.98935L22.0665 3.48919L22.4811 3.47842L22.5471 3.069L22.0535 2.98935ZM22.828 1.42868L22.4684 1.08132V1.08132L22.828 1.42868ZM26.8506 1.46927L27.2103 1.12191L26.8506 1.46927ZM27.6924 3.32589L27.1942 3.36876L27.2301 3.78533L27.6464 3.82377L27.6924 3.32589ZM30.3274 6.05404L29.8292 6.09695L29.8651 6.51348L30.2814 6.55192L30.3274 6.05404ZM32.1206 6.92551L32.4802 6.57815V6.57814L32.1206 6.92551ZM32.442 7.32058L32.0291 7.6026L32.4485 8.21662L32.8589 7.59655L32.442 7.32058ZM32.7686 6.91316L32.409 6.5658V6.5658L32.7686 6.91316ZM34.6676 6.07134L34.6805 6.57117L35.0951 6.56044L35.1612 6.15108L34.6676 6.07134ZM35.4421 4.51073L35.8018 4.85809V4.85809L35.4421 4.51073ZM39.4648 4.55131L39.1051 4.89867V4.89867L39.4648 4.55131ZM40.3065 6.40799L39.8084 6.45086L39.8442 6.86743L40.2606 6.90588L40.3065 6.40799ZM42.9416 9.1362L42.4434 9.17911L42.4793 9.59568L42.8957 9.63409L42.9416 9.1362ZM45.5766 11.8644L45.0784 11.9073L45.1143 12.3238L45.5306 12.3622L45.5766 11.8644ZM48.2117 14.5926L47.7135 14.6355L47.7494 15.052L48.1657 15.0904L48.2117 14.5926ZM50.0049 15.464L50.3645 15.1167L50.0049 15.464ZM50.0441 19.6288L50.4037 19.9761L50.0441 19.6288ZM48.3462 20.456L48.2945 19.9587L47.8879 20.0009L47.8485 20.4078L48.3462 20.456ZM47.5471 22.2141L47.9068 22.5614L47.9068 22.5614L47.5471 22.2141ZM31.7049 18.4647L31.8081 17.9755L31.0683 17.8195L31.2143 18.5613L31.7049 18.4647ZM31.8891 19.4014L31.3985 19.4979L31.3986 19.4979L31.8891 19.4014ZM32.6094 18.6555L32.7127 18.1663L32.7126 18.1663L32.6094 18.6555ZM34.0474 18.2145L34.407 18.5618L34.407 18.5618L34.0474 18.2145ZM34.4871 16.8051L33.9926 16.8788V16.8788L34.4871 16.8051ZM34.3601 15.9531L34.439 15.4594L33.765 15.3517L33.8656 16.0268L34.3601 15.9531ZM35.1831 16.0846L35.262 15.5908L35.2619 15.5908L35.1831 16.0846ZM36.5443 15.6293L36.9039 15.9767L36.9039 15.9767L36.5443 15.6293ZM36.5222 13.281L36.8818 12.9336L36.5222 13.281ZM35.0757 12.8108L34.9816 12.3197L34.9816 12.3197L35.0757 12.8108ZM34.1744 12.9834L33.6822 12.8955L33.5543 13.6114L34.2685 13.4745L34.1744 12.9834ZM34.3412 12.0503L33.849 11.9623L33.849 11.9624L34.3412 12.0503ZM33.887 10.5527L34.2467 10.2053V10.2053L33.887 10.5527ZM32.4405 10.0824L32.3465 9.59134L32.3464 9.59136L32.4405 10.0824ZM31.5393 10.2551L31.0471 10.1671L30.9191 10.883L31.6334 10.7462L31.5393 10.2551ZM31.7061 9.32203L32.1983 9.41001L32.1983 9.40998L31.7061 9.32203ZM31.2519 7.82441L30.8923 8.17177L31.2519 7.82441ZM29.8054 7.35422L29.7114 6.86313L29.7114 6.86314L29.8054 7.35422ZM28.9043 7.52684L28.4121 7.43888L28.2841 8.15471L28.9983 8.01791L28.9043 7.52684ZM29.071 6.59382L29.5632 6.68177V6.68177L29.071 6.59382ZM28.6168 5.0962L28.2572 5.44356L28.6168 5.0962ZM27.1703 4.62595L27.0763 4.13486L27.0762 4.13488L27.1703 4.62595ZM26.2691 4.79863L25.7769 4.71065L25.6489 5.42655L26.3632 5.28969L26.2691 4.79863ZM26.4359 3.86555L26.9281 3.95353L26.9281 3.9535L26.4359 3.86555ZM25.9817 2.36793L25.6221 2.7153L25.6221 2.7153L25.9817 2.36793ZM23.7135 2.34505L23.3539 1.99769V1.99769L23.7135 2.34505ZM23.2617 3.64557L22.7635 3.68805V3.68807L23.2617 3.64557ZM23.3354 4.50988L23.2199 4.99638L23.8923 5.15589L23.8336 4.46739L23.3354 4.50988ZM22.5164 4.31559L22.401 4.80208L22.401 4.80209L22.5164 4.31559ZM21.0402 4.74749L21.3998 5.09485L21.3998 5.09485L21.0402 4.74749ZM20.6142 6.23628L21.1048 6.13975L21.1048 6.13969L20.6142 6.23628ZM20.7985 7.17278L20.6953 7.66202L21.435 7.81804L21.2891 7.07625L20.7985 7.17278ZM19.8939 6.982L19.7907 7.47123L19.7907 7.47124L19.8939 6.982ZM18.4559 7.4231L18.0963 7.07574L18.4559 7.4231ZM18.0299 8.91177L18.5205 8.8152L18.5205 8.81516L18.0299 8.91177ZM18.2143 9.8484L18.1111 10.3376L18.8509 10.4937L18.7049 9.75182L18.2143 9.8484ZM17.3097 9.65761L17.2064 10.1468L17.2065 10.1469L17.3097 9.65761ZM15.4456 11.5876L15.9362 11.491L15.9362 11.491L15.4456 11.5876ZM15.6299 12.5242L15.5266 13.0134L16.2664 13.1695L16.1205 12.4277L15.6299 12.5242ZM14.7252 12.3333L14.622 12.8225L14.622 12.8225L14.7252 12.3333ZM13.2874 12.7743L12.9278 12.427L13.2874 12.7743ZM12.8614 14.2632L13.3519 14.1666L13.3519 14.1666L12.8614 14.2632ZM13.0456 15.1997L12.9424 15.6889L13.6822 15.8449L13.5362 15.1031L13.0456 15.1997ZM12.1411 15.0089L12.0378 15.4981L12.0379 15.4981L12.1411 15.0089ZM10.7031 15.45L11.0627 15.7973L10.7031 15.45ZM10.2771 16.9388L10.7677 16.8423L10.7677 16.8422L10.2771 16.9388ZM10.4614 17.8753L10.3582 18.3645L11.0979 18.5205L10.952 17.7788L10.4614 17.8753ZM9.55683 17.6845L9.45358 18.1737L9.45365 18.1737L9.55683 17.6845ZM8.11881 18.1256L7.75918 17.7782H7.75917L8.11881 18.1256ZM7.69283 19.6143L8.18342 19.5177L8.18341 19.5177L7.69283 19.6143ZM7.87722 20.5509L7.77404 21.0401L8.51384 21.1962L8.3678 20.4543L7.87722 20.5509ZM6.97257 20.3601L6.86932 20.8493L6.8694 20.8494L6.97257 20.3601ZM5.53455 20.8012L5.89419 21.1486H5.89419L5.53455 20.8012ZM5.12701 22.3725L5.61231 22.2521L5.6123 22.2521L5.12701 22.3725ZM5.34855 23.2659L5.28831 23.7623L6.00845 23.8497L5.83385 23.1456L5.34855 23.2659ZM4.46588 23.1588L4.40559 23.6551L4.40564 23.6551L4.46588 23.1588ZM3.16329 23.6218L3.52293 23.9692H3.52293L3.16329 23.6218ZM3.18539 25.9702L2.82575 26.3176H2.82576L3.18539 25.9702ZM4.63188 26.4404L4.72594 26.9315L4.72597 26.9315L4.63188 26.4404ZM5.5331 26.2677L6.0253 26.3557L6.15326 25.6398L5.43901 25.7767L5.5331 26.2677ZM5.36631 27.2008L4.87411 27.1128L4.8741 27.1129L5.36631 27.2008ZM5.82052 28.6985L5.46088 29.0458H5.46088L5.82052 28.6985ZM7.267 29.1687L7.36099 29.6598L7.36106 29.6598L7.267 29.1687ZM8.16816 28.9961L8.66037 29.084L8.78828 28.3682L8.0741 28.505L8.16816 28.9961ZM8.00143 29.9291L7.50923 29.8411L7.50923 29.8411L8.00143 29.9291ZM8.45558 31.4267L8.09594 31.7741H8.09594L8.45558 31.4267ZM9.90206 31.8969L9.99612 32.388L9.99615 32.388L9.90206 31.8969ZM10.8033 31.7242L11.2955 31.8122L11.4234 31.0963L10.7092 31.2331L10.8033 31.7242ZM10.6365 32.6573L10.1443 32.5693L10.1443 32.5694L10.6365 32.6573ZM11.0907 34.155L10.7311 34.5023L10.7311 34.5023L11.0907 34.155ZM12.5372 34.6252L12.4431 34.1341H12.4431L12.5372 34.6252ZM13.4385 34.4525L13.9307 34.5405L14.0586 33.8247L13.3444 33.9615L13.4385 34.4525ZM13.2717 35.3856L12.7795 35.2976L12.7795 35.2977L13.2717 35.3856ZM13.7258 36.8832L13.3662 37.2306L13.3662 37.2306L13.7258 36.8832ZM15.994 36.9061L16.3536 37.2535L16.3536 37.2535L15.994 36.9061ZM16.4256 35.4506L15.9332 35.5377L15.9332 35.5377L16.4256 35.4506ZM16.2665 34.5504L16.3595 34.0592L15.6481 33.9244L15.7741 34.6374L16.2665 34.5504ZM17.136 34.7151L17.2291 34.2239L17.229 34.2239L17.136 34.7151ZM18.5418 34.2683L18.9014 34.6157V34.6157L18.5418 34.2683ZM18.9678 32.7795L18.4772 32.876L18.4772 32.876L18.9678 32.7795ZM18.7835 31.8428L18.8868 31.3536L18.147 31.1975L18.2929 31.9394L18.7835 31.8428ZM19.6882 32.0337L19.7914 31.5445L19.7914 31.5445L19.6882 32.0337ZM21.126 31.5927L21.4856 31.9401L21.126 31.5927ZM21.552 30.1039L21.0615 30.2004L21.0615 30.2004L21.552 30.1039ZM21.3678 29.1674L21.471 28.6781L20.7312 28.5221L20.8772 29.2639L21.3678 29.1674ZM22.2723 29.3581L22.3756 28.8689L22.3755 28.8689L22.2723 29.3581ZM24.1363 27.4282L23.6457 27.5248L23.6457 27.5248L24.1363 27.4282ZM23.952 26.4917L24.0552 26.0025L23.3155 25.8465L23.4614 26.5883L23.952 26.4917ZM24.8566 26.6825L24.9598 26.1933L24.9598 26.1933L24.8566 26.6825ZM26.2946 26.2414L26.6542 26.5888H26.6542L26.2946 26.2414ZM26.7206 24.7528L26.23 24.8493L26.23 24.8494L26.7206 24.7528ZM26.5362 23.8161L26.6394 23.3269L25.8996 23.1709L26.0456 23.9127L26.5362 23.8161ZM27.4408 24.0069L27.5441 23.5177L27.544 23.5177L27.4408 24.0069ZM29.3049 22.077L28.8143 22.1735L28.8143 22.1736L29.3049 22.077ZM29.1206 21.1403L29.2239 20.6511L28.4841 20.495L28.63 21.2369L29.1206 21.1403ZM30.0253 21.3312L30.1285 20.842L30.1285 20.842L30.0253 21.3312ZM31.4631 20.8902L31.8227 21.2376L31.4631 20.8902ZM47.1011 19.8875L47.5956 19.8137L47.5955 19.8134L47.1011 19.8875ZM46.9736 19.0366L47.0524 18.5428L46.3779 18.4352L46.4791 19.1107L46.9736 19.0366ZM46.6613 21.2968L47.021 21.6442L46.6613 21.2968ZM45.2234 21.7379L45.3266 21.2486L45.3265 21.2486L45.2234 21.7379ZM44.3188 21.5471L44.422 21.0578L43.6823 20.9018L43.8282 21.6436L44.3188 21.5471ZM44.5031 22.4836L44.0125 22.5801L44.0125 22.5802L44.5031 22.4836ZM44.077 23.9724L43.7174 23.6251L43.7174 23.6251L44.077 23.9724ZM42.639 24.4135L42.7423 23.9243L42.7422 23.9243L42.639 24.4135ZM41.7344 24.2227L41.8376 23.7335L41.0978 23.5775L41.2438 24.3193L41.7344 24.2227ZM41.9188 25.1594L41.4282 25.2559L41.4282 25.256L41.9188 25.1594ZM41.4928 26.648L41.1332 26.3007L41.1331 26.3007L41.4928 26.648ZM40.0548 27.0891L40.158 26.5999L40.158 26.5999L40.0548 27.0891ZM39.1502 26.8984L39.2534 26.4091L38.5137 26.2531L38.6597 26.9949L39.1502 26.8984ZM39.3345 27.8349L38.8439 27.9314L38.8439 27.9314L39.3345 27.8349ZM38.9085 29.3236L38.5489 28.9763L38.5489 28.9763L38.9085 29.3236ZM37.4705 29.7647L37.5738 29.2755L37.5737 29.2755L37.4705 29.7647ZM36.566 29.574L36.6692 29.0847L35.9294 28.9287L36.0754 29.6705L36.566 29.574ZM36.7503 30.5105L36.2597 30.607L36.2597 30.6071L36.7503 30.5105ZM36.3242 31.9993L36.6839 32.3467L36.3242 31.9993ZM34.8864 32.4404L34.9896 31.9511L34.9896 31.9511L34.8864 32.4404ZM33.9817 32.2495L34.085 31.7602L33.3452 31.6041L33.4911 32.346L33.9817 32.2495ZM34.166 33.1861L33.6754 33.2826L33.6754 33.2827L34.166 33.1861ZM33.74 34.6749L34.0996 35.0223V35.0223L33.74 34.6749ZM32.3019 35.116L32.4052 34.6268L32.4051 34.6268L32.3019 35.116ZM31.3973 34.9252L31.5005 34.436L30.7607 34.28L30.9067 35.0218L31.3973 34.9252ZM31.5817 35.8619L31.0911 35.9584L31.0911 35.9585L31.5817 35.8619ZM31.1557 37.3505L30.7961 37.0032H30.7961L31.1557 37.3505ZM29.7499 37.7974L29.8431 37.3061L29.843 37.3061L29.7499 37.7974ZM28.8805 37.6326L28.9736 37.1413L28.2621 37.0065L28.3881 37.7196L28.8805 37.6326ZM29.0395 38.5327L28.5471 38.6197L28.5471 38.6197L29.0395 38.5327ZM28.6079 39.9883L28.9675 40.3356V40.3356L28.6079 39.9883ZM26.3397 39.9654L26.6993 39.618L26.6993 39.618L26.3397 39.9654ZM25.8856 38.4678L25.3934 38.3798L25.3934 38.3798L25.8856 38.4678ZM26.0523 37.5347L26.5445 37.6227L26.6725 36.9068L25.9583 37.0436L26.0523 37.5347ZM25.1511 37.7074L25.2451 38.1985L25.2452 38.1984L25.1511 37.7074ZM23.7046 37.2371L23.3449 37.5845L23.3449 37.5845L23.7046 37.2371ZM23.2504 35.7395L22.7582 35.6515L22.7582 35.6516L23.2504 35.7395ZM23.4172 34.8064L23.9094 34.8944L24.0374 34.1785L23.3231 34.3154L23.4172 34.8064ZM22.516 34.9791L22.6101 35.4702L22.6101 35.4702L22.516 34.9791ZM21.0695 34.5089L21.4292 34.1616L21.4292 34.1616L21.0695 34.5089ZM20.5892 33.2956L20.4882 32.8059L20.0936 32.8873L20.0893 33.2902L20.5892 33.2956ZM22.0114 32.5097L21.6517 32.1624L22.0114 32.5097ZM22.8183 30.6697L22.7823 30.171L22.3486 30.2023L22.3194 30.6362L22.8183 30.6697ZM24.5955 29.8343L24.2358 29.4869L24.5955 29.8343ZM25.4024 27.9943L25.3663 27.4956L24.9327 27.527L24.9035 27.9607L25.4024 27.9943ZM27.1796 27.1588L26.82 26.8114H26.82L27.1796 27.1588ZM27.9865 25.3188L27.9505 24.8201L27.5169 24.8515L27.4877 25.2852L27.9865 25.3188ZM29.7638 24.4833L29.4041 24.136H29.4041L29.7638 24.4833ZM30.5707 22.6433L30.5348 22.1446L30.1011 22.1758L30.0719 22.6096L30.5707 22.6433ZM32.3479 21.8078L31.9883 21.4605H31.9883L32.3479 21.8078ZM33.1549 19.9678L33.1189 19.4691L32.6852 19.5003L32.656 19.9342L33.1549 19.9678ZM34.9321 19.1323L35.2917 19.4797L34.9321 19.1323ZM35.7311 17.3743L35.6795 16.877L35.2729 16.9192L35.2334 17.3261L35.7311 17.3743ZM37.4291 16.5471L37.7887 16.8944L37.4291 16.5471ZM37.3899 12.3822L37.7495 12.0349V12.0349L37.3899 12.3822ZM35.5966 11.5107L35.0985 11.5537L35.1343 11.9702L35.5507 12.0086L35.5966 11.5107ZM34.7549 9.65413L35.1146 9.30677V9.30676L34.7549 9.65413ZM33.2032 8.81584L32.7056 8.76688L32.6605 9.22527L33.1137 9.30776L33.2032 8.81584ZM33.6536 7.83084L33.294 7.48348L33.294 7.48349L33.6536 7.83084ZM35.1299 7.399L35.0144 7.88548L35.0145 7.8855L35.1299 7.399ZM35.9489 7.5933L35.8334 8.07979L36.5058 8.2393L36.4471 7.55081L35.9489 7.5933ZM35.8751 6.72899L35.377 6.77147V6.77148L35.8751 6.72899ZM36.327 5.42847L36.6867 5.77583V5.77583L36.327 5.42847ZM38.5952 5.45135L38.9549 5.10399L38.9549 5.10399L38.5952 5.45135ZM39.0494 6.94896L39.5416 7.03694L39.5416 7.03691L39.0494 6.94896ZM38.8826 7.88204L38.3904 7.79406L38.2624 8.50997L38.9767 8.37311L38.8826 7.88204ZM39.7838 7.70936L39.6897 7.21829L39.6897 7.21829L39.7838 7.70936ZM41.2303 8.17956L41.5899 7.8322L41.5899 7.8322L41.2303 8.17956ZM41.6845 9.67723L42.1767 9.76521L42.1767 9.76513L41.6845 9.67723ZM41.5177 10.6103L41.0255 10.5223L40.8975 11.2382L41.6118 11.1014L41.5177 10.6103ZM42.4189 10.4376L42.3249 9.94656L42.3248 9.94656L42.4189 10.4376ZM43.8654 10.9078L44.225 10.5605V10.5605L43.8654 10.9078ZM44.3195 12.4054L44.8117 12.4934L44.8118 12.4934L44.3195 12.4054ZM44.1528 13.3385L43.6606 13.2505L43.5326 13.9664L44.2469 13.8296L44.1528 13.3385ZM45.054 13.1658L44.96 12.6748L44.9599 12.6748L45.054 13.1658ZM46.5005 13.636L46.1408 13.9834H46.1408L46.5005 13.636ZM46.9547 15.1337L47.4469 15.2217L47.4469 15.2216L46.9547 15.1337ZM46.7879 16.0668L46.2957 15.9788L46.1677 16.6947L46.882 16.5579L46.7879 16.0668ZM47.6891 15.8941L47.595 15.403L47.595 15.403L47.6891 15.8941ZM49.1356 16.3643L49.4952 16.0169L49.1356 16.3643ZM49.1577 18.7127L49.5173 19.06L49.1577 18.7127ZM47.7965 19.1679L47.8754 18.6742L47.8753 18.6742L47.7965 19.1679ZM45.3224 25.2369C45.8873 24.6519 46.2147 23.8857 46.2688 23.0832L45.2711 23.0159C45.2323 23.5919 44.998 24.1333 44.6031 24.5422L45.3224 25.2369ZM43.2215 26.2237C44.0101 26.1668 44.7568 25.8224 45.3224 25.2369L44.6031 24.5422C44.2087 24.9504 43.6926 25.1871 43.1495 25.2263L43.2215 26.2237ZM42.7382 27.9124C43.3033 27.3273 43.6303 26.5611 43.6844 25.7586L42.6866 25.6914C42.6478 26.2676 42.4138 26.8089 42.0189 27.2176L42.7382 27.9124ZM40.6373 28.8992C41.4258 28.8423 42.1726 28.4979 42.7382 27.9124L42.0189 27.2176C41.6246 27.6259 41.1083 27.8626 40.5653 27.9018L40.6373 28.8992ZM40.1541 30.5879C40.7191 30.0029 41.0461 29.2365 41.1002 28.4341L40.1025 28.3669C40.0636 28.9431 39.8295 29.4844 39.4348 29.8931L40.1541 30.5879ZM38.0532 31.5747C38.8416 31.5178 39.5885 31.1734 40.1541 30.5879L39.4348 29.8931C39.0405 30.3014 38.5242 30.5381 37.9812 30.5773L38.0532 31.5747ZM37.5699 33.2634C38.1349 32.6784 38.462 31.912 38.5161 31.1096L37.5183 31.0424C37.4795 31.6185 37.2453 32.16 36.8506 32.5687L37.5699 33.2634ZM35.4691 34.2501C36.2576 34.1933 37.0044 33.8489 37.5699 33.2634L36.8506 32.5687C36.4563 32.9769 35.9401 33.2136 35.3972 33.2527L35.4691 34.2501ZM34.9858 35.9388C35.5508 35.3539 35.8779 34.5876 35.932 33.7851L34.9342 33.7178C34.8954 34.2941 34.6613 34.8354 34.2665 35.2441L34.9858 35.9388ZM32.885 36.9256C33.6735 36.8687 34.4203 36.5243 34.9858 35.9388L34.2665 35.2441C33.8722 35.6523 33.356 35.889 32.813 35.9282L32.885 36.9256ZM32.4017 38.6143C32.9667 38.0292 33.2938 37.263 33.3478 36.4605L32.3501 36.3933C32.3113 36.9695 32.0772 37.5108 31.6824 37.9196L32.4017 38.6143ZM30.3401 39.5969C31.1142 39.531 31.8473 39.1883 32.4017 38.6143L31.6824 37.9196C31.297 38.3186 30.7898 38.555 30.2553 38.6005L30.3401 39.5969ZM29.8539 41.2521C30.4078 40.6786 30.7336 39.9261 30.7961 39.1382L29.7992 39.0591C29.7542 39.6259 29.5205 40.1579 29.1347 40.5574L29.8539 41.2521ZM25.112 41.2115C26.4217 42.5674 28.5525 42.5996 29.8539 41.2521L29.1347 40.5574C28.2397 41.4839 26.7613 41.4797 25.8313 40.5168L25.112 41.2115ZM24.1318 39.0504C24.2008 39.8527 24.5413 40.6206 25.112 41.2115L25.8313 40.5168C25.4233 40.0944 25.1779 39.5429 25.1281 38.9646L24.1318 39.0504ZM22.477 38.4833C23.0481 39.0746 23.796 39.4326 24.584 39.5054L24.6759 38.5096C24.1303 38.4593 23.6039 38.2106 23.1963 37.7886L22.477 38.4833ZM21.4968 36.3223C21.5659 37.1246 21.9063 37.8924 22.477 38.4833L23.1963 37.7886C22.7884 37.3663 22.5429 36.8148 22.4931 36.2365L21.4968 36.3223ZM19.8421 35.7553C20.4132 36.3466 21.161 36.7046 21.949 36.7772L22.0409 35.7815C21.4954 35.7312 20.969 35.4826 20.5613 35.0605L19.8421 35.7553ZM19.3084 35.039C19.4537 35.2966 19.6321 35.5379 19.8421 35.7553L20.5613 35.0605C20.4117 34.9056 20.2839 34.733 20.1795 34.5478L19.3084 35.039ZM19.7877 35.5321C19.9263 35.3886 20.0499 35.2345 20.1589 35.0724L19.329 34.5144C19.2517 34.6295 19.1648 34.7376 19.0684 34.8374L19.7877 35.5321ZM17.726 36.5147C18.5002 36.4488 19.2333 36.1061 19.7877 35.5321L19.0684 34.8374C18.683 35.2364 18.1758 35.4728 17.6413 35.5183L17.726 36.5147ZM17.2399 38.1699C17.7938 37.5964 18.1197 36.8441 18.1821 36.056L17.1852 35.977C17.1403 36.5439 16.9066 37.0756 16.5207 37.4752L17.2399 38.1699ZM12.498 38.1293C13.8077 39.4853 15.9385 39.5174 17.2399 38.1699L16.5207 37.4752C15.6257 38.4018 14.1473 38.3975 13.2173 37.4346L12.498 38.1293ZM11.5178 35.9682C11.5868 36.7706 11.9273 37.5384 12.498 38.1293L13.2173 37.4346C12.8093 37.0122 12.5639 36.4607 12.5141 35.8825L11.5178 35.9682ZM9.86307 35.4012C10.4342 35.9926 11.182 36.3505 11.97 36.4232L12.0619 35.4275C11.5163 35.3771 10.99 35.1286 10.5823 34.7065L9.86307 35.4012ZM8.88278 33.2401C8.95189 34.0425 9.29229 34.8103 9.86307 35.4012L10.5823 34.7065C10.1743 34.2841 9.92891 33.7326 9.87909 33.1543L8.88278 33.2401ZM7.22806 32.6731C7.79914 33.2644 8.54702 33.6224 9.33501 33.6951L9.42687 32.6993C8.88139 32.649 8.35493 32.4004 7.94734 31.9784L7.22806 32.6731ZM6.24784 30.512C6.31695 31.3144 6.65734 32.0822 7.22806 32.6731L7.94734 31.9784C7.53941 31.556 7.29396 31.0046 7.24415 30.4262L6.24784 30.512ZM4.59312 29.945C5.16421 30.5363 5.91203 30.8942 6.70002 30.967L6.79196 29.9712C6.24637 29.9208 5.71997 29.6723 5.3124 29.2503L4.59312 29.945ZM3.61283 27.7839C3.68194 28.5862 4.0224 29.3541 4.59312 29.945L5.3124 29.2503C4.90445 28.8279 4.65896 28.2764 4.60914 27.6981L3.61283 27.7839ZM1.95811 27.2169C2.52926 27.8082 3.27708 28.1662 4.06506 28.2388L4.15692 27.2431C3.61143 27.1928 3.08503 26.9442 2.67739 26.5221L1.95811 27.2169ZM1.91891 22.3573C0.627517 23.6943 0.657223 25.87 1.95811 27.2169L2.67739 26.5221C1.73862 25.5502 1.73315 23.989 2.63819 23.052L1.91891 22.3573ZM3.7626 21.3992C3.06653 21.5051 2.42176 21.8367 1.91891 22.3573L2.63819 23.052C2.98999 22.6878 3.43539 22.4605 3.91296 22.3879L3.7626 21.3992ZM4.29012 19.5367C3.68121 20.1671 3.35014 21.0177 3.33783 21.8865L4.33773 21.9006C4.34663 21.2722 4.58665 20.6691 5.0094 20.2314L4.29012 19.5367ZM6.39099 18.5499C5.60241 18.6068 4.85568 18.9512 4.29012 19.5367L5.0094 20.2314C5.40373 19.8232 5.91993 19.5865 6.46298 19.5473L6.39099 18.5499ZM6.87427 16.8612C6.30927 17.4462 5.98215 18.2125 5.92811 19.015L6.92586 19.0822C6.96465 18.506 7.19877 17.9647 7.59354 17.5559L6.87427 16.8612ZM8.97512 15.8744C8.18655 15.9313 7.43976 16.2757 6.87427 16.8612L7.59354 17.5559C7.98783 17.1477 8.50408 16.911 9.04703 16.8718L8.97512 15.8744ZM9.45835 14.1858C8.89336 14.7708 8.56624 15.537 8.5122 16.3395L9.50994 16.4067C9.54874 15.8305 9.78286 15.2892 10.1776 14.8805L9.45835 14.1858ZM11.5592 13.199C10.7707 13.2559 10.0239 13.6003 9.45835 14.1858L10.1776 14.8805C10.5719 14.4723 11.0882 14.2356 11.6312 14.1964L11.5592 13.199ZM12.0425 11.5103C11.4774 12.0953 11.1504 12.8617 11.0963 13.6641L12.094 13.7313C12.1329 13.1552 12.367 12.6138 12.7618 12.205L12.0425 11.5103ZM14.1433 10.5235C13.3548 10.5804 12.6081 10.9248 12.0425 11.5103L12.7618 12.205C13.1561 11.7967 13.6723 11.5601 14.2153 11.5209L14.1433 10.5235ZM14.6266 8.8348C14.0616 9.41984 13.7345 10.186 13.6804 10.9886L14.6782 11.0558C14.717 10.4796 14.9511 9.9383 15.3459 9.52952L14.6266 8.8348ZM16.7275 7.84796C15.9389 7.90488 15.1922 8.24925 14.6266 8.8348L15.3459 9.52952C15.7403 9.12125 16.2564 8.88456 16.7995 8.84536L16.7275 7.84796ZM17.2108 6.15931C16.6457 6.74435 16.3187 7.51055 16.2646 8.31307L17.2624 8.38025C17.3012 7.80407 17.5352 7.26282 17.9301 6.85403L17.2108 6.15931ZM19.3117 5.17246C18.5231 5.22932 17.7763 5.57378 17.2108 6.15931L17.9301 6.85403C18.3244 6.44575 18.8407 6.20902 19.3836 6.16987L19.3117 5.17246ZM19.7949 3.48382C19.2299 4.06879 18.9028 4.83505 18.8488 5.63758L19.8465 5.70476C19.8853 5.12858 20.1194 4.58727 20.5142 4.17854L19.7949 3.48382ZM22.0405 2.48952C21.1993 2.51137 20.3973 2.86015 19.7949 3.48382L20.5142 4.17854C20.9351 3.74274 21.4884 3.5042 22.0665 3.48919L22.0405 2.48952ZM22.4684 1.08132C21.9825 1.58434 21.6705 2.2244 21.5599 2.90971L22.5471 3.069C22.6263 2.57868 22.8483 2.12736 23.1876 1.77604L22.4684 1.08132ZM27.2103 1.12191C25.9006 -0.234033 23.7698 -0.266168 22.4684 1.08132L23.1876 1.77604C24.0826 0.849451 25.561 0.853731 26.491 1.81663L27.2103 1.12191ZM28.1905 3.28302C28.1215 2.48067 27.781 1.71279 27.2103 1.12191L26.491 1.81663C26.899 2.239 27.1444 2.79051 27.1942 3.36876L28.1905 3.28302ZM29.8453 3.85006C29.2742 3.25879 28.5263 2.90076 27.7383 2.82801L27.6464 3.82377C28.192 3.87414 28.7184 4.12279 29.126 4.54478L29.8453 3.85006ZM30.8255 6.01113C30.7564 5.20877 30.416 4.44096 29.8453 3.85006L29.126 4.54478C29.5339 4.96713 29.7794 5.51859 29.8292 6.09695L30.8255 6.01113ZM32.4802 6.57814C31.9091 5.98686 31.1613 5.62891 30.3733 5.55616L30.2814 6.55192C30.827 6.60229 31.3534 6.85089 31.761 7.27287L32.4802 6.57814ZM32.8549 7.03857C32.7443 6.87664 32.6194 6.72228 32.4802 6.57815L31.761 7.27286C31.8598 7.37518 31.9492 7.4856 32.0291 7.6026L32.8549 7.03857ZM32.409 6.5658C32.2652 6.71465 32.1372 6.87515 32.0251 7.04462L32.8589 7.59655C32.9382 7.4768 33.028 7.36429 33.1283 7.26052L32.409 6.5658ZM34.6547 5.57151C33.8132 5.59328 33.0113 5.94216 32.409 6.5658L33.1283 7.26053C33.5492 6.8247 34.1024 6.58613 34.6805 6.57117L34.6547 5.57151ZM35.0825 4.16337C34.5966 4.6664 34.2847 5.30637 34.174 5.9916L35.1612 6.15108C35.2404 5.66067 35.4624 5.20939 35.8018 4.85809L35.0825 4.16337ZM39.8244 4.20395C38.5148 2.84801 36.384 2.81588 35.0825 4.16337L35.8018 4.85809C36.6967 3.93149 38.1751 3.93578 39.1051 4.89867L39.8244 4.20395ZM40.8047 6.36512C40.7356 5.56277 40.3952 4.79489 39.8244 4.20395L39.1051 4.89867C39.5131 5.32111 39.7586 5.87262 39.8084 6.45086L40.8047 6.36512ZM42.4594 6.9321C41.8883 6.34075 41.1405 5.98287 40.3525 5.91011L40.2606 6.90588C40.8062 6.95625 41.3325 7.20479 41.7401 7.62682L42.4594 6.9321ZM43.4398 9.0933C43.3706 8.29091 43.0302 7.52305 42.4594 6.9321L41.7401 7.62682C42.1481 8.04925 42.3936 8.60077 42.4434 9.17911L43.4398 9.0933ZM45.0945 9.66031C44.5233 9.06898 43.7755 8.71101 42.9875 8.63832L42.8957 9.63409C43.4412 9.68441 43.9676 9.93298 44.3752 10.355L45.0945 9.66031ZM46.0748 11.8214C46.0056 11.0191 45.6653 10.2513 45.0945 9.66031L44.3752 10.355C44.7832 10.7775 45.0286 11.3289 45.0784 11.9073L46.0748 11.8214ZM47.7295 12.3885C47.1583 11.7971 46.4106 11.4392 45.6226 11.3665L45.5306 12.3622C46.0762 12.4126 46.6026 12.6611 47.0102 13.0832L47.7295 12.3885ZM48.7098 14.5496C48.6406 13.7472 48.3003 12.9794 47.7295 12.3885L47.0102 13.0832C47.4182 13.5056 47.6636 14.0571 47.7135 14.6355L48.7098 14.5496ZM50.3645 15.1167C49.7934 14.5253 49.0456 14.1674 48.2576 14.0947L48.1657 15.0904C48.7112 15.1408 49.2376 15.3893 49.6453 15.8114L50.3645 15.1167ZM50.4037 19.9761C51.6951 18.6391 51.6654 16.4636 50.3645 15.1167L49.6453 15.8114C50.584 16.7833 50.5895 18.3444 49.6845 19.2814L50.4037 19.9761ZM48.3978 20.9533C49.1512 20.8751 49.8646 20.5343 50.4037 19.9761L49.6845 19.2814C49.3107 19.6684 48.8162 19.9045 48.2945 19.9587L48.3978 20.9533ZM47.9068 22.5614C48.4454 22.0037 48.7695 21.2713 48.8438 20.5042L47.8485 20.4078C47.7949 20.9608 47.5617 21.4792 47.1875 21.8668L47.9068 22.5614ZM45.8059 23.5482C46.5945 23.4914 47.3413 23.1469 47.9068 22.5614L47.1875 21.8667C46.7932 22.2749 46.277 22.5117 45.734 22.5508L45.8059 23.5482ZM31.2143 18.5613L31.3985 19.4979L32.3797 19.3048L32.1955 18.3682L31.2143 18.5613ZM32.7126 18.1663L31.8081 17.9755L31.6017 18.954L32.5062 19.1447L32.7126 18.1663ZM33.6877 17.8671C33.4332 18.1306 33.0704 18.2418 32.7127 18.1663L32.5061 19.1447C33.2011 19.2914 33.9135 19.0728 34.407 18.5618L33.6877 17.8671ZM33.9926 16.8788C34.0488 17.256 33.9337 17.6125 33.6877 17.8671L34.407 18.5618C34.8766 18.0756 35.082 17.4047 34.9817 16.7314L33.9926 16.8788ZM33.8656 16.0268L33.9926 16.8788L34.9817 16.7314L34.8547 15.8794L33.8656 16.0268ZM35.2619 15.5908L34.439 15.4594L34.2813 16.4468L35.1042 16.5783L35.2619 15.5908ZM36.1846 15.282C35.9401 15.5351 35.6075 15.646 35.262 15.5908L35.1042 16.5783C35.7732 16.6852 36.433 16.4642 36.9039 15.9767L36.1846 15.282ZM36.1625 13.6283C36.6129 14.0946 36.6107 14.8408 36.1846 15.282L36.9039 15.9767C37.7164 15.1355 37.6942 13.7747 36.8818 12.9336L36.1625 13.6283ZM35.1697 13.3018C35.5227 13.2342 35.8944 13.3507 36.1625 13.6283L36.8818 12.9336C36.3871 12.4214 35.6773 12.1864 34.9816 12.3197L35.1697 13.3018ZM34.2685 13.4745L35.1698 13.3018L34.9816 12.3197L34.0804 12.4924L34.2685 13.4745ZM33.849 11.9624L33.6822 12.8955L34.6667 13.0714L34.8334 12.1382L33.849 11.9624ZM33.5274 10.9C33.7967 11.1788 33.9179 11.5766 33.849 11.9623L34.8334 12.1382C34.9585 11.4383 34.7401 10.7162 34.2467 10.2053L33.5274 10.9ZM32.5345 10.5735C32.8876 10.5059 33.2593 10.6224 33.5274 10.9L34.2467 10.2053C33.7519 9.69311 33.0422 9.45818 32.3465 9.59134L32.5345 10.5735ZM31.6334 10.7462L32.5346 10.5735L32.3464 9.59136L31.4452 9.76404L31.6334 10.7462ZM31.2139 9.23405L31.0471 10.1671L32.0315 10.3431L32.1983 9.41001L31.2139 9.23405ZM30.8923 8.17177C31.1616 8.45061 31.2828 8.84832 31.2139 9.23407L32.1983 9.40998C32.3233 8.71004 32.1051 7.98803 31.6115 7.47705L30.8923 8.17177ZM29.8994 7.8453C30.2525 7.77772 30.6242 7.89425 30.8923 8.17177L31.6115 7.47705C31.1169 6.96489 30.4071 6.72998 29.7114 6.86313L29.8994 7.8453ZM28.9983 8.01791L29.8995 7.84529L29.7114 6.86314L28.8102 7.03577L28.9983 8.01791ZM28.5788 6.50586L28.4121 7.43888L29.3965 7.61479L29.5632 6.68177L28.5788 6.50586ZM28.2572 5.44356C28.5265 5.72235 28.6477 6.12012 28.5788 6.50586L29.5632 6.68177C29.6883 5.98182 29.4699 5.25975 28.9765 4.74884L28.2572 5.44356ZM27.2643 5.11703C27.6174 5.04945 27.9891 5.16597 28.2572 5.44356L28.9765 4.74884C28.4818 4.23663 27.772 4.0017 27.0763 4.13486L27.2643 5.11703ZM26.3632 5.28969L27.2644 5.11701L27.0762 4.13488L26.175 4.30756L26.3632 5.28969ZM25.9437 3.77757L25.7769 4.71065L26.7613 4.88661L26.9281 3.95353L25.9437 3.77757ZM25.6221 2.7153C25.8914 2.99413 26.0126 3.39184 25.9437 3.7776L26.9281 3.9535C27.0531 3.25357 26.8349 2.53155 26.3414 2.02057L25.6221 2.7153ZM24.0732 2.69241C24.4891 2.26177 25.1805 2.25807 25.6221 2.7153L26.3414 2.02057C25.5201 1.17028 24.1763 1.14617 23.3539 1.99769L24.0732 2.69241ZM23.7598 3.6031C23.7302 3.25557 23.8484 2.92513 24.0732 2.69241L23.3539 1.99769C22.9214 2.44552 22.7102 3.06324 22.7635 3.68805L23.7598 3.6031ZM23.8336 4.46739L23.7598 3.60308L22.7635 3.68807L22.8372 4.55237L23.8336 4.46739ZM22.401 4.80209L23.2199 4.99638L23.4508 4.02339L22.6318 3.82909L22.401 4.80209ZM21.3998 5.09485C21.6618 4.82358 22.0331 4.71479 22.401 4.80208L22.6319 3.8291C21.9208 3.66038 21.1882 3.87452 20.6805 4.40013L21.3998 5.09485ZM21.1048 6.13969C21.0279 5.74917 21.1437 5.36005 21.3998 5.09485L20.6805 4.40013C20.1887 4.90937 19.9859 5.63346 20.1236 6.33287L21.1048 6.13969ZM21.2891 7.07625L21.1048 6.13975L20.1236 6.33281L20.3079 7.26931L21.2891 7.07625ZM19.7907 7.47124L20.6953 7.66202L20.9016 6.68355L19.9971 6.49277L19.7907 7.47124ZM18.8155 7.77046C19.0701 7.50691 19.4329 7.39573 19.7907 7.47123L19.9972 6.49278C19.3022 6.3461 18.5897 6.56484 18.0963 7.07574L18.8155 7.77046ZM18.5205 8.81516C18.4436 8.42478 18.5593 8.03573 18.8155 7.77046L18.0963 7.07574C17.6044 7.58504 17.4016 8.30907 17.5394 9.00838L18.5205 8.81516ZM18.7049 9.75182L18.5205 8.8152L17.5393 9.00835L17.7237 9.94497L18.7049 9.75182ZM17.2065 10.1469L18.1111 10.3376L18.3175 9.35916L17.4128 9.16838L17.2065 10.1469ZM16.2313 10.4461C16.4858 10.1825 16.8487 10.0713 17.2064 10.1468L17.4129 9.16839C16.7179 9.02171 16.0055 9.24045 15.512 9.75135L16.2313 10.4461ZM15.9362 11.491C15.8593 11.1005 15.9751 10.7113 16.2313 10.4461L15.512 9.75135C15.0202 10.2606 14.8173 10.9847 14.955 11.6842L15.9362 11.491ZM16.1205 12.4277L15.9362 11.491L14.955 11.6841L15.1393 12.6207L16.1205 12.4277ZM14.622 12.8225L15.5266 13.0134L15.7331 12.035L14.8285 11.8441L14.622 12.8225ZM13.647 13.1217C13.9016 12.8581 14.2643 12.747 14.622 12.8225L14.8285 11.8441C14.1336 11.6974 13.4213 11.916 12.9278 12.427L13.647 13.1217ZM13.3519 14.1666C13.2751 13.7761 13.3909 13.3869 13.647 13.1217L12.9278 12.427C12.4359 12.9362 12.2331 13.6603 12.3708 14.3598L13.3519 14.1666ZM13.5362 15.1031L13.3519 14.1666L12.3708 14.3597L12.555 15.2962L13.5362 15.1031ZM12.0379 15.4981L12.9424 15.6889L13.1488 14.7104L12.2443 14.5197L12.0379 15.4981ZM11.0627 15.7973C11.3173 15.5338 11.6801 15.4226 12.0378 15.4981L12.2443 14.5197C11.5494 14.373 10.8369 14.5917 10.3434 15.1026L11.0627 15.7973ZM10.7677 16.8422C10.6908 16.4517 10.8066 16.0626 11.0627 15.7973L10.3434 15.1026C9.85158 15.6119 9.64881 16.336 9.78651 17.0354L10.7677 16.8422ZM10.952 17.7788L10.7677 16.8423L9.7865 17.0353L9.97077 17.9718L10.952 17.7788ZM9.45365 18.1737L10.3582 18.3645L10.5646 17.386L9.66002 17.1953L9.45365 18.1737ZM8.47845 18.473C8.73301 18.2094 9.09585 18.0982 9.45358 18.1737L9.66009 17.1953C8.9651 17.0486 8.25263 17.2673 7.75918 17.7782L8.47845 18.473ZM8.18341 19.5177C8.10653 19.1273 8.22224 18.7382 8.47845 18.473L7.75917 17.7782C7.26727 18.2875 7.06454 19.0116 7.20226 19.7109L8.18341 19.5177ZM8.3678 20.4543L8.18342 19.5177L7.20225 19.7108L7.38663 20.6475L8.3678 20.4543ZM6.8694 20.8494L7.77404 21.0401L7.98039 20.0617L7.07575 19.8709L6.8694 20.8494ZM5.89419 21.1486C6.14875 20.885 6.51159 20.7738 6.86932 20.8493L7.07583 19.8709C6.38084 19.7242 5.66837 19.943 5.17492 20.4538L5.89419 21.1486ZM5.6123 22.2521C5.51011 21.8402 5.6212 21.4312 5.89419 21.1486L5.17492 20.4538C4.65358 20.9936 4.45979 21.7595 4.64172 22.4929L5.6123 22.2521ZM5.83385 23.1456L5.61231 22.2521L4.64171 22.4928L4.86325 23.3862L5.83385 23.1456ZM4.40564 23.6551L5.28831 23.7623L5.4088 22.7695L4.52613 22.6624L4.40564 23.6551ZM3.52293 23.9692C3.75564 23.7283 4.0752 23.615 4.40559 23.6551L4.52617 22.6624C3.88366 22.5844 3.25348 22.8088 2.80365 23.2745L3.52293 23.9692ZM3.54503 25.6229C3.09464 25.1565 3.09681 24.4104 3.52293 23.9692L2.80365 23.2745C1.99116 24.1157 2.01327 25.4764 2.82575 26.3176L3.54503 25.6229ZM4.53781 25.9493C4.18485 26.0169 3.81316 25.9005 3.54503 25.6229L2.82576 26.3176C3.32047 26.8298 4.03028 27.0647 4.72594 26.9315L4.53781 25.9493ZM5.43901 25.7767L4.53778 25.9493L4.72597 26.9315L5.62719 26.7588L5.43901 25.7767ZM5.85851 27.2888L6.0253 26.3557L5.0409 26.1798L4.87411 27.1128L5.85851 27.2888ZM6.18016 28.3511C5.91089 28.0723 5.78963 27.6746 5.85853 27.2887L4.8741 27.1129C4.74911 27.8129 4.96741 28.5349 5.46088 29.0458L6.18016 28.3511ZM7.173 28.6776C6.81991 28.7452 6.4482 28.6286 6.18015 28.3511L5.46088 29.0458C5.95556 29.558 6.66534 29.7929 7.36099 29.6598L7.173 28.6776ZM8.0741 28.505L7.17293 28.6776L7.36106 29.6598L8.26223 29.4871L8.0741 28.505ZM8.49364 30.017L8.66037 29.084L7.67596 28.9081L7.50923 29.8411L8.49364 30.017ZM8.81522 31.0793C8.54595 30.8005 8.42471 30.4028 8.49364 30.017L7.50923 29.8411C7.38416 30.5411 7.60248 31.2632 8.09594 31.7741L8.81522 31.0793ZM9.808 31.4058C9.45503 31.4734 9.08335 31.3569 8.81522 31.0793L8.09594 31.7741C8.59066 32.2863 9.30046 32.5212 9.99612 32.388L9.808 31.4058ZM10.7092 31.2331L9.80797 31.4058L9.99615 32.388L10.8974 32.2153L10.7092 31.2331ZM11.1287 32.7453L11.2955 31.8122L10.3111 31.6362L10.1443 32.5693L11.1287 32.7453ZM11.4503 33.8076C11.1811 33.5288 11.0598 33.131 11.1287 32.7452L10.1443 32.5694C10.0193 33.2694 10.2376 33.9914 10.7311 34.5023L11.4503 33.8076ZM12.4431 34.1341C12.0902 34.2017 11.7184 34.0852 11.4503 33.8076L10.7311 34.5023C11.2257 35.0145 11.9356 35.2495 12.6312 35.1162L12.4431 34.1341ZM13.3444 33.9615L12.4431 34.1341L12.6312 35.1162L13.5325 34.9436L13.3444 33.9615ZM13.7639 35.4736L13.9307 34.5405L12.9463 34.3646L12.7795 35.2976L13.7639 35.4736ZM14.0855 36.5359C13.8162 36.2571 13.695 35.8593 13.7639 35.4736L12.7795 35.2977C12.6544 35.9976 12.8727 36.7197 13.3662 37.2306L14.0855 36.5359ZM15.6344 36.5588C15.2184 36.9894 14.5271 36.9931 14.0855 36.5359L13.3662 37.2306C14.1874 38.0809 15.5312 38.105 16.3536 37.2535L15.6344 36.5588ZM15.9332 35.5377C16.0008 35.92 15.8835 36.3008 15.6344 36.5588L16.3536 37.2535C16.8338 36.7563 17.0391 36.049 16.9179 35.3636L15.9332 35.5377ZM15.7741 34.6374L15.9332 35.5377L16.9179 35.3636L16.7588 34.4634L15.7741 34.6374ZM17.229 34.2239L16.3595 34.0592L16.1734 35.0417L17.0429 35.2064L17.229 34.2239ZM18.1821 33.921C17.9345 34.1774 17.5791 34.2903 17.2291 34.2239L17.0428 35.2064C17.724 35.3356 18.4197 35.1144 18.9014 34.6157L18.1821 33.921ZM18.4772 32.876C18.5541 33.2665 18.4383 33.6557 18.1821 33.921L18.9014 34.6157C19.3932 34.1064 19.5961 33.3823 19.4584 32.6829L18.4772 32.876ZM18.2929 31.9394L18.4772 32.876L19.4584 32.6829L19.2741 31.7463L18.2929 31.9394ZM19.7914 31.5445L18.8868 31.3536L18.6803 32.3321L19.5849 32.523L19.7914 31.5445ZM20.7664 31.2453C20.5118 31.5089 20.1491 31.62 19.7914 31.5445L19.5849 32.523C20.2798 32.6696 20.9921 32.451 21.4856 31.9401L20.7664 31.2453ZM21.0615 30.2004C21.1383 30.5909 21.0225 30.9801 20.7664 31.2453L21.4856 31.9401C21.9775 31.4308 22.1803 30.7067 22.0426 30.0073L21.0615 30.2004ZM20.8772 29.2639L21.0615 30.2004L22.0426 30.0073L21.8584 29.0708L20.8772 29.2639ZM22.3755 28.8689L21.471 28.6781L21.2646 29.6566L22.1691 29.8474L22.3755 28.8689ZM23.3506 28.5697C23.0961 28.8333 22.7333 28.9444 22.3756 28.8689L22.1691 29.8474C22.864 29.994 23.5764 29.7754 24.0699 29.2645L23.3506 28.5697ZM23.6457 27.5248C23.7226 27.9153 23.6068 28.3045 23.3506 28.5697L24.0699 29.2645C24.5617 28.7552 24.7646 28.0311 24.6269 27.3317L23.6457 27.5248ZM23.4614 26.5883L23.6457 27.5248L24.6269 27.3317L24.4426 26.3952L23.4614 26.5883ZM24.9598 26.1933L24.0552 26.0025L23.8489 26.981L24.7534 27.1718L24.9598 26.1933ZM25.9349 25.8941C25.6804 26.1576 25.3176 26.2688 24.9598 26.1933L24.7533 27.1717C25.4483 27.3184 26.1608 27.0997 26.6542 26.5888L25.9349 25.8941ZM26.23 24.8494C26.3069 25.2397 26.1912 25.6288 25.9349 25.8941L26.6542 26.5888C27.1461 26.0795 27.3489 25.3555 27.2111 24.6561L26.23 24.8494ZM26.0456 23.9127L26.23 24.8493L27.2112 24.6562L27.0268 23.7196L26.0456 23.9127ZM27.544 23.5177L26.6394 23.3269L26.433 24.3054L27.3377 24.4961L27.544 23.5177ZM28.5192 23.2185C28.2647 23.482 27.9018 23.5932 27.5441 23.5177L27.3376 24.4961C28.0326 24.6428 28.745 24.4241 29.2385 23.9132L28.5192 23.2185ZM28.8143 22.1736C28.8912 22.564 28.7754 22.9532 28.5192 23.2185L29.2385 23.9132C29.7303 23.404 29.9332 22.6798 29.7955 21.9804L28.8143 22.1736ZM28.63 21.2369L28.8143 22.1735L29.7955 21.9804L29.6112 21.0438L28.63 21.2369ZM30.1285 20.842L29.2239 20.6511L29.0174 21.6296L29.922 21.8205L30.1285 20.842ZM31.1035 20.5428C30.8489 20.8064 30.4862 20.9175 30.1285 20.842L29.922 21.8205C30.6169 21.9671 31.3292 21.7485 31.8227 21.2376L31.1035 20.5428ZM31.3986 19.4979C31.4754 19.8884 31.3596 20.2776 31.1035 20.5428L31.8227 21.2376C32.3146 20.7283 32.5174 20.0042 32.3797 19.3048L31.3986 19.4979ZM47.5955 19.8134L47.4681 18.9625L46.4791 19.1107L46.6066 19.9615L47.5955 19.8134ZM47.021 21.6442C47.4906 21.1579 47.696 20.4871 47.5956 19.8137L46.6065 19.9612C46.6627 20.3384 46.5476 20.6948 46.3017 20.9495L47.021 21.6442ZM45.1201 22.2271C45.8151 22.3738 46.5275 22.1551 47.021 21.6442L46.3017 20.9495C46.0471 21.213 45.6844 21.3241 45.3266 21.2486L45.1201 22.2271ZM44.2156 22.0363L45.1202 22.2271L45.3265 21.2486L44.422 21.0578L44.2156 22.0363ZM44.9937 22.387L44.8094 21.4505L43.8282 21.6436L44.0125 22.5801L44.9937 22.387ZM44.4367 24.3198C44.9285 23.8106 45.1314 23.0864 44.9937 22.387L44.0125 22.5802C44.0894 22.9707 43.9736 23.3598 43.7174 23.6251L44.4367 24.3198ZM42.5358 24.9027C43.2308 25.0494 43.9432 24.8307 44.4367 24.3198L43.7174 23.6251C43.4629 23.8886 43.1 23.9998 42.7423 23.9243L42.5358 24.9027ZM41.6312 24.712L42.5359 24.9028L42.7422 23.9243L41.8376 23.7335L41.6312 24.712ZM42.4094 25.0628L42.225 24.1262L41.2438 24.3193L41.4282 25.2559L42.4094 25.0628ZM41.8524 26.9954C42.3443 26.4861 42.5471 25.7621 42.4093 25.0627L41.4282 25.256C41.5051 25.6464 41.3894 26.0354 41.1332 26.3007L41.8524 26.9954ZM39.9515 27.5784C40.6465 27.725 41.359 27.5063 41.8524 26.9954L41.1331 26.3007C40.8786 26.5642 40.5158 26.6754 40.158 26.5999L39.9515 27.5784ZM39.0471 27.3876L39.9516 27.5784L40.158 26.5999L39.2534 26.4091L39.0471 27.3876ZM39.8251 27.7383L39.6408 26.8018L38.6597 26.9949L38.8439 27.9314L39.8251 27.7383ZM39.2682 29.671C39.76 29.1618 39.9628 28.4377 39.8251 27.7383L38.8439 27.9314C38.9208 28.322 38.805 28.7111 38.5489 28.9763L39.2682 29.671ZM37.3673 30.254C38.0622 30.4006 38.7747 30.1819 39.2682 29.671L38.5489 28.9763C38.2943 29.2398 37.9315 29.351 37.5738 29.2755L37.3673 30.254ZM36.4628 30.0632L37.3673 30.254L37.5737 29.2755L36.6692 29.0847L36.4628 30.0632ZM37.2408 30.4139L37.0566 29.4774L36.0754 29.6705L36.2597 30.607L37.2408 30.4139ZM36.6839 32.3467C37.1757 31.8375 37.3785 31.1133 37.2408 30.4139L36.2597 30.6071C36.3366 30.9975 36.2207 31.3867 35.9646 31.652L36.6839 32.3467ZM34.7831 32.9296C35.478 33.0763 36.1903 32.8577 36.6839 32.3467L35.9646 31.652C35.71 31.9156 35.3473 32.0266 34.9896 31.9511L34.7831 32.9296ZM33.8785 32.7387L34.7831 32.9296L34.9896 31.9511L34.085 31.7602L33.8785 32.7387ZM34.6566 33.0896L34.4723 32.1529L33.4911 32.346L33.6754 33.2826L34.6566 33.0896ZM34.0996 35.0223C34.5914 34.5131 34.7943 33.7889 34.6566 33.0895L33.6754 33.2827C33.7523 33.6732 33.6365 34.0623 33.3803 34.3276L34.0996 35.0223ZM32.1987 35.6052C32.8937 35.7519 33.6061 35.5332 34.0996 35.0223L33.3803 34.3276C33.1258 34.5911 32.7629 34.7023 32.4052 34.6268L32.1987 35.6052ZM31.2941 35.4145L32.1988 35.6053L32.4051 34.6268L31.5005 34.436L31.2941 35.4145ZM32.0723 35.7653L31.8879 34.8287L30.9067 35.0218L31.0911 35.9584L32.0723 35.7653ZM31.5153 37.6979C32.0072 37.1886 32.21 36.4646 32.0723 35.7653L31.0911 35.9585C31.168 36.3489 31.0523 36.7379 30.7961 37.0032L31.5153 37.6979ZM29.6567 38.2886C30.3379 38.4178 31.0336 38.1967 31.5153 37.6979L30.7961 37.0032C30.5484 37.2596 30.1931 37.3725 29.8431 37.3061L29.6567 38.2886ZM28.7874 38.1238L29.6568 38.2886L29.843 37.3061L28.9736 37.1413L28.7874 38.1238ZM29.5319 38.4458L29.3729 37.5456L28.3881 37.7196L28.5471 38.6197L29.5319 38.4458ZM28.9675 40.3356C29.4477 39.8385 29.653 39.1312 29.5319 38.4457L28.5471 38.6197C28.6147 39.0021 28.4973 39.383 28.2483 39.6409L28.9675 40.3356ZM25.9801 40.3128C26.8013 41.163 28.1451 41.1872 28.9675 40.3356L28.2483 39.6409C27.8323 40.0716 27.141 40.0753 26.6993 39.618L25.9801 40.3128ZM25.3934 38.3798C25.2683 39.0798 25.4866 39.8019 25.9801 40.3128L26.6993 39.618C26.4301 39.3392 26.3088 38.9415 26.3778 38.5557L25.3934 38.3798ZM25.5602 37.4467L25.3934 38.3798L26.3778 38.5558L26.5445 37.6227L25.5602 37.4467ZM25.2452 38.1984L26.1464 38.0258L25.9583 37.0436L25.057 37.2163L25.2452 38.1984ZM23.3449 37.5845C23.8397 38.0967 24.5495 38.3316 25.2451 38.1985L25.0571 37.2163C24.7041 37.2839 24.3323 37.1674 24.0642 36.8898L23.3449 37.5845ZM22.7582 35.6516C22.6332 36.3515 22.8515 37.0736 23.3449 37.5845L24.0642 36.8898C23.795 36.611 23.6737 36.2132 23.7426 35.8275L22.7582 35.6516ZM22.925 34.7185L22.7582 35.6515L23.7426 35.8275L23.9094 34.8944L22.925 34.7185ZM22.6101 35.4702L23.5113 35.2975L23.3231 34.3154L22.4219 34.488L22.6101 35.4702ZM20.7099 34.8563C21.2046 35.3685 21.9144 35.6034 22.6101 35.4702L22.4219 34.488C22.069 34.5556 21.6973 34.4392 21.4292 34.1616L20.7099 34.8563ZM20.0893 33.2902C20.0831 33.8677 20.3018 34.4338 20.7099 34.8563L21.4292 34.1616C21.2073 33.9319 21.0858 33.6207 21.0892 33.301L20.0893 33.2902ZM21.6517 32.1624C21.3282 32.4973 20.9228 32.7162 20.4882 32.8059L20.6903 33.7853C21.3213 33.6551 21.9072 33.3373 22.371 32.8571L21.6517 32.1624ZM22.3194 30.6362C22.2807 31.2123 22.0466 31.7536 21.6517 32.1624L22.371 32.8571C22.9361 32.2721 23.2632 31.5058 23.3172 30.7033L22.3194 30.6362ZM24.2358 29.4869C23.8415 29.8952 23.3253 30.1319 22.7823 30.171L22.8543 31.1684C23.6428 31.1116 24.3896 30.7671 24.9551 30.1817L24.2358 29.4869ZM24.9035 27.9607C24.8647 28.5368 24.6306 29.0782 24.2358 29.4869L24.9551 30.1817C25.5202 29.5966 25.8472 28.8303 25.9013 28.0279L24.9035 27.9607ZM26.82 26.8114C26.4257 27.2196 25.9094 27.4564 25.3663 27.4956L25.4384 28.493C26.2269 28.436 26.9737 28.0917 27.5393 27.5062L26.82 26.8114ZM27.4877 25.2852C27.4489 25.8614 27.2148 26.4027 26.82 26.8114L27.5393 27.5062C28.1043 26.9211 28.4314 26.1549 28.4854 25.3524L27.4877 25.2852ZM29.4041 24.136C29.0098 24.5442 28.4937 24.7809 27.9505 24.8201L28.0226 25.8175C28.8112 25.7605 29.5578 25.4162 30.1234 24.8307L29.4041 24.136ZM30.0719 22.6096C30.033 23.1859 29.7989 23.7272 29.4041 24.136L30.1234 24.8307C30.6885 24.2456 31.0155 23.4794 31.0696 22.6769L30.0719 22.6096ZM31.9883 21.4605C31.594 21.8687 31.0777 22.1054 30.5348 22.1446L30.6067 23.142C31.3953 23.0851 32.1421 22.7407 32.7075 22.1552L31.9883 21.4605ZM32.656 19.9342C32.6173 20.5103 32.3831 21.0517 31.9883 21.4605L32.7075 22.1552C33.2726 21.5702 33.5998 20.8039 33.6538 20.0013L32.656 19.9342ZM34.5724 18.785C34.1781 19.1932 33.6619 19.4299 33.1189 19.4691L33.1908 20.4665C33.9794 20.4096 34.7262 20.0652 35.2917 19.4797L34.5724 18.785ZM35.2334 17.3261C35.1799 17.8791 34.9467 18.3975 34.5724 18.785L35.2917 19.4797C35.8303 18.922 36.1545 18.1896 36.2288 17.4225L35.2334 17.3261ZM37.0694 16.1997C36.6957 16.5867 36.2011 16.8228 35.6795 16.877L35.7828 17.8716C36.5361 17.7934 37.2496 17.4526 37.7887 16.8944L37.0694 16.1997ZM37.0302 12.7296C37.969 13.7015 37.9745 15.2627 37.0694 16.1997L37.7887 16.8944C39.0801 15.5574 39.0504 13.3817 37.7495 12.0349L37.0302 12.7296ZM35.5507 12.0086C36.0962 12.059 36.6226 12.3075 37.0302 12.7296L37.7495 12.0349C37.1784 11.4435 36.4305 11.0856 35.6426 11.0129L35.5507 12.0086ZM34.3953 10.0015C34.8032 10.4238 35.0487 10.9753 35.0985 11.5537L36.0948 11.4678C36.0257 10.6655 35.6852 9.8976 35.1146 9.30677L34.3953 10.0015ZM33.1137 9.30776C33.5874 9.394 34.0372 9.63073 34.3953 10.0015L35.1146 9.30676C34.6128 8.78724 33.9748 8.44808 33.2928 8.32393L33.1137 9.30776ZM33.294 7.48349C32.9543 7.83519 32.7526 8.28978 32.7056 8.76688L33.7008 8.8648C33.7266 8.60308 33.8363 8.3614 34.0132 8.1782L33.294 7.48349ZM35.2454 6.91253C34.5341 6.74364 33.8016 6.9579 33.294 7.48348L34.0132 8.17821C34.2753 7.90691 34.6465 7.79812 35.0144 7.88548L35.2454 6.91253ZM36.0643 7.1068L35.2453 6.91251L35.0145 7.8855L35.8334 8.07979L36.0643 7.1068ZM35.377 6.77148L35.4507 7.63579L36.4471 7.55081L36.3733 6.6865L35.377 6.77148ZM35.9674 5.0811C35.5349 5.52894 35.3237 6.14666 35.377 6.77147L36.3733 6.68651C36.3437 6.33898 36.4619 6.00855 36.6867 5.77583L35.9674 5.0811ZM38.9549 5.10399C38.1336 4.25371 36.7899 4.22952 35.9674 5.08111L36.6867 5.77583C37.1027 5.34514 37.794 5.34147 38.2356 5.79871L38.9549 5.10399ZM39.5416 7.03691C39.6666 6.33697 39.4483 5.61489 38.9549 5.10399L38.2356 5.79871C38.5048 6.0775 38.6261 6.47527 38.5572 6.86101L39.5416 7.03691ZM39.3748 7.97002L39.5416 7.03694L38.5572 6.86098L38.3904 7.79406L39.3748 7.97002ZM39.6897 7.21829L38.7885 7.39098L38.9767 8.37311L39.8779 8.20043L39.6897 7.21829ZM41.5899 7.8322C41.0953 7.32007 40.3854 7.08503 39.6897 7.21829L39.8779 8.20043C40.2308 8.13283 40.6026 8.24936 40.8706 8.52692L41.5899 7.8322ZM42.1767 9.76513C42.3017 9.06517 42.0834 8.34311 41.5899 7.8322L40.8706 8.52692C41.1399 8.8057 41.2612 9.20349 41.1923 9.58934L42.1767 9.76513ZM42.0099 10.6983L42.1767 9.76521L41.1923 9.58925L41.0255 10.5223L42.0099 10.6983ZM42.3248 9.94656L41.4236 10.1192L41.6118 11.1014L42.513 10.9287L42.3248 9.94656ZM44.225 10.5605C43.7303 10.0483 43.0205 9.81331 42.3249 9.94656L42.513 10.9287C42.866 10.8611 43.2376 10.9776 43.5058 11.2552L44.225 10.5605ZM44.8118 12.4934C44.9368 11.7935 44.7186 11.0714 44.225 10.5605L43.5058 11.2552C43.7751 11.534 43.8963 11.9317 43.8273 12.3175L44.8118 12.4934ZM44.645 13.4265L44.8117 12.4934L43.8274 12.3175L43.6606 13.2505L44.645 13.4265ZM44.9599 12.6748L44.0587 12.8475L44.2469 13.8296L45.1481 13.6569L44.9599 12.6748ZM46.8601 13.2887C46.3654 12.7765 45.6556 12.5416 44.96 12.6748L45.148 13.6569C45.5011 13.5893 45.8728 13.7059 46.1408 13.9834L46.8601 13.2887ZM47.4469 15.2216C47.5719 14.5216 47.3536 13.7996 46.8601 13.2887L46.1408 13.9834C46.4101 14.2622 46.5314 14.66 46.4625 15.0458L47.4469 15.2216ZM47.2801 16.1548L47.4469 15.2217L46.4625 15.0457L46.2957 15.9788L47.2801 16.1548ZM47.595 15.403L46.6938 15.5757L46.882 16.5579L47.7832 16.3852L47.595 15.403ZM49.4952 16.0169C49.0005 15.5047 48.2907 15.2698 47.595 15.403L47.7832 16.3852C48.1361 16.3176 48.5078 16.4341 48.776 16.7117L49.4952 16.0169ZM49.5173 19.06C50.3298 18.2188 50.3076 16.8581 49.4952 16.0169L48.776 16.7117C49.2263 17.1779 49.2242 17.9241 48.7981 18.3653L49.5173 19.06ZM47.7176 19.6616C48.3867 19.7685 49.0464 19.5476 49.5173 19.06L48.7981 18.3653C48.5535 18.6185 48.221 18.7294 47.8754 18.6742L47.7176 19.6616ZM46.8948 19.5303L47.7177 19.6617L47.8753 18.6742L47.0524 18.5428L46.8948 19.5303Z" fill="#4D4D4D" mask="url(#path-17-outside-1)"/>
</svg>
