<svg width="46" height="44" viewBox="0 0 46 44" fill="none" xmlns="http://www.w3.org/2000/svg">
<mask id="path-1-outside-1" maskUnits="userSpaceOnUse" x="0" y="0.112251" width="46" height="44" fill="black">
<rect fill="white" y="0.112251" width="46" height="44"/>
<path fill-rule="evenodd" clip-rule="evenodd" d="M44.6259 21.8538C44.7018 21.957 44.7473 22.0836 44.7499 22.2224L44.75 22.2345V42.2475C44.7502 42.6013 44.4637 42.8878 44.1105 42.8878H1.63965C1.28645 42.8878 1.00003 42.6011 1.00003 42.2476V22.2384C0.999642 22.1953 1.00348 22.153 1.01154 22.111C1.03367 21.996 1.0865 21.8919 1.16134 21.8077C1.20931 21.7535 1.26662 21.7073 1.33224 21.6712C1.39467 21.6369 1.46337 21.6127 1.53628 21.6009L25.0052 17.3297C24.622 16.5906 24.4054 15.7517 24.4054 14.8631C24.4054 12.1418 26.4372 9.88646 29.0621 9.53753C29.0891 8.55283 29.1905 7.3525 29.4575 6.1167C30.1114 3.08899 31.8906 1.36148 31.9659 1.28939C32.2214 1.04507 32.6262 1.05481 32.8702 1.31039C33.1137 1.56585 33.1047 1.97023 32.8504 2.21454C32.8285 2.2358 31.2739 3.76637 30.7077 6.38727C30.4659 7.50642 30.3718 8.60853 30.3448 9.52088C33.0363 9.80771 35.1397 12.0941 35.1397 14.8629C35.1397 15.0756 35.1273 15.2855 35.1031 15.4918L35.6257 15.3967C35.7223 15.3791 35.8216 15.384 35.916 15.411C36.0091 15.4376 38.2235 16.0833 40.6136 17.8376C42.9518 19.5541 44.5094 21.6917 44.6259 21.8538ZM29.1372 11.9101C29.1323 11.8676 29.0882 11.4676 29.0663 10.8322C27.1476 11.1681 25.6846 12.8477 25.6846 14.8631C25.6846 17.1194 27.5184 18.955 29.7726 18.955C32.0267 18.955 33.8606 17.1194 33.8606 14.8631C33.8606 12.8021 32.3304 11.0923 30.3477 10.8115C30.3678 11.3965 30.4071 11.7556 30.4081 11.7652C30.4479 12.1164 30.1957 12.4336 29.8448 12.4734C29.4942 12.5133 29.1772 12.2613 29.1372 11.9101ZM25.6918 18.5062C26.7065 19.6929 28.2034 20.3906 29.7726 20.3906C32.0391 20.3906 34.0592 18.9518 34.8201 16.8449L35.6998 16.6848C36.1946 16.8469 37.974 17.4881 39.8571 18.8702C41.095 19.7789 42.1131 20.8355 42.7716 21.5926H8.73316L25.6918 18.5062ZM2.27927 41.61H43.4708V36.6508C43.2976 36.6713 43.1231 36.6817 42.9478 36.6817C41.8905 36.6817 40.8766 36.3039 40.0803 35.6282C39.2838 36.3039 38.2699 36.6817 37.2127 36.6817C36.1555 36.6817 35.1415 36.3039 34.3452 35.6282C33.5486 36.3039 32.5348 36.6817 31.4777 36.6817C30.4204 36.6817 29.4064 36.3039 28.6101 35.6282C27.8137 36.3039 26.7997 36.6817 25.7426 36.6817C24.6853 36.6817 23.6714 36.3039 22.875 35.6282C22.0784 36.3039 21.0646 36.6817 20.0074 36.6817C18.9501 36.6817 17.9363 36.3041 17.1398 35.6282C16.3434 36.3039 15.3296 36.6817 14.2723 36.6817C13.215 36.6817 12.2012 36.3041 11.4047 35.6282C10.6083 36.3039 9.59447 36.6817 8.53718 36.6817C7.47989 36.6817 6.46609 36.3041 5.66963 35.6282C4.87318 36.3039 3.85938 36.6817 2.80209 36.6817C2.62684 36.6817 2.45222 36.6713 2.27914 36.6508L2.27927 41.61ZM43.4709 35.3578C43.2986 35.3866 43.1239 35.4012 42.948 35.4012C42.0334 35.4012 41.1643 35.0039 40.5633 34.311C40.4419 34.1709 40.2656 34.0905 40.0804 34.0905C39.8952 34.0905 39.719 34.1709 39.5975 34.3109C38.9963 35.0037 38.1271 35.4012 37.2129 35.4012C36.2983 35.4012 35.4292 35.0039 34.8282 34.311C34.7068 34.1709 34.5306 34.0905 34.3453 34.0905C34.1601 34.0905 33.9839 34.1709 33.8624 34.3109C33.2612 35.0037 32.3921 35.4012 31.4778 35.4012C30.5633 35.4012 29.6941 35.0039 29.0932 34.311C28.9718 34.1709 28.7955 34.0905 28.6102 34.0905C28.425 34.0905 28.2489 34.1709 28.1273 34.3109C27.5261 35.0037 26.657 35.4012 25.7427 35.4012C24.8282 35.4012 23.9591 35.0039 23.3581 34.311C23.2367 34.1709 23.0604 34.0905 22.8752 34.0905C22.6899 34.0905 22.5138 34.1709 22.3922 34.3109C21.7911 35.0037 20.9219 35.4012 20.0076 35.4012C19.0932 35.4012 18.2241 35.0039 17.623 34.311C17.5016 34.1709 17.3253 34.0905 17.1401 34.0905C16.9548 34.0905 16.7787 34.1709 16.6572 34.311C16.056 35.0037 15.1869 35.4012 14.2725 35.4012C13.3581 35.4012 12.489 35.0039 11.8879 34.311C11.7665 34.1709 11.5902 34.0905 11.405 34.0905C11.2197 34.0905 11.0436 34.1709 10.9221 34.311C10.321 35.0037 9.45184 35.4012 8.53743 35.4012C7.62303 35.4012 6.75392 35.0039 6.1528 34.311C6.0314 34.1709 5.85512 34.0905 5.66989 34.0905C5.48466 34.0905 5.30851 34.1709 5.18698 34.311C4.58586 35.0037 3.71662 35.4012 2.80235 35.4012C2.62645 35.4012 2.45171 35.3867 2.27939 35.3578V29.1227C2.45171 29.0939 2.62645 29.0793 2.80235 29.0793C3.71662 29.0793 4.58574 29.4766 5.18698 30.1695C5.30851 30.3096 5.48466 30.39 5.66989 30.39C5.85512 30.39 6.03128 30.3096 6.1528 30.1695C6.75405 29.4768 7.62316 29.0793 8.53743 29.0793C9.45171 29.0793 10.3208 29.4766 10.9221 30.1695C11.0436 30.3096 11.2197 30.39 11.405 30.39C11.5902 30.39 11.7664 30.3096 11.8879 30.1695C12.4891 29.4768 13.3582 29.0793 14.2725 29.0793C15.1868 29.0793 16.0559 29.4766 16.6572 30.1695C16.7787 30.3096 16.9548 30.39 17.1401 30.39C17.3253 30.39 17.5015 30.3096 17.623 30.1695C18.2242 29.4768 19.0933 29.0793 20.0076 29.0793C20.9219 29.0793 21.7911 29.4768 22.3924 30.1696C22.5138 30.3096 22.6899 30.39 22.8752 30.39C23.0604 30.39 23.2365 30.3096 23.3581 30.1695C23.9592 29.4768 24.8284 29.0793 25.7427 29.0793C26.657 29.0793 27.5262 29.4768 28.1273 30.1696C28.2489 30.3096 28.425 30.39 28.6102 30.39C28.7955 30.39 28.9716 30.3096 29.0932 30.1695C29.6943 29.4768 30.5635 29.0793 31.4778 29.0793C32.3921 29.0793 33.2613 29.4768 33.8624 30.1696C33.9839 30.3096 34.1601 30.39 34.3453 30.39C34.5306 30.39 34.7067 30.3096 34.8282 30.1695C35.4294 29.4768 36.2986 29.0793 37.2129 29.0793C38.1271 29.0793 38.9964 29.4768 39.5976 30.1696C39.719 30.3096 39.8952 30.39 40.0804 30.39C40.2656 30.39 40.4418 30.3096 40.5633 30.1695C41.1644 29.4768 42.0337 29.0793 42.948 29.0793C43.1239 29.0793 43.2986 29.0938 43.4709 29.1227V35.3578ZM42.948 27.7987C43.1232 27.7987 43.2977 27.8091 43.4709 27.8296V23H2.27927V27.8296C2.45235 27.8091 2.62696 27.7987 2.80222 27.7987C3.85938 27.7987 4.87331 28.1764 5.66976 28.8521C6.46622 28.1764 7.48014 27.7987 8.53731 27.7987C9.59447 27.7987 10.6084 28.1764 11.4049 28.8521C12.2013 28.1764 13.2152 27.7987 14.2724 27.7987C15.3296 27.7987 16.3435 28.1764 17.1399 28.8521C17.9364 28.1764 18.9503 27.7987 20.0075 27.7987C21.0646 27.7987 22.0786 28.1764 22.8752 28.8521C23.6716 28.1764 24.6854 27.7987 25.7427 27.7987C26.7999 27.7987 27.8137 28.1764 28.6102 28.8521C29.4067 28.1763 30.4205 27.7987 31.4778 27.7987C32.535 27.7987 33.5487 28.1764 34.3453 28.8521C35.1418 28.1764 36.1556 27.7987 37.2129 27.7987C38.27 27.7987 39.2838 28.1764 40.0804 28.8521C40.8769 28.1763 41.8907 27.7987 42.948 27.7987Z"/>
</mask>
<path fill-rule="evenodd" clip-rule="evenodd" d="M44.6259 21.8538C44.7018 21.957 44.7473 22.0836 44.7499 22.2224L44.75 22.2345V42.2475C44.7502 42.6013 44.4637 42.8878 44.1105 42.8878H1.63965C1.28645 42.8878 1.00003 42.6011 1.00003 42.2476V22.2384C0.999642 22.1953 1.00348 22.153 1.01154 22.111C1.03367 21.996 1.0865 21.8919 1.16134 21.8077C1.20931 21.7535 1.26662 21.7073 1.33224 21.6712C1.39467 21.6369 1.46337 21.6127 1.53628 21.6009L25.0052 17.3297C24.622 16.5906 24.4054 15.7517 24.4054 14.8631C24.4054 12.1418 26.4372 9.88646 29.0621 9.53753C29.0891 8.55283 29.1905 7.3525 29.4575 6.1167C30.1114 3.08899 31.8906 1.36148 31.9659 1.28939C32.2214 1.04507 32.6262 1.05481 32.8702 1.31039C33.1137 1.56585 33.1047 1.97023 32.8504 2.21454C32.8285 2.2358 31.2739 3.76637 30.7077 6.38727C30.4659 7.50642 30.3718 8.60853 30.3448 9.52088C33.0363 9.80771 35.1397 12.0941 35.1397 14.8629C35.1397 15.0756 35.1273 15.2855 35.1031 15.4918L35.6257 15.3967C35.7223 15.3791 35.8216 15.384 35.916 15.411C36.0091 15.4376 38.2235 16.0833 40.6136 17.8376C42.9518 19.5541 44.5094 21.6917 44.6259 21.8538ZM29.1372 11.9101C29.1323 11.8676 29.0882 11.4676 29.0663 10.8322C27.1476 11.1681 25.6846 12.8477 25.6846 14.8631C25.6846 17.1194 27.5184 18.955 29.7726 18.955C32.0267 18.955 33.8606 17.1194 33.8606 14.8631C33.8606 12.8021 32.3304 11.0923 30.3477 10.8115C30.3678 11.3965 30.4071 11.7556 30.4081 11.7652C30.4479 12.1164 30.1957 12.4336 29.8448 12.4734C29.4942 12.5133 29.1772 12.2613 29.1372 11.9101ZM25.6918 18.5062C26.7065 19.6929 28.2034 20.3906 29.7726 20.3906C32.0391 20.3906 34.0592 18.9518 34.8201 16.8449L35.6998 16.6848C36.1946 16.8469 37.974 17.4881 39.8571 18.8702C41.095 19.7789 42.1131 20.8355 42.7716 21.5926H8.73316L25.6918 18.5062ZM2.27927 41.61H43.4708V36.6508C43.2976 36.6713 43.1231 36.6817 42.9478 36.6817C41.8905 36.6817 40.8766 36.3039 40.0803 35.6282C39.2838 36.3039 38.2699 36.6817 37.2127 36.6817C36.1555 36.6817 35.1415 36.3039 34.3452 35.6282C33.5486 36.3039 32.5348 36.6817 31.4777 36.6817C30.4204 36.6817 29.4064 36.3039 28.6101 35.6282C27.8137 36.3039 26.7997 36.6817 25.7426 36.6817C24.6853 36.6817 23.6714 36.3039 22.875 35.6282C22.0784 36.3039 21.0646 36.6817 20.0074 36.6817C18.9501 36.6817 17.9363 36.3041 17.1398 35.6282C16.3434 36.3039 15.3296 36.6817 14.2723 36.6817C13.215 36.6817 12.2012 36.3041 11.4047 35.6282C10.6083 36.3039 9.59447 36.6817 8.53718 36.6817C7.47989 36.6817 6.46609 36.3041 5.66963 35.6282C4.87318 36.3039 3.85938 36.6817 2.80209 36.6817C2.62684 36.6817 2.45222 36.6713 2.27914 36.6508L2.27927 41.61ZM43.4709 35.3578C43.2986 35.3866 43.1239 35.4012 42.948 35.4012C42.0334 35.4012 41.1643 35.0039 40.5633 34.311C40.4419 34.1709 40.2656 34.0905 40.0804 34.0905C39.8952 34.0905 39.719 34.1709 39.5975 34.3109C38.9963 35.0037 38.1271 35.4012 37.2129 35.4012C36.2983 35.4012 35.4292 35.0039 34.8282 34.311C34.7068 34.1709 34.5306 34.0905 34.3453 34.0905C34.1601 34.0905 33.9839 34.1709 33.8624 34.3109C33.2612 35.0037 32.3921 35.4012 31.4778 35.4012C30.5633 35.4012 29.6941 35.0039 29.0932 34.311C28.9718 34.1709 28.7955 34.0905 28.6102 34.0905C28.425 34.0905 28.2489 34.1709 28.1273 34.3109C27.5261 35.0037 26.657 35.4012 25.7427 35.4012C24.8282 35.4012 23.9591 35.0039 23.3581 34.311C23.2367 34.1709 23.0604 34.0905 22.8752 34.0905C22.6899 34.0905 22.5138 34.1709 22.3922 34.3109C21.7911 35.0037 20.9219 35.4012 20.0076 35.4012C19.0932 35.4012 18.2241 35.0039 17.623 34.311C17.5016 34.1709 17.3253 34.0905 17.1401 34.0905C16.9548 34.0905 16.7787 34.1709 16.6572 34.311C16.056 35.0037 15.1869 35.4012 14.2725 35.4012C13.3581 35.4012 12.489 35.0039 11.8879 34.311C11.7665 34.1709 11.5902 34.0905 11.405 34.0905C11.2197 34.0905 11.0436 34.1709 10.9221 34.311C10.321 35.0037 9.45184 35.4012 8.53743 35.4012C7.62303 35.4012 6.75392 35.0039 6.1528 34.311C6.0314 34.1709 5.85512 34.0905 5.66989 34.0905C5.48466 34.0905 5.30851 34.1709 5.18698 34.311C4.58586 35.0037 3.71662 35.4012 2.80235 35.4012C2.62645 35.4012 2.45171 35.3867 2.27939 35.3578V29.1227C2.45171 29.0939 2.62645 29.0793 2.80235 29.0793C3.71662 29.0793 4.58574 29.4766 5.18698 30.1695C5.30851 30.3096 5.48466 30.39 5.66989 30.39C5.85512 30.39 6.03128 30.3096 6.1528 30.1695C6.75405 29.4768 7.62316 29.0793 8.53743 29.0793C9.45171 29.0793 10.3208 29.4766 10.9221 30.1695C11.0436 30.3096 11.2197 30.39 11.405 30.39C11.5902 30.39 11.7664 30.3096 11.8879 30.1695C12.4891 29.4768 13.3582 29.0793 14.2725 29.0793C15.1868 29.0793 16.0559 29.4766 16.6572 30.1695C16.7787 30.3096 16.9548 30.39 17.1401 30.39C17.3253 30.39 17.5015 30.3096 17.623 30.1695C18.2242 29.4768 19.0933 29.0793 20.0076 29.0793C20.9219 29.0793 21.7911 29.4768 22.3924 30.1696C22.5138 30.3096 22.6899 30.39 22.8752 30.39C23.0604 30.39 23.2365 30.3096 23.3581 30.1695C23.9592 29.4768 24.8284 29.0793 25.7427 29.0793C26.657 29.0793 27.5262 29.4768 28.1273 30.1696C28.2489 30.3096 28.425 30.39 28.6102 30.39C28.7955 30.39 28.9716 30.3096 29.0932 30.1695C29.6943 29.4768 30.5635 29.0793 31.4778 29.0793C32.3921 29.0793 33.2613 29.4768 33.8624 30.1696C33.9839 30.3096 34.1601 30.39 34.3453 30.39C34.5306 30.39 34.7067 30.3096 34.8282 30.1695C35.4294 29.4768 36.2986 29.0793 37.2129 29.0793C38.1271 29.0793 38.9964 29.4768 39.5976 30.1696C39.719 30.3096 39.8952 30.39 40.0804 30.39C40.2656 30.39 40.4418 30.3096 40.5633 30.1695C41.1644 29.4768 42.0337 29.0793 42.948 29.0793C43.1239 29.0793 43.2986 29.0938 43.4709 29.1227V35.3578ZM42.948 27.7987C43.1232 27.7987 43.2977 27.8091 43.4709 27.8296V23H2.27927V27.8296C2.45235 27.8091 2.62696 27.7987 2.80222 27.7987C3.85938 27.7987 4.87331 28.1764 5.66976 28.8521C6.46622 28.1764 7.48014 27.7987 8.53731 27.7987C9.59447 27.7987 10.6084 28.1764 11.4049 28.8521C12.2013 28.1764 13.2152 27.7987 14.2724 27.7987C15.3296 27.7987 16.3435 28.1764 17.1399 28.8521C17.9364 28.1764 18.9503 27.7987 20.0075 27.7987C21.0646 27.7987 22.0786 28.1764 22.8752 28.8521C23.6716 28.1764 24.6854 27.7987 25.7427 27.7987C26.7999 27.7987 27.8137 28.1764 28.6102 28.8521C29.4067 28.1763 30.4205 27.7987 31.4778 27.7987C32.535 27.7987 33.5487 28.1764 34.3453 28.8521C35.1418 28.1764 36.1556 27.7987 37.2129 27.7987C38.27 27.7987 39.2838 28.1764 40.0804 28.8521C40.8769 28.1763 41.8907 27.7987 42.948 27.7987Z" fill="#4D4D4D"/>
<path d="M44.7499 22.2224L45.2499 22.217L45.2498 22.2132L44.7499 22.2224ZM44.6259 21.8538L44.2199 22.1456L44.2231 22.1499L44.6259 21.8538ZM44.75 22.2345H45.2501L45.25 22.2291L44.75 22.2345ZM44.75 42.2475H44.25V42.2476L44.75 42.2475ZM1.00003 22.2384H1.50005L1.50001 22.234L1.00003 22.2384ZM1.01154 22.111L0.52055 22.0165L0.520498 22.0168L1.01154 22.111ZM1.16134 21.8077L1.53517 22.1397L1.53564 22.1392L1.16134 21.8077ZM1.33224 21.6712L1.09138 21.233L1.0912 21.2331L1.33224 21.6712ZM1.53628 21.6009L1.61604 22.0946L1.62581 22.0928L1.53628 21.6009ZM25.0052 17.3297L25.0947 17.8216L25.7607 17.7004L25.4491 17.0995L25.0052 17.3297ZM29.0621 9.53753L29.128 10.0332L29.5502 9.97703L29.5619 9.55123L29.0621 9.53753ZM29.4575 6.1167L29.9462 6.22228L29.9462 6.22226L29.4575 6.1167ZM31.9659 1.28939L31.6204 0.928042L31.6203 0.928118L31.9659 1.28939ZM32.8702 1.31039L33.2322 0.965454L33.2318 0.965071L32.8702 1.31039ZM32.8504 2.21454L32.504 1.85397L32.502 1.85595L32.8504 2.21454ZM30.7077 6.38727L31.1964 6.49285V6.49285L30.7077 6.38727ZM30.3448 9.52088L29.845 9.50609L29.8313 9.96899L30.2918 10.0181L30.3448 9.52088ZM35.1031 15.4918L34.6065 15.4336L34.5279 16.1047L35.1927 15.9837L35.1031 15.4918ZM35.6257 15.3967L35.5364 14.9047L35.5362 14.9047L35.6257 15.3967ZM35.916 15.411L35.7784 15.8917L35.7785 15.8917L35.916 15.411ZM40.6136 17.8376L40.9095 17.4346L40.9095 17.4346L40.6136 17.8376ZM29.0663 10.8322L29.566 10.815L29.5462 10.2406L28.9801 10.3397L29.0663 10.8322ZM29.1372 11.9101L29.6339 11.8535L29.6339 11.8534L29.1372 11.9101ZM30.3477 10.8115L30.4178 10.3164L29.8275 10.2328L29.848 10.8286L30.3477 10.8115ZM30.4081 11.7652L29.9109 11.8182L29.9113 11.8215L30.4081 11.7652ZM29.8448 12.4734L29.7885 11.9766L29.7884 11.9766L29.8448 12.4734ZM25.6918 18.5062L26.0718 18.1813L25.885 17.9628L25.6023 18.0143L25.6918 18.5062ZM34.8201 16.8449L34.7306 16.353L34.4475 16.4045L34.3498 16.6751L34.8201 16.8449ZM35.6998 16.6848L35.8555 16.2097L35.735 16.1702L35.6103 16.1929L35.6998 16.6848ZM39.8571 18.8702L39.5612 19.2733L39.8571 18.8702ZM42.7716 21.5926V22.0926H43.8691L43.1488 21.2644L42.7716 21.5926ZM8.73316 21.5926L8.64363 21.1006L8.73316 22.0926V21.5926ZM43.4708 41.61V42.11H43.9708V41.61H43.4708ZM2.27927 41.61L1.77927 41.61L1.77928 42.11H2.27927V41.61ZM43.4708 36.6508H43.9708V36.0882L43.412 36.1543L43.4708 36.6508ZM40.0803 35.6282L40.4038 35.247L40.0803 34.9725L39.7568 35.247L40.0803 35.6282ZM34.3452 35.6282L34.6687 35.247L34.3452 34.9725L34.0218 35.2469L34.3452 35.6282ZM28.6101 35.6282L28.9336 35.247L28.6101 34.9725L28.2866 35.247L28.6101 35.6282ZM22.875 35.6282L23.1985 35.247L22.8751 34.9725L22.5516 35.2469L22.875 35.6282ZM17.1398 35.6282L17.4633 35.247L17.1398 34.9725L16.8163 35.247L17.1398 35.6282ZM11.4047 35.6282L11.7282 35.247L11.4048 34.9725L11.0813 35.247L11.4047 35.6282ZM5.66963 35.6282L5.99314 35.247L5.66967 34.9725L5.34616 35.247L5.66963 35.6282ZM2.27914 36.6508L2.33792 36.1543L1.77912 36.0882L1.77914 36.6508L2.27914 36.6508ZM43.4709 35.3578L43.5534 35.8509L43.9709 35.7811V35.3578H43.4709ZM40.5633 34.311L40.1855 34.6384L40.1856 34.6386L40.5633 34.311ZM39.5975 34.3109L39.22 33.983L39.2199 33.9832L39.5975 34.3109ZM34.8282 34.311L34.4504 34.6384L34.4505 34.6386L34.8282 34.311ZM33.8624 34.3109L33.4849 33.983L33.4848 33.9832L33.8624 34.3109ZM29.0932 34.311L28.7153 34.6385L28.7154 34.6386L29.0932 34.311ZM28.1273 34.3109L27.7498 33.983L27.7497 33.9832L28.1273 34.3109ZM23.3581 34.311L22.9802 34.6385L22.9804 34.6386L23.3581 34.311ZM22.3922 34.3109L22.0147 33.983L22.0146 33.9832L22.3922 34.3109ZM17.623 34.311L17.2451 34.6385L17.2453 34.6387L17.623 34.311ZM16.6572 34.311L17.0348 34.6387L17.0348 34.6386L16.6572 34.311ZM11.8879 34.311L11.51 34.6385L11.5102 34.6387L11.8879 34.311ZM10.9221 34.311L11.2997 34.6387L11.2997 34.6386L10.9221 34.311ZM6.1528 34.311L5.77495 34.6385L5.77513 34.6387L6.1528 34.311ZM5.18698 34.311L5.56462 34.6387L5.56466 34.6386L5.18698 34.311ZM2.27939 35.3578H1.77939V35.7808L2.19657 35.8509L2.27939 35.3578ZM2.27939 29.1227L2.19693 28.6296L1.77939 28.6994V29.1227H2.27939ZM5.18698 30.1695L5.56466 29.8419L5.56462 29.8418L5.18698 30.1695ZM6.1528 30.1695L5.77519 29.8418L5.77512 29.8419L6.1528 30.1695ZM10.9221 30.1695L11.2997 29.8419L11.2997 29.8418L10.9221 30.1695ZM11.8879 30.1695L11.5103 29.8418L11.5102 29.8419L11.8879 30.1695ZM16.6572 30.1695L17.0348 29.8419L17.0348 29.8418L16.6572 30.1695ZM17.623 30.1695L17.2454 29.8418L17.2453 29.8419L17.623 30.1695ZM22.3924 30.1696L22.7701 29.842L22.77 29.8419L22.3924 30.1696ZM23.3581 30.1695L22.9804 29.8418L22.9804 29.8419L23.3581 30.1695ZM28.1273 30.1696L27.7497 30.4973L27.7498 30.4975L28.1273 30.1696ZM29.0932 30.1695L28.7155 29.8418L28.7155 29.8419L29.0932 30.1695ZM33.8624 30.1696L33.4847 30.4973L33.4849 30.4975L33.8624 30.1696ZM34.8282 30.1695L34.4506 29.8418L34.4506 29.8419L34.8282 30.1695ZM39.5976 30.1696L39.9753 29.842L39.9753 29.8419L39.5976 30.1696ZM40.5633 30.1695L40.1857 29.8418L40.1856 29.8419L40.5633 30.1695ZM43.4709 29.1227H43.9709V28.6997L43.5537 28.6296L43.4709 29.1227ZM43.4709 27.8296L43.4122 28.3261L43.9709 28.3922V27.8296H43.4709ZM43.4709 23H43.9709V22.5H43.4709V23ZM2.27927 23V22.5H1.77927V23H2.27927ZM2.27927 27.8296H1.77927V28.3922L2.33804 28.3261L2.27927 27.8296ZM5.66976 28.8521L5.34629 29.2334L5.66976 29.5079L5.99323 29.2334L5.66976 28.8521ZM11.4049 28.8521L11.0814 29.2334L11.4049 29.5079L11.7283 29.2334L11.4049 28.8521ZM17.1399 28.8521L16.8165 29.2334L17.1399 29.5079L17.4634 29.2334L17.1399 28.8521ZM22.8752 28.8521L22.5517 29.2334L22.8752 29.5078L23.1986 29.2334L22.8752 28.8521ZM28.6102 28.8521L28.2868 29.2334L28.6103 29.5079L28.9338 29.2334L28.6102 28.8521ZM34.3453 28.8521L34.0219 29.2334L34.3454 29.5078L34.6688 29.2334L34.3453 28.8521ZM40.0804 28.8521L39.757 29.2334L40.0805 29.5079L40.4039 29.2334L40.0804 28.8521ZM45.2498 22.2132C45.2453 21.9685 45.1644 21.7421 45.0288 21.5576L44.2231 22.1499C44.2392 22.1718 44.2494 22.1987 44.25 22.2316L45.2498 22.2132ZM45.25 22.2291L45.2499 22.217L44.2499 22.2278L44.2501 22.2398L45.25 22.2291ZM45.25 42.2475V22.2345H44.25V42.2475H45.25ZM44.1105 43.3878C44.7403 43.3878 45.2503 42.8769 45.25 42.2473L44.25 42.2476C44.2501 42.3256 44.1872 42.3878 44.1105 42.3878V43.3878ZM1.63965 43.3878H44.1105V42.3878H1.63965V43.3878ZM0.500026 42.2476C0.500026 42.8768 1.00984 43.3878 1.63965 43.3878V42.3878C1.56305 42.3878 1.50003 42.3254 1.50003 42.2476H0.500026ZM0.500026 22.2384V42.2476H1.50003V22.2384H0.500026ZM0.520498 22.0168C0.506185 22.0914 0.499368 22.1667 0.500046 22.2429L1.50001 22.234C1.49992 22.2239 1.50077 22.2147 1.50258 22.2052L0.520498 22.0168ZM0.787506 21.4756C0.6545 21.6254 0.560099 21.811 0.52055 22.0165L1.50253 22.2055C1.50724 22.181 1.51851 22.1585 1.53517 22.1397L0.787506 21.4756ZM1.0912 21.2331C0.974997 21.2971 0.872702 21.3794 0.787033 21.4762L1.53564 22.1392C1.54592 22.1276 1.55824 22.1175 1.57329 22.1092L1.0912 21.2331ZM1.45654 21.1073C1.32571 21.1284 1.20266 21.1718 1.09138 21.233L1.57311 22.1093C1.58668 22.1019 1.60102 22.0969 1.61603 22.0945L1.45654 21.1073ZM24.9157 16.8378L1.44676 21.109L1.62581 22.0928L25.0947 17.8216L24.9157 16.8378ZM23.9054 14.8631C23.9054 15.8339 24.1421 16.7514 24.5613 17.5598L25.4491 17.0995C25.1018 16.4297 24.9054 15.6696 24.9054 14.8631H23.9054ZM28.9962 9.04189C26.126 9.42343 23.9054 11.8879 23.9054 14.8631H24.9054C24.9054 12.3957 26.7484 10.3495 29.128 10.0332L28.9962 9.04189ZM28.9688 6.01112C28.6935 7.28504 28.5898 8.51752 28.5623 9.52382L29.5619 9.55123C29.5883 8.58814 29.6875 7.41996 29.9462 6.22228L28.9688 6.01112ZM31.6203 0.928118C31.5115 1.03217 29.6528 2.84403 28.9688 6.01114L29.9462 6.22226C30.5701 3.33395 32.2697 1.69079 32.3116 1.65067L31.6203 0.928118ZM33.2318 0.965071C32.7975 0.510231 32.076 0.492241 31.6204 0.928042L32.3115 1.65074C32.3668 1.59791 32.4548 1.59938 32.5086 1.65571L33.2318 0.965071ZM33.1968 2.57511C33.6497 2.13999 33.6656 1.4202 33.2322 0.965454L32.5083 1.65533C32.5618 1.7115 32.5597 1.80047 32.504 1.85397L33.1968 2.57511ZM31.1964 6.49285C31.7328 4.0098 33.2093 2.56295 33.1989 2.57314L32.502 1.85595C32.4477 1.90865 30.8149 3.52294 30.219 6.28169L31.1964 6.49285ZM30.8445 9.53567C30.8709 8.64402 30.9629 7.57385 31.1964 6.49285L30.219 6.28169C29.9689 7.43898 29.8726 8.57304 29.845 9.50609L30.8445 9.53567ZM35.6397 14.8629C35.6397 11.8359 33.3409 9.33734 30.3977 9.02369L30.2918 10.0181C32.7317 10.2781 34.6397 12.3523 34.6397 14.8629H35.6397ZM35.5998 15.55C35.6262 15.3244 35.6397 15.0951 35.6397 14.8629H34.6397C34.6397 15.0562 34.6285 15.2466 34.6065 15.4336L35.5998 15.55ZM35.5362 14.9047L35.0136 14.9999L35.1927 15.9837L35.7153 15.8886L35.5362 14.9047ZM36.0536 14.9303C35.8852 14.8821 35.7083 14.8735 35.5364 14.9047L35.7151 15.8886C35.7363 15.8847 35.758 15.8858 35.7784 15.8917L36.0536 14.9303ZM40.9095 17.4346C38.4532 15.6316 36.1765 14.9655 36.0535 14.9303L35.7785 15.8917C35.8417 15.9098 37.9938 16.5349 40.3177 18.2407L40.9095 17.4346ZM45.0319 21.5619C44.9049 21.3852 43.3109 19.1975 40.9095 17.4346L40.3177 18.2407C42.5927 19.9108 44.1139 21.9981 44.22 22.1456L45.0319 21.5619ZM28.5666 10.8494C28.589 11.5003 28.6343 11.9137 28.6404 11.9669L29.6339 11.8534C29.6303 11.8215 29.5873 11.4349 29.566 10.815L28.5666 10.8494ZM26.1846 14.8631C26.1846 13.0948 27.4689 11.6195 29.1525 11.3247L28.9801 10.3397C26.8262 10.7167 25.1846 12.6007 25.1846 14.8631H26.1846ZM29.7726 18.455C27.795 18.455 26.1846 16.8437 26.1846 14.8631H25.1846C25.1846 17.3951 27.2418 19.455 29.7726 19.455V18.455ZM33.3606 14.8631C33.3606 16.8437 31.7501 18.455 29.7726 18.455V19.455C32.3033 19.455 34.3606 17.3951 34.3606 14.8631H33.3606ZM30.2776 11.3065C32.0172 11.5529 33.3606 13.0547 33.3606 14.8631H34.3606C34.3606 12.5496 32.6436 10.6317 30.4178 10.3164L30.2776 11.3065ZM30.9053 11.7122C30.9051 11.7106 30.867 11.364 30.8474 10.7943L29.848 10.8286C29.8583 11.1288 29.8736 11.3717 29.8865 11.542C29.8929 11.6271 29.8988 11.6941 29.9032 11.7411C29.9054 11.7645 29.9073 11.783 29.9086 11.7962C29.9093 11.8028 29.9098 11.808 29.9102 11.8119C29.9106 11.8153 29.911 11.8189 29.9109 11.8182L30.9053 11.7122ZM29.9012 12.9702C30.5271 12.8992 30.9757 12.3338 30.9049 11.7089L29.9113 11.8215C29.92 11.899 29.8643 11.968 29.7885 11.9766L29.9012 12.9702ZM28.6404 11.9668C28.7117 12.5922 29.2763 13.0412 29.9013 12.9702L29.7884 11.9766C29.7121 11.9853 29.6427 11.9303 29.6339 11.8535L28.6404 11.9668ZM29.7726 19.8906C28.351 19.8906 26.9924 19.2579 26.0718 18.1813L25.3118 18.8311C26.4206 20.128 28.0559 20.8906 29.7726 20.8906V19.8906ZM34.3498 16.6751C33.6599 18.5855 31.8267 19.8906 29.7726 19.8906V20.8906C32.2515 20.8906 34.4585 19.3181 35.2903 17.0147L34.3498 16.6751ZM35.6103 16.1929L34.7306 16.353L34.9096 17.3368L35.7893 17.1767L35.6103 16.1929ZM40.1529 18.4672C38.2122 17.0427 36.3791 16.3812 35.8555 16.2097L35.5441 17.16C36.0101 17.3127 37.7358 17.9335 39.5612 19.2733L40.1529 18.4672ZM43.1488 21.2644C42.4764 20.4914 41.4311 19.4054 40.1529 18.4672L39.5612 19.2733C40.7588 20.1524 41.7498 21.1797 42.3943 21.9207L43.1488 21.2644ZM8.73316 22.0926H42.7716V21.0926H8.73316V22.0926ZM25.6023 18.0143L8.64363 21.1006L8.82268 22.0845L25.7813 18.9981L25.6023 18.0143ZM43.4708 41.11H2.27927V42.11H43.4708V41.11ZM42.9708 36.6508V41.61H43.9708V36.6508H42.9708ZM42.9478 37.1817C43.1428 37.1817 43.3369 37.1702 43.5295 37.1474L43.412 36.1543C43.2582 36.1725 43.1033 36.1817 42.9478 36.1817V37.1817ZM39.7568 36.0095C40.6427 36.7612 41.771 37.1817 42.9478 37.1817V36.1817C42.0101 36.1817 41.1105 35.8467 40.4038 35.247L39.7568 36.0095ZM37.2127 37.1817C38.3894 37.1817 39.5178 36.7612 40.4038 36.0095L39.7568 35.247C39.0499 35.8467 38.1504 36.1817 37.2127 36.1817V37.1817ZM34.0217 36.0095C34.9076 36.7612 36.0359 37.1817 37.2127 37.1817V36.1817C36.275 36.1817 35.3755 35.8467 34.6687 35.247L34.0217 36.0095ZM31.4777 37.1817C32.6544 37.1817 33.7825 36.7612 34.6686 36.0095L34.0218 35.2469C33.3147 35.8467 32.4153 36.1817 31.4777 36.1817V37.1817ZM28.2866 36.0095C29.1725 36.7612 30.3008 37.1817 31.4777 37.1817V36.1817C30.5399 36.1817 29.6404 35.8467 28.9336 35.247L28.2866 36.0095ZM25.7426 37.1817C26.9193 37.1817 28.0476 36.7612 28.9336 36.0095L28.2866 35.247C27.5797 35.8467 26.6802 36.1817 25.7426 36.1817V37.1817ZM22.5515 36.0095C23.4374 36.7612 24.5658 37.1817 25.7426 37.1817V36.1817C24.8048 36.1817 23.9053 35.8467 23.1985 35.247L22.5515 36.0095ZM20.0074 37.1817C21.1842 37.1817 22.3124 36.7612 23.1985 36.0095L22.5516 35.2469C21.8445 35.8467 20.9451 36.1817 20.0074 36.1817V37.1817ZM16.8163 36.0095C17.7023 36.7613 18.8306 37.1817 20.0074 37.1817V36.1817C19.0696 36.1817 18.1702 35.8468 17.4633 35.247L16.8163 36.0095ZM14.2723 37.1817C15.4491 37.1817 16.5773 36.7612 17.4633 36.0095L16.8163 35.247C16.1094 35.8467 15.21 36.1817 14.2723 36.1817V37.1817ZM11.0812 36.0095C11.9673 36.7613 13.0955 37.1817 14.2723 37.1817V36.1817C13.3345 36.1817 12.4351 35.8468 11.7282 35.247L11.0812 36.0095ZM8.53718 37.1817C9.71401 37.1817 10.8422 36.7612 11.7282 36.0095L11.0813 35.247C10.3743 35.8467 9.47493 36.1817 8.53718 36.1817V37.1817ZM5.34613 36.0095C6.23217 36.7613 7.36038 37.1817 8.53718 37.1817V36.1817C7.59939 36.1817 6.70001 35.8468 5.99314 35.247L5.34613 36.0095ZM2.80209 37.1817C3.97892 37.1817 5.10711 36.7612 5.9931 36.0095L5.34616 35.247C4.63925 35.8467 3.73984 36.1817 2.80209 36.1817V37.1817ZM2.22036 37.1474C2.41286 37.1702 2.60711 37.1817 2.80209 37.1817V36.1817C2.64656 36.1817 2.49157 36.1725 2.33792 36.1543L2.22036 37.1474ZM2.77927 41.61L2.77914 36.6508L1.77914 36.6508L1.77927 41.61L2.77927 41.61ZM42.948 35.9012C43.1516 35.9012 43.3539 35.8843 43.5534 35.8509L43.3885 34.8646C43.2433 34.8889 43.0961 34.9012 42.948 34.9012V35.9012ZM40.1856 34.6386C40.8813 35.4406 41.888 35.9012 42.948 35.9012V34.9012C42.1789 34.9012 41.4474 34.5671 40.941 33.9834L40.1856 34.6386ZM40.0804 34.5905C40.1207 34.5905 40.1591 34.608 40.1855 34.6384L40.9412 33.9835C40.7247 33.7338 40.4106 33.5905 40.0804 33.5905V34.5905ZM39.975 34.6387C40.0017 34.6079 40.0402 34.5905 40.0804 34.5905V33.5905C39.7501 33.5905 39.4363 33.7339 39.22 33.983L39.975 34.6387ZM37.2129 35.9012C38.2727 35.9012 39.2793 35.4404 39.9751 34.6386L39.2199 33.9832C38.7132 34.5671 37.9816 34.9012 37.2129 34.9012V35.9012ZM34.4505 34.6386C35.1462 35.4406 36.1529 35.9012 37.2129 35.9012V34.9012C36.4438 34.9012 35.7123 34.5671 35.2059 33.9834L34.4505 34.6386ZM34.3453 34.5905C34.3856 34.5905 34.424 34.608 34.4504 34.6384L35.2061 33.9835C34.9897 33.7338 34.6755 33.5905 34.3453 33.5905V34.5905ZM34.2399 34.6387C34.2666 34.608 34.3051 34.5905 34.3453 34.5905V33.5905C34.0151 33.5905 33.7012 33.7339 33.4849 33.983L34.2399 34.6387ZM31.4778 35.9012C32.5376 35.9012 33.5442 35.4404 34.2401 34.6386L33.4848 33.9832C32.9781 34.5671 32.2465 34.9012 31.4778 34.9012V35.9012ZM28.7154 34.6386C29.4111 35.4406 30.4178 35.9012 31.4778 35.9012V34.9012C30.7087 34.9012 29.9772 34.5671 29.4709 33.9834L28.7154 34.6386ZM28.6102 34.5905C28.6506 34.5905 28.6889 34.608 28.7153 34.6385L29.471 33.9835C29.2546 33.7338 28.9404 33.5905 28.6102 33.5905V34.5905ZM28.5049 34.6387C28.5316 34.608 28.57 34.5905 28.6102 34.5905V33.5905C28.28 33.5905 27.9662 33.7339 27.7498 33.983L28.5049 34.6387ZM25.7427 35.9012C26.8025 35.9012 27.8092 35.4404 28.505 34.6386L27.7497 33.9832C27.243 34.5671 26.5115 34.9012 25.7427 34.9012V35.9012ZM22.9804 34.6386C23.676 35.4406 24.6828 35.9012 25.7427 35.9012V34.9012C24.9736 34.9012 24.2421 34.5671 23.7358 33.9834L22.9804 34.6386ZM22.8752 34.5905C22.9155 34.5905 22.9538 34.608 22.9802 34.6385L23.7359 33.9835C23.5195 33.7338 23.2053 33.5905 22.8752 33.5905V34.5905ZM22.7698 34.6387C22.7965 34.608 22.835 34.5905 22.8752 34.5905V33.5905C22.5449 33.5905 22.2311 33.7339 22.0147 33.983L22.7698 34.6387ZM20.0076 35.9012C21.0674 35.9012 22.0742 35.4404 22.7699 34.6385L22.0146 33.9832C21.5081 34.567 20.7764 34.9012 20.0076 34.9012V35.9012ZM17.2453 34.6387C17.941 35.4406 18.9478 35.9012 20.0076 35.9012V34.9012C19.2386 34.9012 18.5071 34.5671 18.0007 33.9833L17.2453 34.6387ZM17.1401 34.5905C17.1804 34.5905 17.2188 34.608 17.2451 34.6385L18.0008 33.9835C17.7844 33.7338 17.4702 33.5905 17.1401 33.5905V34.5905ZM17.0348 34.6386C17.0615 34.6079 17.0999 34.5905 17.1401 34.5905V33.5905C16.8098 33.5905 16.4959 33.7339 16.2795 33.9833L17.0348 34.6386ZM14.2725 35.9012C15.3324 35.9012 16.3391 35.4404 17.0348 34.6387L16.2795 33.9833C15.773 34.567 15.0414 34.9012 14.2725 34.9012V35.9012ZM11.5102 34.6387C12.206 35.4406 13.2127 35.9012 14.2725 35.9012V34.9012C13.5036 34.9012 12.7721 34.5671 12.2656 33.9833L11.5102 34.6387ZM11.405 34.5905C11.4453 34.5905 11.4837 34.608 11.51 34.6385L12.2657 33.9835C12.0493 33.7338 11.7351 33.5905 11.405 33.5905V34.5905ZM11.2997 34.6386C11.3264 34.6079 11.3648 34.5905 11.405 34.5905V33.5905C11.0747 33.5905 10.7608 33.7339 10.5444 33.9833L11.2997 34.6386ZM8.53743 35.9012C9.59732 35.9012 10.604 35.4404 11.2997 34.6387L10.5444 33.9833C10.0379 34.567 9.30635 34.9012 8.53743 34.9012V35.9012ZM5.77513 34.6387C6.47087 35.4406 7.47759 35.9012 8.53743 35.9012V34.9012C7.76847 34.9012 7.03697 34.5671 6.53048 33.9833L5.77513 34.6387ZM5.66989 34.5905C5.71021 34.5905 5.74859 34.608 5.77495 34.6385L6.53066 33.9835C6.31422 33.7338 6.00004 33.5905 5.66989 33.5905V34.5905ZM5.56466 34.6386C5.59132 34.6079 5.62973 34.5905 5.66989 34.5905V33.5905C5.33959 33.5905 5.02569 33.7339 4.8093 33.9833L5.56466 34.6386ZM2.80235 35.9012C3.86209 35.9012 4.86891 35.4404 5.56462 34.6387L4.80933 33.9833C4.30281 34.567 3.57115 34.9012 2.80235 34.9012V35.9012ZM2.19657 35.8509C2.39654 35.8845 2.59899 35.9012 2.80235 35.9012V34.9012C2.65391 34.9012 2.50687 34.889 2.36221 34.8647L2.19657 35.8509ZM1.77939 29.1227V35.3578H2.77939V29.1227H1.77939ZM2.80235 28.5793C2.59875 28.5793 2.39642 28.5962 2.19693 28.6296L2.36185 29.6159C2.50699 29.5916 2.65415 29.5793 2.80235 29.5793V28.5793ZM5.56462 29.8418C4.86878 29.0399 3.86208 28.5793 2.80235 28.5793V29.5793C3.57116 29.5793 4.30269 29.9134 4.80934 30.4972L5.56462 29.8418ZM5.66989 29.89C5.62973 29.89 5.59132 29.8726 5.56466 29.8419L4.80929 30.4972C5.02569 30.7466 5.33959 30.89 5.66989 30.89V29.89ZM5.77512 29.8419C5.74846 29.8726 5.71005 29.89 5.66989 29.89V30.89C6.0002 30.89 6.31409 30.7466 6.53049 30.4972L5.77512 29.8419ZM8.53743 28.5793C7.47766 28.5793 6.471 29.0401 5.77519 29.8418L6.53042 30.4972C7.0371 29.9135 7.76866 29.5793 8.53743 29.5793V28.5793ZM11.2997 29.8418C10.6039 29.0399 9.59717 28.5793 8.53743 28.5793V29.5793C9.30625 29.5793 10.0378 29.9134 10.5444 30.4972L11.2997 29.8418ZM11.405 29.89C11.3648 29.89 11.3264 29.8726 11.2997 29.8419L10.5444 30.4972C10.7608 30.7466 11.0747 30.89 11.405 30.89V29.89ZM11.5102 29.8419C11.4836 29.8726 11.4451 29.89 11.405 29.89V30.89C11.7353 30.89 12.0492 30.7466 12.2656 30.4972L11.5102 29.8419ZM14.2725 28.5793C13.2127 28.5793 12.2061 29.0401 11.5103 29.8418L12.2655 30.4972C12.7722 29.9135 13.5038 29.5793 14.2725 29.5793V28.5793ZM17.0348 29.8418C16.339 29.0399 15.3323 28.5793 14.2725 28.5793V29.5793C15.0413 29.5793 15.7729 29.9134 16.2795 30.4972L17.0348 29.8418ZM17.1401 29.89C17.0999 29.89 17.0615 29.8726 17.0348 29.8419L16.2795 30.4972C16.4959 30.7466 16.8098 30.89 17.1401 30.89V29.89ZM17.2453 29.8419C17.2186 29.8726 17.1802 29.89 17.1401 29.89V30.89C17.4704 30.89 17.7843 30.7466 18.0007 30.4972L17.2453 29.8419ZM20.0076 28.5793C18.9478 28.5793 17.9412 29.0401 17.2454 29.8418L18.0006 30.4972C18.5073 29.9135 19.2388 29.5793 20.0076 29.5793V28.5793ZM22.77 29.8419C22.0742 29.0401 21.0674 28.5793 20.0076 28.5793V29.5793C20.7764 29.5793 21.5081 29.9135 22.0147 30.4973L22.77 29.8419ZM22.8752 29.89C22.8349 29.89 22.7965 29.8725 22.7701 29.842L22.0147 30.4973C22.231 30.7467 22.5449 30.89 22.8752 30.89V29.89ZM22.9804 29.8419C22.9537 29.8726 22.9153 29.89 22.8752 29.89V30.89C23.2055 30.89 23.5194 30.7466 23.7357 30.4972L22.9804 29.8419ZM25.7427 28.5793C24.683 28.5793 23.6761 29.0401 22.9804 29.8418L23.7357 30.4972C24.2422 29.9135 24.9739 29.5793 25.7427 29.5793V28.5793ZM28.505 29.842C27.8093 29.0401 26.8024 28.5793 25.7427 28.5793V29.5793C26.5115 29.5793 27.2431 29.9135 27.7497 30.4973L28.505 29.842ZM28.6102 29.89C28.57 29.89 28.5316 29.8726 28.5049 29.8418L27.7498 30.4975C27.9662 30.7466 28.28 30.89 28.6102 30.89V29.89ZM28.7155 29.8419C28.6888 29.8726 28.6504 29.89 28.6102 29.89V30.89C28.9405 30.89 29.2544 30.7466 29.4708 30.4972L28.7155 29.8419ZM31.4778 28.5793C30.418 28.5793 29.4112 29.0401 28.7155 29.8418L29.4708 30.4972C29.9773 29.9135 30.709 29.5793 31.4778 29.5793V28.5793ZM34.2401 29.842C33.5444 29.0401 32.5375 28.5793 31.4778 28.5793V29.5793C32.2466 29.5793 32.9782 29.9135 33.4847 30.4973L34.2401 29.842ZM34.3453 29.89C34.3051 29.89 34.2666 29.8726 34.2399 29.8418L33.4849 30.4975C33.7012 30.7466 34.0151 30.89 34.3453 30.89V29.89ZM34.4506 29.8419C34.4239 29.8726 34.3855 29.89 34.3453 29.89V30.89C34.6756 30.89 34.9895 30.7466 35.2059 30.4972L34.4506 29.8419ZM37.2129 28.5793C36.1531 28.5793 35.1463 29.0401 34.4506 29.8418L35.2059 30.4972C35.7124 29.9135 36.4441 29.5793 37.2129 29.5793V28.5793ZM39.9753 29.8419C39.2794 29.0401 38.2726 28.5793 37.2129 28.5793V29.5793C37.9817 29.5793 38.7133 29.9135 39.22 30.4973L39.9753 29.8419ZM40.0804 29.89C40.0402 29.89 40.0018 29.8725 39.9753 29.842L39.2199 30.4973C39.4363 30.7467 39.7502 30.89 40.0804 30.89V29.89ZM40.1856 29.8419C40.159 29.8726 40.1206 29.89 40.0804 29.89V30.89C40.4107 30.89 40.7246 30.7466 40.941 30.4972L40.1856 29.8419ZM42.948 28.5793C41.8882 28.5793 40.8814 29.0401 40.1857 29.8418L40.941 30.4972C41.4475 29.9135 42.1792 29.5793 42.948 29.5793V28.5793ZM43.5537 28.6296C43.3538 28.596 43.1513 28.5793 42.948 28.5793V29.5793C43.0964 29.5793 43.2434 29.5915 43.3881 29.6158L43.5537 28.6296ZM43.9709 35.3578V29.1227H42.9709V35.3578H43.9709ZM43.5296 27.333C43.3371 27.3102 43.143 27.2987 42.948 27.2987V28.2987C43.1035 28.2987 43.2583 28.3079 43.4122 28.3261L43.5296 27.333ZM42.9709 23V27.8296H43.9709V23H42.9709ZM2.27927 23.5H43.4709V22.5H2.27927V23.5ZM2.77927 27.8296V23H1.77927V27.8296H2.77927ZM2.80222 27.2987C2.60723 27.2987 2.41299 27.3102 2.22049 27.333L2.33804 28.3261C2.4917 28.3079 2.64669 28.2987 2.80222 28.2987V27.2987ZM5.99323 28.4709C5.10723 27.7192 3.97891 27.2987 2.80222 27.2987V28.2987C3.73985 28.2987 4.63939 28.6337 5.34629 29.2334L5.99323 28.4709ZM8.53731 27.2987C7.36061 27.2987 6.2323 27.7192 5.34629 28.4709L5.99323 29.2334C6.70014 28.6337 7.59968 28.2987 8.53731 28.2987V27.2987ZM11.7283 28.4709C10.8423 27.7192 9.714 27.2987 8.53731 27.2987V28.2987C9.47494 28.2987 10.3745 28.6337 11.0814 29.2334L11.7283 28.4709ZM14.2724 27.2987C13.0957 27.2987 11.9674 27.7192 11.0814 28.4709L11.7283 29.2334C12.4352 28.6337 13.3348 28.2987 14.2724 28.2987V27.2987ZM17.4634 28.4709C16.5774 27.7192 15.4491 27.2987 14.2724 27.2987V28.2987C15.21 28.2987 16.1096 28.6337 16.8165 29.2334L17.4634 28.4709ZM20.0075 27.2987C18.8308 27.2987 17.7025 27.7192 16.8165 28.4709L17.4634 29.2334C18.1703 28.6337 19.0698 28.2987 20.0075 28.2987V27.2987ZM23.1986 28.4709C22.3125 27.7192 21.1842 27.2987 20.0075 27.2987V28.2987C20.9451 28.2987 21.8447 28.6337 22.5517 29.2334L23.1986 28.4709ZM25.7427 27.2987C24.5659 27.2987 23.4377 27.7192 22.5517 28.4709L23.1986 29.2334C23.9055 28.6337 24.8049 28.2987 25.7427 28.2987V27.2987ZM28.9337 28.4709C28.0476 27.7192 26.9194 27.2987 25.7427 27.2987V28.2987C26.6803 28.2987 27.5797 28.6337 28.2868 29.2334L28.9337 28.4709ZM31.4778 27.2987C30.301 27.2987 29.1728 27.719 28.2867 28.4709L28.9338 29.2334C29.6406 28.6336 30.54 28.2987 31.4778 28.2987V27.2987ZM34.6688 28.4709C33.7827 27.7192 32.6545 27.2987 31.4778 27.2987V28.2987C32.4154 28.2987 33.3148 28.6337 34.0219 29.2334L34.6688 28.4709ZM37.2129 27.2987C36.036 27.2987 34.9079 27.7192 34.0219 28.4709L34.6688 29.2334C35.3757 28.6337 36.2751 28.2987 37.2129 28.2987V27.2987ZM40.4039 28.4709C39.5178 27.7192 38.3896 27.2987 37.2129 27.2987V28.2987C38.1505 28.2987 39.0499 28.6337 39.757 29.2334L40.4039 28.4709ZM42.948 27.2987C41.7712 27.2987 40.643 27.719 39.7569 28.4709L40.4039 29.2334C41.1108 28.6336 42.0102 28.2987 42.948 28.2987V27.2987Z" fill="#4D4D4D" mask="url(#path-1-outside-1)"/>
</svg>
