<svg width="42" height="43" viewBox="0 0 42 43" fill="none" xmlns="http://www.w3.org/2000/svg">
<path fill-rule="evenodd" clip-rule="evenodd" d="M40.2925 31.501C41.2678 31.1024 41.9635 30.0843 41.9635 28.8936V21.4611C41.9635 19.9243 40.805 18.674 39.381 18.674H35.1276V12.2019C35.1276 11.7082 34.9394 11.2596 34.6341 10.9225C35.2763 10.1493 35.7478 8.83326 34.8823 6.72301C34.2753 5.24302 33.2191 3.88177 32.6434 3.20217C32.4703 2.99778 32.2185 2.88025 31.9536 2.88025C31.6886 2.88025 31.4368 2.99778 31.2637 3.20217C28.5283 6.43203 27.8274 9.14904 29.2597 10.9016C28.9432 11.2406 28.7475 11.6979 28.7475 12.2018V18.6739H24.1901V9.41457C24.1901 8.92087 24.0019 8.47214 23.6966 8.13517C24.3388 7.36182 24.8104 6.04591 23.9448 3.93556C23.3378 2.45558 22.2816 1.09442 21.706 0.414729C21.5329 0.210337 21.2811 0.0928116 21.0161 0.0928116C20.7512 0.0928116 20.4993 0.210337 20.3263 0.414729C17.591 3.6444 16.89 6.36142 18.3223 8.11417C18.0058 8.45328 17.8101 8.91056 17.8101 9.41448V18.6738H13.2527V12.2017C13.2527 11.708 13.0645 11.2594 12.7592 10.9224C13.4014 10.1491 13.873 8.83317 13.0074 6.72282C12.4005 5.24274 11.3442 3.88159 10.7686 3.20198C10.5955 2.9975 10.3437 2.88007 10.0787 2.88007C9.81377 2.88007 9.56194 2.99759 9.38885 3.20198C6.65347 6.43175 5.95265 9.14877 7.38492 10.9014C7.06837 11.2405 6.87268 11.6978 6.87268 12.2017V18.6738H2.61881C1.19484 18.6738 0.036377 19.9241 0.036377 21.461V28.8934C0.036377 30.0841 0.732002 31.1021 1.70735 31.5008L1.70744 40.0423C1.70744 41.7826 2.34673 42.8294 4.08448 42.8294H37.9388C39.6866 42.8294 40.2925 41.1864 40.2925 40.0423V31.501ZM31.9497 5.29459C33.0462 6.81201 34.1019 8.87442 33.1543 9.8188C32.8349 10.1371 32.4089 10.3124 31.9546 10.3127H31.943C31.4852 10.3099 31.0652 10.1371 30.7601 9.82614C29.71 8.75587 30.9742 6.61812 31.9497 5.29459ZM30.6009 12.1707C30.5861 12.1707 30.5703 12.1868 30.5703 12.2019H30.5704V18.674H33.3048V12.2019C33.3048 12.1868 33.289 12.1707 33.2742 12.1707H31.9556L31.9537 12.1708L31.932 12.1707H30.6009ZM21.0121 2.50724C22.1086 4.02466 23.1644 6.08707 22.2167 7.03154C21.8974 7.34984 21.4714 7.52515 21.0171 7.52534H21.0054C20.5477 7.52255 20.1276 7.34975 19.8226 7.03888C18.7725 5.96852 20.0366 3.83077 21.0121 2.50724ZM22.3671 18.674V9.41466C22.3671 9.39952 22.3513 9.38344 22.3365 9.38344H21.0181H21.0161H20.9943H19.6634C19.6485 9.38344 19.6327 9.39952 19.6327 9.41466V18.674H22.3671ZM10.0746 5.29449C11.1711 6.81182 12.2269 8.87432 11.2792 9.81871C10.9599 10.137 10.5337 10.3123 10.0795 10.3126H10.0678C9.61015 10.3098 9.19006 10.137 8.885 9.82605C7.835 8.75578 9.0991 6.61802 10.0746 5.29449ZM10.0569 12.1707H8.72576C8.71091 12.1707 8.69514 12.1868 8.69523 12.2019V18.674H11.4296V12.2019C11.4296 12.1868 11.4139 12.1707 11.3991 12.1707L10.0786 12.1708L10.0569 12.1707ZM38.4694 32.2699V34.128V40.0423C38.4694 40.5456 38.1218 40.9708 37.7106 40.9713H4.28915C3.87781 40.9708 3.53036 40.5456 3.53036 40.0423V39.3306V37.4725L3.53027 31.5011C4.50571 31.1025 5.20134 30.0843 5.20134 28.8937V26.1288C5.20134 25.5133 5.63419 24.9933 6.14652 24.9933C6.65885 24.9933 7.0917 25.5133 7.0917 26.1288V29.9433C7.0917 31.5941 8.33347 32.9369 9.85989 32.9369C11.3862 32.9369 12.628 31.594 12.628 29.9433V26.1288C12.628 25.5133 13.0608 24.9933 13.5732 24.9933C14.0856 24.9933 14.5184 25.5133 14.5184 26.1288V26.3664C14.5184 28.017 15.7602 29.36 17.2865 29.36C18.8129 29.36 20.0546 28.017 20.0546 26.3664V26.1288C20.0546 25.5133 20.4875 24.9933 20.9998 24.9933C21.5122 24.9933 21.9451 25.5133 21.9451 26.1288V28.0851C21.9451 29.7358 23.1869 31.0787 24.7132 31.0787C26.2395 31.0787 27.4813 29.7358 27.4813 28.0851V26.1288C27.4813 25.5133 27.9142 24.9933 28.4265 24.9933C28.9389 24.9933 29.3718 25.5133 29.3718 26.1288V26.3664C29.3718 28.017 30.6135 29.36 32.1399 29.36C33.6662 29.36 34.908 28.017 34.908 26.3664V26.1288C34.908 25.5133 35.3408 24.9933 35.8532 24.9933C36.3656 24.9933 36.7984 25.5133 36.7984 26.1288V28.8937C36.7984 30.0843 37.494 31.1025 38.4694 31.5011V32.2699ZM39.381 29.8226C39.7927 29.8226 40.1405 29.3971 40.1405 28.8936V21.4611C40.1405 20.9576 39.7927 20.5321 39.381 20.5321H2.61909C2.20729 20.5321 1.85948 20.9576 1.85948 21.4611V28.8936C1.85948 29.3971 2.20729 29.8226 2.61899 29.8226C3.03079 29.8226 3.3786 29.3971 3.3786 28.8936V26.1287C3.3786 24.4781 4.62037 23.1351 6.1467 23.1351C7.67303 23.1351 8.9148 24.478 8.9148 26.1287V29.9432C8.9148 30.5587 9.34765 31.0787 9.86007 31.0787C10.3724 31.0787 10.8053 30.5587 10.8053 29.9432V26.1287C10.8053 24.4781 12.047 23.1351 13.5734 23.1351C15.0998 23.1351 16.3415 24.478 16.3415 26.1287V26.3663C16.3415 26.9818 16.7744 27.5018 17.2867 27.5018C17.7991 27.5018 18.2319 26.9818 18.2319 26.3663V26.1287C18.2319 24.4781 19.4737 23.1351 21 23.1351C22.5264 23.1351 23.7682 24.478 23.7682 26.1287V28.085C23.7682 28.7005 24.2011 29.2205 24.7134 29.2205C25.2257 29.2205 25.6586 28.7005 25.6586 28.085V26.1287C25.6586 24.4781 26.9003 23.1351 28.4267 23.1351C29.9531 23.1351 31.1949 24.478 31.1949 26.1287V26.3663C31.1949 26.9818 31.6277 27.5018 32.14 27.5018C32.6524 27.5018 33.0852 26.9818 33.0852 26.3663V26.1287C33.0852 24.4781 34.327 23.1351 35.8534 23.1351C37.3797 23.1351 38.6215 24.478 38.6215 26.1287V28.8936C38.6215 29.3971 38.9693 29.8226 39.381 29.8226Z" fill="#4D4D4D"/>
</svg>
