<svg width="48" height="46" viewBox="0 0 48 46" fill="none" xmlns="http://www.w3.org/2000/svg">
<mask id="path-1-outside-1" maskUnits="userSpaceOnUse" x="0" y="0.188919" width="48" height="46" fill="black">
<rect fill="white" y="0.188919" width="48" height="46"/>
<path fill-rule="evenodd" clip-rule="evenodd" d="M43.9333 31.7977H46.2333C46.6567 31.7977 47 32.126 47 32.5309C46.9975 34.5549 45.2827 36.1952 43.1667 36.1976H26.3V40.5976H29.3667C31.4827 40.6 33.1975 42.2403 33.2 44.2643C33.2 44.6693 32.8567 44.9976 32.4333 44.9976H15.5667C15.1433 44.9976 14.8 44.6693 14.8 44.2643C14.8025 42.2403 16.5173 40.6 18.6333 40.5976H21.7V36.1976H4.83333C2.71733 36.1952 1.00249 34.5549 1 32.5309C1 32.126 1.34327 31.7976 1.76667 31.7976H4.06667V18.215C4.06667 16.595 5.43967 15.2817 7.13333 15.2817H10.2V4.12225C10.2 2.50223 11.573 1.18892 13.2667 1.18892H22.8639L25.5471 1.18901H34.7333C36.427 1.18901 37.8 2.50232 37.8 4.12234V15.2818H40.8667C42.5603 15.2818 43.9333 16.5951 43.9333 18.2151V31.7977ZM13.2667 2.65568C12.4198 2.65568 11.7333 3.31229 11.7333 4.12234L11.7332 5.58901V7.53601C12.7424 7.19391 13.5947 6.5252 14.1429 5.64548C14.1985 5.56793 14.2685 5.50092 14.3496 5.44775C14.7124 5.20988 15.2083 5.29843 15.4569 5.64548C15.8476 6.27284 16.3956 6.79718 17.0516 7.17081C19.2293 8.41134 22.046 7.72842 23.3429 5.64548C23.4075 5.54281 23.4974 5.45674 23.6048 5.39495C23.9677 5.18623 24.4387 5.29843 24.6569 5.64548C25.0476 6.27284 25.5957 6.79718 26.2516 7.17081C28.4293 8.41134 31.246 7.72842 32.5429 5.64548C32.6075 5.54281 32.6975 5.45674 32.8049 5.39495C33.1678 5.18623 33.6388 5.29843 33.857 5.64548C34.4052 6.5252 35.2575 7.19391 36.2667 7.53601V5.58901V4.12234C36.2667 3.31229 35.5802 2.65568 34.7333 2.65568H13.2667ZM11.7333 9.06354C12.9218 8.77296 13.9907 8.14569 14.8 7.26394C17.0322 9.69403 20.9012 9.93309 23.4418 7.7979C23.6397 7.63162 23.8262 7.45324 24 7.26394C26.2322 9.69403 30.1012 9.93309 32.6418 7.7979C32.8397 7.63162 33.0262 7.45324 33.2 7.26394C34.0093 8.14569 35.0782 8.77296 36.2667 9.06354V15.2818H11.7333V9.06354ZM5.6 18.2151V19.6818V21.8818C7.21853 21.886 8.71861 21.0705 9.54287 19.7382C9.59845 19.6607 9.66851 19.5937 9.74958 19.5405C10.1124 19.3026 10.6082 19.3912 10.8569 19.7382C11.2476 20.3656 11.7956 20.8899 12.4516 21.2636C14.6293 22.5041 17.446 21.8212 18.7429 19.7382C18.7985 19.6607 18.8685 19.5937 18.9496 19.5405C19.3124 19.3026 19.8083 19.3912 20.0569 19.7382C20.4476 20.3656 20.9956 20.8899 21.6516 21.2636C23.8293 22.5041 26.646 21.8212 27.9429 19.7382C27.9985 19.6607 28.0685 19.5937 28.1496 19.5405C28.5124 19.3026 29.0082 19.3912 29.2569 19.7382C29.6476 20.3656 30.1957 20.8899 30.8516 21.2636C33.0293 22.5041 35.846 21.8212 37.1429 19.7382C37.2075 19.6356 37.2974 19.5495 37.4049 19.4877C37.7678 19.279 38.2388 19.3912 38.457 19.7382C39.2814 21.0706 40.7815 21.8861 42.4 21.8818V19.6818V18.2151C42.4 17.405 41.7135 16.7484 40.8667 16.7484H7.13333C6.28645 16.7484 5.6 17.405 5.6 18.2151ZM5.6 23.3484C7.36285 23.355 9.04157 22.6284 10.2 21.3574C12.4321 23.7875 16.3012 24.0266 18.8418 21.8914C19.0397 21.7251 19.2262 21.5467 19.4 21.3574C21.6322 23.7875 25.5012 24.0266 28.0418 21.8914C28.2397 21.7251 28.4262 21.5467 28.6 21.3574C30.8321 23.7875 34.7012 24.0266 37.2418 21.8914C37.4397 21.7251 37.6262 21.5467 37.8 21.3574C38.9584 22.6284 40.6372 23.355 42.4 23.3484V31.7977H5.6V23.3484ZM31.5356 43.531C31.2094 42.6527 30.3411 42.0655 29.3667 42.0644H18.6333C17.6589 42.0655 16.7906 42.6527 16.4644 43.531H31.5356ZM23.2333 40.5977V36.1977H24.7667V40.5977H23.2333ZM4.83333 34.731H43.1667C44.1411 34.7298 45.0094 34.1426 45.3356 33.2644H2.66443C2.99055 34.1427 3.8589 34.7299 4.83333 34.731Z"/>
</mask>
<path fill-rule="evenodd" clip-rule="evenodd" d="M43.9333 31.7977H46.2333C46.6567 31.7977 47 32.126 47 32.5309C46.9975 34.5549 45.2827 36.1952 43.1667 36.1976H26.3V40.5976H29.3667C31.4827 40.6 33.1975 42.2403 33.2 44.2643C33.2 44.6693 32.8567 44.9976 32.4333 44.9976H15.5667C15.1433 44.9976 14.8 44.6693 14.8 44.2643C14.8025 42.2403 16.5173 40.6 18.6333 40.5976H21.7V36.1976H4.83333C2.71733 36.1952 1.00249 34.5549 1 32.5309C1 32.126 1.34327 31.7976 1.76667 31.7976H4.06667V18.215C4.06667 16.595 5.43967 15.2817 7.13333 15.2817H10.2V4.12225C10.2 2.50223 11.573 1.18892 13.2667 1.18892H22.8639L25.5471 1.18901H34.7333C36.427 1.18901 37.8 2.50232 37.8 4.12234V15.2818H40.8667C42.5603 15.2818 43.9333 16.5951 43.9333 18.2151V31.7977ZM13.2667 2.65568C12.4198 2.65568 11.7333 3.31229 11.7333 4.12234L11.7332 5.58901V7.53601C12.7424 7.19391 13.5947 6.5252 14.1429 5.64548C14.1985 5.56793 14.2685 5.50092 14.3496 5.44775C14.7124 5.20988 15.2083 5.29843 15.4569 5.64548C15.8476 6.27284 16.3956 6.79718 17.0516 7.17081C19.2293 8.41134 22.046 7.72842 23.3429 5.64548C23.4075 5.54281 23.4974 5.45674 23.6048 5.39495C23.9677 5.18623 24.4387 5.29843 24.6569 5.64548C25.0476 6.27284 25.5957 6.79718 26.2516 7.17081C28.4293 8.41134 31.246 7.72842 32.5429 5.64548C32.6075 5.54281 32.6975 5.45674 32.8049 5.39495C33.1678 5.18623 33.6388 5.29843 33.857 5.64548C34.4052 6.5252 35.2575 7.19391 36.2667 7.53601V5.58901V4.12234C36.2667 3.31229 35.5802 2.65568 34.7333 2.65568H13.2667ZM11.7333 9.06354C12.9218 8.77296 13.9907 8.14569 14.8 7.26394C17.0322 9.69403 20.9012 9.93309 23.4418 7.7979C23.6397 7.63162 23.8262 7.45324 24 7.26394C26.2322 9.69403 30.1012 9.93309 32.6418 7.7979C32.8397 7.63162 33.0262 7.45324 33.2 7.26394C34.0093 8.14569 35.0782 8.77296 36.2667 9.06354V15.2818H11.7333V9.06354ZM5.6 18.2151V19.6818V21.8818C7.21853 21.886 8.71861 21.0705 9.54287 19.7382C9.59845 19.6607 9.66851 19.5937 9.74958 19.5405C10.1124 19.3026 10.6082 19.3912 10.8569 19.7382C11.2476 20.3656 11.7956 20.8899 12.4516 21.2636C14.6293 22.5041 17.446 21.8212 18.7429 19.7382C18.7985 19.6607 18.8685 19.5937 18.9496 19.5405C19.3124 19.3026 19.8083 19.3912 20.0569 19.7382C20.4476 20.3656 20.9956 20.8899 21.6516 21.2636C23.8293 22.5041 26.646 21.8212 27.9429 19.7382C27.9985 19.6607 28.0685 19.5937 28.1496 19.5405C28.5124 19.3026 29.0082 19.3912 29.2569 19.7382C29.6476 20.3656 30.1957 20.8899 30.8516 21.2636C33.0293 22.5041 35.846 21.8212 37.1429 19.7382C37.2075 19.6356 37.2974 19.5495 37.4049 19.4877C37.7678 19.279 38.2388 19.3912 38.457 19.7382C39.2814 21.0706 40.7815 21.8861 42.4 21.8818V19.6818V18.2151C42.4 17.405 41.7135 16.7484 40.8667 16.7484H7.13333C6.28645 16.7484 5.6 17.405 5.6 18.2151ZM5.6 23.3484C7.36285 23.355 9.04157 22.6284 10.2 21.3574C12.4321 23.7875 16.3012 24.0266 18.8418 21.8914C19.0397 21.7251 19.2262 21.5467 19.4 21.3574C21.6322 23.7875 25.5012 24.0266 28.0418 21.8914C28.2397 21.7251 28.4262 21.5467 28.6 21.3574C30.8321 23.7875 34.7012 24.0266 37.2418 21.8914C37.4397 21.7251 37.6262 21.5467 37.8 21.3574C38.9584 22.6284 40.6372 23.355 42.4 23.3484V31.7977H5.6V23.3484ZM31.5356 43.531C31.2094 42.6527 30.3411 42.0655 29.3667 42.0644H18.6333C17.6589 42.0655 16.7906 42.6527 16.4644 43.531H31.5356ZM23.2333 40.5977V36.1977H24.7667V40.5977H23.2333ZM4.83333 34.731H43.1667C44.1411 34.7298 45.0094 34.1426 45.3356 33.2644H2.66443C2.99055 34.1427 3.8589 34.7299 4.83333 34.731Z" fill="#4D4D4D"/>
<path d="M43.9333 31.7977H43.7333V31.9977H43.9333V31.7977ZM47 32.5309L47.2 32.5312V32.5309H47ZM43.1667 36.1976V36.3976H43.1669L43.1667 36.1976ZM26.3 36.1976V35.9976H26.1V36.1976H26.3ZM26.3 40.5976H26.1V40.7976H26.3V40.5976ZM29.3667 40.5976L29.3669 40.3976H29.3667V40.5976ZM33.2 44.2643H33.4V44.264L33.2 44.2643ZM14.8 44.2643L14.6 44.264V44.2643H14.8ZM18.6333 40.5976V40.3976H18.6331L18.6333 40.5976ZM21.7 40.5976V40.7976H21.9V40.5976H21.7ZM21.7 36.1976H21.9V35.9976H21.7V36.1976ZM4.83333 36.1976L4.83311 36.3976H4.83333V36.1976ZM1 32.5309H0.8L0.8 32.5312L1 32.5309ZM4.06667 31.7976V31.9976H4.26667V31.7976H4.06667ZM10.2 15.2817V15.4817H10.4V15.2817H10.2ZM22.8639 1.18892L22.8639 0.988919H22.8639V1.18892ZM25.5471 1.18901L25.5471 1.38901H25.5471V1.18901ZM37.8 15.2818H37.6V15.4818H37.8V15.2818ZM11.7333 4.12234L11.9333 4.12236V4.12234H11.7333ZM11.7332 5.58901L11.5332 5.589V5.58901H11.7332ZM11.7332 7.53601H11.5332V7.81499L11.7974 7.72542L11.7332 7.53601ZM14.1429 5.64548L13.98 5.52872L13.9731 5.53971L14.1429 5.64548ZM14.3496 5.44775L14.2399 5.28049L14.2399 5.28051L14.3496 5.44775ZM15.4569 5.64548L15.6271 5.53954L15.6195 5.52898L15.4569 5.64548ZM17.0516 7.17081L17.1506 6.99703L17.1506 6.99702L17.0516 7.17081ZM23.3429 5.64548L23.1736 5.53897L23.1731 5.53977L23.3429 5.64548ZM23.6048 5.39495L23.7045 5.56833L23.7045 5.56832L23.6048 5.39495ZM24.6569 5.64548L24.8267 5.53977L24.8263 5.53902L24.6569 5.64548ZM26.2516 7.17081L26.1526 7.34459L26.1526 7.34459L26.2516 7.17081ZM32.5429 5.64548L32.3736 5.53897L32.3731 5.53977L32.5429 5.64548ZM32.8049 5.39495L32.9046 5.56833L32.9046 5.56832L32.8049 5.39495ZM33.857 5.64548L34.0268 5.53971L34.0263 5.53902L33.857 5.64548ZM36.2667 7.53601L36.2025 7.72542L36.4667 7.81499V7.53601H36.2667ZM14.8 7.26394L14.9473 7.12865L14.7999 6.96823L14.6527 7.1287L14.8 7.26394ZM11.7333 9.06354L11.6858 8.86927L11.5333 8.90655V9.06354H11.7333ZM23.4418 7.7979L23.3131 7.64478L23.3131 7.6448L23.4418 7.7979ZM24 7.26394L24.1473 7.12865L24 6.96828L23.8527 7.12866L24 7.26394ZM32.6418 7.7979L32.5131 7.64478L32.5131 7.6448L32.6418 7.7979ZM33.2 7.26394L33.3473 7.1287L33.2 6.96822L33.0527 7.12866L33.2 7.26394ZM36.2667 9.06354H36.4667V8.90655L36.3142 8.86927L36.2667 9.06354ZM36.2667 15.2818V15.4818H36.4667V15.2818H36.2667ZM11.7333 15.2818H11.5333V15.4818H11.7333V15.2818ZM5.6 21.8818H5.4V22.0812L5.59948 22.0818L5.6 21.8818ZM9.54287 19.7382L9.37994 19.6215L9.37279 19.633L9.54287 19.7382ZM9.74958 19.5405L9.63993 19.3732L9.63991 19.3733L9.74958 19.5405ZM10.8569 19.7382L11.0271 19.6323L11.0195 19.6217L10.8569 19.7382ZM12.4516 21.2636L12.5506 21.0898L12.5506 21.0898L12.4516 21.2636ZM18.7429 19.7382L18.58 19.6215L18.5731 19.6325L18.7429 19.7382ZM18.9496 19.5405L18.8399 19.3732L18.8399 19.3733L18.9496 19.5405ZM20.0569 19.7382L20.2271 19.6323L20.2195 19.6217L20.0569 19.7382ZM21.6516 21.2636L21.7506 21.0898L21.7506 21.0898L21.6516 21.2636ZM27.9429 19.7382L27.78 19.6215L27.7731 19.6325L27.9429 19.7382ZM28.1496 19.5405L28.0399 19.3732L28.0399 19.3733L28.1496 19.5405ZM29.2569 19.7382L29.4271 19.6323L29.4195 19.6217L29.2569 19.7382ZM30.8516 21.2636L30.7526 21.4373L30.7526 21.4373L30.8516 21.2636ZM37.1429 19.7382L36.9736 19.6317L36.9731 19.6325L37.1429 19.7382ZM37.4049 19.4877L37.5046 19.6611L37.4049 19.4877ZM38.457 19.7382L38.6271 19.633L38.6263 19.6318L38.457 19.7382ZM42.4 21.8818L42.4005 22.0818L42.6 22.0812V21.8818H42.4ZM10.2 21.3574L10.3473 21.2221L10.1994 21.0612L10.0522 21.2227L10.2 21.3574ZM5.6 23.3484L5.60075 23.1484L5.4 23.1477V23.3484H5.6ZM18.8418 21.8914L18.7131 21.7383L18.7131 21.7383L18.8418 21.8914ZM19.4 21.3574L19.5473 21.2221L19.4 21.0618L19.2527 21.2221L19.4 21.3574ZM28.0418 21.8914L27.9131 21.7383L27.9131 21.7383L28.0418 21.8914ZM28.6 21.3574L28.7473 21.2221L28.6 21.0618L28.4527 21.2221L28.6 21.3574ZM37.2418 21.8914L37.1131 21.7383L37.1131 21.7383L37.2418 21.8914ZM37.8 21.3574L37.9478 21.2227L37.8006 21.0611L37.6527 21.2222L37.8 21.3574ZM42.4 23.3484H42.6V23.1477L42.3993 23.1484L42.4 23.3484ZM42.4 31.7977V31.9977H42.6V31.7977H42.4ZM5.6 31.7977H5.4V31.9977H5.6V31.7977ZM29.3667 42.0644L29.3669 41.8644H29.3667V42.0644ZM31.5356 43.531V43.731H31.8232L31.7231 43.4614L31.5356 43.531ZM18.6333 42.0644V41.8644H18.6331L18.6333 42.0644ZM16.4644 43.531L16.2769 43.4614L16.1768 43.731H16.4644V43.531ZM23.2333 36.1977V35.9977H23.0333V36.1977H23.2333ZM23.2333 40.5977H23.0333V40.7977H23.2333V40.5977ZM24.7667 36.1977H24.9667V35.9977H24.7667V36.1977ZM24.7667 40.5977V40.7977H24.9667V40.5977H24.7667ZM43.1667 34.731V34.931H43.1669L43.1667 34.731ZM4.83333 34.731L4.83311 34.931H4.83333V34.731ZM45.3356 33.2644L45.5231 33.334L45.6232 33.0644H45.3356V33.2644ZM2.66443 33.2644V33.0644H2.37684L2.47694 33.334L2.66443 33.2644ZM46.2333 31.5977H43.9333V31.9977H46.2333V31.5977ZM47.2 32.5309C47.2 32.0072 46.7587 31.5977 46.2333 31.5977V31.9977C46.5548 31.9977 46.8 32.2447 46.8 32.5309H47.2ZM43.1669 36.3976C45.3847 36.3951 47.1974 34.6737 47.2 32.5312L46.8 32.5307C46.7977 34.4362 45.1806 35.9953 43.1664 35.9976L43.1669 36.3976ZM26.3 36.3976H43.1667V35.9976H26.3V36.3976ZM26.5 40.5976V36.1976H26.1V40.5976H26.5ZM29.3667 40.3976H26.3V40.7976H29.3667V40.3976ZM33.4 44.264C33.3974 42.1215 31.5847 40.4001 29.3669 40.3976L29.3664 40.7976C31.3806 40.7999 32.9977 42.3591 33 44.2645L33.4 44.264ZM32.4333 45.1976C32.9587 45.1976 33.4 44.788 33.4 44.2643H33C33 44.5505 32.7547 44.7976 32.4333 44.7976V45.1976ZM15.5667 45.1976H32.4333V44.7976H15.5667V45.1976ZM14.6 44.2643C14.6 44.788 15.0413 45.1976 15.5667 45.1976V44.7976C15.2453 44.7976 15 44.5505 15 44.2643H14.6ZM18.6331 40.3976C16.4153 40.4001 14.6026 42.1215 14.6 44.264L15 44.2645C15.0023 42.3591 16.6194 40.7999 18.6336 40.7976L18.6331 40.3976ZM21.7 40.3976H18.6333V40.7976H21.7V40.3976ZM21.5 36.1976V40.5976H21.9V36.1976H21.5ZM4.83333 36.3976H21.7V35.9976H4.83333V36.3976ZM0.8 32.5312C0.802638 34.6737 2.61528 36.3951 4.83311 36.3976L4.83356 35.9976C2.81939 35.9953 1.20235 34.4362 1.2 32.5307L0.8 32.5312ZM1.76667 31.5976C1.24129 31.5976 0.8 32.0072 0.8 32.5309H1.2C1.2 32.2447 1.44526 31.9976 1.76667 31.9976V31.5976ZM4.06667 31.5976H1.76667V31.9976H4.06667V31.5976ZM3.86667 18.215V31.7976H4.26667V18.215H3.86667ZM7.13333 15.0817C5.33769 15.0817 3.86667 16.4762 3.86667 18.215H4.26667C4.26667 16.7137 5.54166 15.4817 7.13333 15.4817V15.0817ZM10.2 15.0817H7.13333V15.4817H10.2V15.0817ZM10 4.12225V15.2817H10.4V4.12225H10ZM13.2667 0.988919C11.471 0.988919 10 2.38349 10 4.12225H10.4C10.4 2.62097 11.675 1.38892 13.2667 1.38892V0.988919ZM22.8639 0.988919H13.2667V1.38892H22.8639V0.988919ZM25.5471 0.989011L22.8639 0.988919L22.8639 1.38892L25.5471 1.38901L25.5471 0.989011ZM34.7333 0.989011H25.5471V1.38901H34.7333V0.989011ZM38 4.12234C38 2.38358 36.529 0.989011 34.7333 0.989011V1.38901C36.325 1.38901 37.6 2.62106 37.6 4.12234H38ZM38 15.2818V4.12234H37.6V15.2818H38ZM40.8667 15.0818H37.8V15.4818H40.8667V15.0818ZM44.1333 18.2151C44.1333 16.4763 42.6623 15.0818 40.8667 15.0818V15.4818C42.4583 15.4818 43.7333 16.7138 43.7333 18.2151H44.1333ZM44.1333 31.7977V18.2151H43.7333V31.7977H44.1333ZM11.9333 4.12234C11.9333 3.43103 12.5218 2.85568 13.2667 2.85568V2.45568C12.3178 2.45568 11.5333 3.19354 11.5333 4.12234H11.9333ZM11.9332 5.58902L11.9333 4.12236L11.5333 4.12233L11.5332 5.589L11.9332 5.58902ZM11.9332 7.53601V5.58901H11.5332V7.53601H11.9332ZM13.9731 5.53971C13.4501 6.37901 12.6357 7.01889 11.669 7.3466L11.7974 7.72542C12.849 7.36893 13.7393 6.67139 14.3126 5.75125L13.9731 5.53971ZM14.2399 5.28051C14.1386 5.34696 14.0505 5.43106 13.9803 5.52897L14.3054 5.76199C14.3464 5.70479 14.3984 5.65488 14.4593 5.615L14.2399 5.28051ZM15.6195 5.52898C15.3067 5.09248 14.6901 4.98538 14.2399 5.28049L14.4592 5.61501C14.7348 5.43437 15.1098 5.50438 15.2944 5.76197L15.6195 5.52898ZM17.1506 6.99702C16.5229 6.63949 15.9994 6.1383 15.6267 5.53977L15.2872 5.75119C15.6957 6.40739 16.2684 6.95487 16.9526 7.3446L17.1506 6.99702ZM23.1731 5.53977C21.9349 7.52834 19.2383 8.18626 17.1506 6.99703L16.9526 7.34459C19.2204 8.63641 22.157 7.9285 23.5127 5.75119L23.1731 5.53977ZM23.5051 5.22158C23.3699 5.29933 23.2559 5.40815 23.1736 5.53897L23.5122 5.75198C23.559 5.67747 23.6248 5.61414 23.7045 5.56833L23.5051 5.22158ZM24.8263 5.53902C24.5489 5.09794 23.9579 4.96117 23.5051 5.22158L23.7045 5.56832C23.9775 5.41129 24.3285 5.49892 24.4876 5.75194L24.8263 5.53902ZM26.3506 6.99703C25.723 6.63948 25.1994 6.13829 24.8267 5.53977L24.4872 5.75119C24.8957 6.4074 25.4685 6.95487 26.1526 7.34459L26.3506 6.99703ZM32.3731 5.53977C31.1349 7.52834 28.4383 8.18626 26.3506 6.99703L26.1526 7.34459C28.4204 8.63641 31.357 7.9285 32.7127 5.75119L32.3731 5.53977ZM32.7052 5.22158C32.57 5.29929 32.4559 5.40809 32.3736 5.53897L32.7122 5.75198C32.759 5.67753 32.8249 5.61418 32.9046 5.56833L32.7052 5.22158ZM34.0263 5.53902C33.749 5.09794 33.158 4.96117 32.7052 5.22158L32.9046 5.56832C33.1776 5.41129 33.5286 5.49892 33.6877 5.75194L34.0263 5.53902ZM36.3309 7.3466C35.3642 7.01889 34.5498 6.37901 34.0268 5.53971L33.6873 5.75125C34.2606 6.67139 35.1509 7.36893 36.2025 7.72542L36.3309 7.3466ZM36.0667 5.58901V7.53601H36.4667V5.58901H36.0667ZM36.0667 4.12234V5.58901H36.4667V4.12234H36.0667ZM34.7333 2.85568C35.4782 2.85568 36.0667 3.43103 36.0667 4.12234H36.4667C36.4667 3.19354 35.6822 2.45568 34.7333 2.45568V2.85568ZM13.2667 2.85568H34.7333V2.45568H13.2667V2.85568ZM14.6527 7.1287C13.8707 7.98066 12.8368 8.58785 11.6858 8.86927L11.7808 9.25782C13.0067 8.95807 14.1107 8.31071 14.9473 7.39918L14.6527 7.1287ZM23.3131 7.6448C20.8537 9.71178 17.1064 9.47916 14.9473 7.12865L14.6527 7.39924C16.9579 9.90889 20.9487 10.1544 23.5705 7.95101L23.3131 7.6448ZM23.8527 7.12866C23.6847 7.31158 23.5045 7.484 23.3131 7.64478L23.5704 7.95102C23.7749 7.77923 23.9676 7.5949 24.1473 7.39923L23.8527 7.12866ZM32.5131 7.6448C30.0537 9.71177 26.3064 9.47916 24.1473 7.12865L23.8527 7.39924C26.1579 9.90889 30.1487 10.1544 32.7705 7.95101L32.5131 7.6448ZM33.0527 7.12866C32.8847 7.31158 32.7045 7.484 32.5131 7.64478L32.7704 7.95102C32.9749 7.77923 33.1676 7.5949 33.3473 7.39923L33.0527 7.12866ZM36.3142 8.86927C35.1632 8.58785 34.1293 7.98066 33.3473 7.1287L33.0527 7.39918C33.8893 8.31071 34.9933 8.95807 36.2192 9.25782L36.3142 8.86927ZM36.4667 15.2818V9.06354H36.0667V15.2818H36.4667ZM11.7333 15.4818H36.2667V15.0818H11.7333V15.4818ZM11.5333 9.06354V15.2818H11.9333V9.06354H11.5333ZM5.8 19.6818V18.2151H5.4V19.6818H5.8ZM5.8 21.8818V19.6818H5.4V21.8818H5.8ZM9.37279 19.633C8.58653 20.9039 7.15239 21.6858 5.60052 21.6818L5.59948 22.0818C7.28466 22.0862 8.85069 21.2372 9.71295 19.8435L9.37279 19.633ZM9.63991 19.3733C9.53857 19.4397 9.45048 19.5238 9.38031 19.6217L9.70543 19.8547C9.74642 19.7975 9.79844 19.7476 9.85926 19.7078L9.63991 19.3733ZM11.0195 19.6217C10.7067 19.1852 10.0901 19.0781 9.63993 19.3732L9.85924 19.7078C10.1348 19.5271 10.5098 19.5971 10.6944 19.8547L11.0195 19.6217ZM12.5506 21.0898C11.9229 20.7322 11.3994 20.2311 11.0267 19.6325L10.6872 19.8439C11.0957 20.5001 11.6684 21.0476 12.3526 21.4374L12.5506 21.0898ZM18.5731 19.6325C17.3349 21.6211 14.6383 22.279 12.5506 21.0898L12.3526 21.4373C14.6204 22.7292 17.557 22.0212 18.9127 19.8439L18.5731 19.6325ZM18.8399 19.3733C18.7386 19.4397 18.6505 19.5238 18.5803 19.6217L18.9054 19.8547C18.9464 19.7975 18.9984 19.7476 19.0593 19.7078L18.8399 19.3733ZM20.2195 19.6217C19.9067 19.1852 19.2901 19.0781 18.8399 19.3732L19.0592 19.7078C19.3348 19.5271 19.7098 19.5971 19.8944 19.8547L20.2195 19.6217ZM21.7506 21.0898C21.1229 20.7322 20.5994 20.2311 20.2267 19.6325L19.8872 19.8439C20.2957 20.5001 20.8684 21.0476 21.5526 21.4374L21.7506 21.0898ZM27.7731 19.6325C26.5349 21.6211 23.8383 22.279 21.7506 21.0898L21.5526 21.4373C23.8204 22.7292 26.757 22.0212 28.1127 19.8439L27.7731 19.6325ZM28.0399 19.3733C27.9386 19.4397 27.8505 19.5238 27.7803 19.6217L28.1054 19.8547C28.1464 19.7975 28.1984 19.7476 28.2593 19.7078L28.0399 19.3733ZM29.4195 19.6217C29.1067 19.1852 28.4901 19.0781 28.0399 19.3732L28.2592 19.7078C28.5348 19.5271 28.9098 19.5971 29.0944 19.8547L29.4195 19.6217ZM30.9506 21.0898C30.323 20.7322 29.7994 20.231 29.4267 19.6325L29.0872 19.8439C29.4957 20.5002 30.0685 21.0476 30.7526 21.4373L30.9506 21.0898ZM36.9731 19.6325C35.7349 21.6211 33.0383 22.279 30.9506 21.0898L30.7526 21.4373C33.0204 22.7292 35.957 22.0212 37.3127 19.8439L36.9731 19.6325ZM37.3052 19.3143C37.17 19.392 37.0559 19.5008 36.9736 19.6317L37.3122 19.8447C37.359 19.7703 37.4249 19.7069 37.5046 19.6611L37.3052 19.3143ZM38.6263 19.6318C38.349 19.1907 37.758 19.0539 37.3052 19.3143L37.5046 19.6611C37.7776 19.504 38.1286 19.5917 38.2877 19.8447L38.6263 19.6318ZM42.3995 21.6818C40.8476 21.6859 39.4135 20.904 38.6271 19.633L38.287 19.8435C39.1493 21.2373 40.7153 22.0862 42.4005 22.0818L42.3995 21.6818ZM42.2 19.6818V21.8818H42.6V19.6818H42.2ZM42.2 18.2151V19.6818H42.6V18.2151H42.2ZM40.8667 16.9484C41.6116 16.9484 42.2 17.5238 42.2 18.2151H42.6C42.6 17.2863 41.8155 16.5484 40.8667 16.5484V16.9484ZM7.13333 16.9484H40.8667V16.5484H7.13333V16.9484ZM5.8 18.2151C5.8 17.5238 6.38844 16.9484 7.13333 16.9484V16.5484C6.18447 16.5484 5.4 17.2863 5.4 18.2151H5.8ZM10.0522 21.2227C8.9329 22.4507 7.30869 23.1548 5.60075 23.1484L5.59925 23.5484C7.41702 23.5552 9.15024 22.8061 10.3478 21.4922L10.0522 21.2227ZM18.7131 21.7383C16.2537 23.8053 12.5064 23.5726 10.3473 21.2221L10.0527 21.4927C12.3579 24.0024 16.3487 24.2479 18.9704 22.0445L18.7131 21.7383ZM19.2527 21.2221C19.0847 21.4051 18.9045 21.5775 18.7131 21.7383L18.9704 22.0445C19.1749 21.8727 19.3676 21.6884 19.5473 21.4927L19.2527 21.2221ZM27.9131 21.7383C25.4537 23.8053 21.7064 23.5726 19.5473 21.2221L19.2527 21.4927C21.5579 24.0024 25.5487 24.2479 28.1705 22.0445L27.9131 21.7383ZM28.4527 21.2221C28.2847 21.4051 28.1045 21.5775 27.9131 21.7383L28.1704 22.0445C28.3749 21.8727 28.5676 21.6884 28.7473 21.4927L28.4527 21.2221ZM37.1131 21.7383C34.6537 23.8053 30.9064 23.5726 28.7473 21.2221L28.4527 21.4927C30.7579 24.0024 34.7487 24.2479 37.3704 22.0445L37.1131 21.7383ZM37.6527 21.2222C37.4847 21.4051 37.3045 21.5775 37.1131 21.7383L37.3704 22.0445C37.5749 21.8727 37.7676 21.6884 37.9473 21.4927L37.6527 21.2222ZM42.3993 23.1484C40.6914 23.1548 39.0671 22.4507 37.9478 21.2227L37.6522 21.4922C38.8498 22.8061 40.5831 23.5552 42.4007 23.5484L42.3993 23.1484ZM42.6 31.7977V23.3484H42.2V31.7977H42.6ZM5.6 31.9977H42.4V31.5977H5.6V31.9977ZM5.4 23.3484V31.7977H5.8V23.3484H5.4ZM29.3664 42.2644C30.2618 42.2654 31.0525 42.8047 31.3481 43.6007L31.7231 43.4614C31.3663 42.5007 30.4204 41.8656 29.3669 41.8644L29.3664 42.2644ZM18.6333 42.2644H29.3667V41.8644H18.6333V42.2644ZM16.6519 43.6007C16.9475 42.8047 17.7382 42.2654 18.6336 42.2644L18.6331 41.8644C17.5796 41.8656 16.6337 42.5007 16.2769 43.4614L16.6519 43.6007ZM31.5356 43.331H16.4644V43.731H31.5356V43.331ZM23.0333 36.1977V40.5977H23.4333V36.1977H23.0333ZM24.7667 35.9977H23.2333V36.3977H24.7667V35.9977ZM24.9667 40.5977V36.1977H24.5667V40.5977H24.9667ZM23.2333 40.7977H24.7667V40.3977H23.2333V40.7977ZM43.1667 34.531H4.83333V34.931H43.1667V34.531ZM45.1481 33.1948C44.8526 33.9906 44.0618 34.5299 43.1664 34.531L43.1669 34.931C44.2204 34.9297 45.1663 34.2947 45.5231 33.334L45.1481 33.1948ZM2.66443 33.4644H45.3356V33.0644H2.66443V33.4644ZM4.83356 34.531C3.93819 34.53 3.14745 33.9907 2.85193 33.1948L2.47694 33.334C2.83366 34.2947 3.77961 34.9299 4.83311 34.931L4.83356 34.531Z" fill="#4D4D4D" mask="url(#path-1-outside-1)"/>
</svg>
